<svg width="25" height="30" viewBox="0 0 25 30" fill="none" xmlns="http://www.w3.org/2000/svg">
<g clip-path="url(#clip0_408_86)">
<path fill-rule="evenodd" clip-rule="evenodd" d="M13.4942 2.61052C15.4655 0.0128137 18.2056 0 18.2056 0C18.2056 0 18.6132 2.44246 16.6552 4.79572C14.5641 7.30817 12.1877 6.89715 12.1877 6.89715C12.1877 6.89715 11.7417 4.92139 13.4942 2.61101V2.61052Z" fill="black"/>
<path fill-rule="evenodd" clip-rule="evenodd" d="M12.438 8.60776C13.4523 8.60776 15.3339 7.21404 17.7837 7.21404C22.0004 7.21404 23.6593 10.2144 23.6593 10.2144C23.6593 10.2144 20.415 11.8732 20.415 15.8982C20.415 20.4386 24.4567 22.0034 24.4567 22.0034C24.4567 22.0034 21.6313 29.9556 17.8153 29.9556C16.0623 29.9556 14.7001 28.7743 12.853 28.7743C11.0059 28.7743 9.10354 29.9995 7.88724 29.9995C4.40244 30 0 22.4568 0 16.393C0 10.3292 3.72628 7.29782 7.22143 7.29782C9.49337 7.29782 11.2567 8.60825 12.438 8.60825V8.60776Z" fill="black"/>
</g>
<defs>
<clipPath id="clip0_408_86">
<rect width="24.4567" height="30" fill="white"/>
</clipPath>
</defs>
</svg>
