<svg width="30" height="30" viewBox="0 0 30 30" fill="none" xmlns="http://www.w3.org/2000/svg">
<g clip-path="url(#clip0_408_87)">
<path d="M14.9924 29.9849C23.2725 29.9849 29.9849 23.2725 29.9849 14.9924C29.9849 6.71234 23.2725 0 14.9924 0C6.71234 0 0 6.71234 0 14.9924C0 23.2725 6.71234 29.9849 14.9924 29.9849Z" fill="#1877F7"/>
<path fill-rule="evenodd" clip-rule="evenodd" d="M12.6922 29.8244V19.6185H9.1286V15.2806H12.6922V11.5856C12.6922 9.07267 14.4028 7.00867 17.0022 7.00867H20.8563V10.7124H18.437C17.6521 10.7124 17.01 11.3545 17.01 12.1394C17.01 13.1845 17.0106 14.2317 17.0116 15.2804H20.8564L20.2396 19.6184H17.0175C17.023 23.0278 17.0296 26.4591 17.0299 29.8616C16.3635 29.9522 15.7292 30 14.9924 30C14.2557 30 13.4421 29.9399 12.6922 29.8244Z" fill="white"/>
</g>
<defs>
<clipPath id="clip0_408_87">
<rect width="29.9849" height="30" fill="white"/>
</clipPath>
</defs>
</svg>
