<svg width="30" height="31" viewBox="0 0 30 31" fill="none" xmlns="http://www.w3.org/2000/svg">
<g clip-path="url(#clip0_408_81)">
<path d="M29.7702 12.7427H15.306V18.6809H23.6222C23.2226 20.5073 22.1683 22.0619 20.6035 23.1238V23.1388L25.4226 26.8702H25.442C28.3247 24.2196 29.9997 20.2951 29.9997 15.6397C29.9997 14.6373 29.9146 13.6774 29.7702 12.7427Z" fill="#4285F4"/>
<path d="M25.4336 26.8786C22.8996 29.2147 19.4387 30.5825 15.306 30.5825C9.32821 30.5825 4.15838 27.1504 1.64119 22.1469L6.63275 18.2816C7.86588 21.9344 11.284 24.6359 15.306 24.6359C17.4149 24.6359 19.2092 24.0753 20.5951 23.1322L20.6038 23.1388L25.4226 26.8702L25.4336 26.8786Z" fill="#34A853"/>
<path d="M6.13092 15.2913C6.13092 16.3361 6.30948 17.3385 6.63274 18.2816L1.64118 22.1469C0.603976 20.0826 0 17.7635 0 15.2913C0 12.819 0.603976 10.5 1.64118 8.43565L6.63274 12.3009C6.30948 13.244 6.13092 14.2464 6.13092 15.2913Z" fill="#FBBC05"/>
<path d="M21.25 8.27432V8.26594C19.6343 6.72811 17.5851 5.94662 15.306 5.94662C11.284 5.94662 7.86588 8.64815 6.63275 12.3009L1.64119 8.43565C4.15838 3.43214 9.32821 0 15.306 0C19.4387 0 22.8912 1.5121 25.5441 3.98436L21.25 8.27432Z" fill="#EA4335"/>
</g>
<defs>
<clipPath id="clip0_408_81">
<rect width="30" height="30.5825" fill="white"/>
</clipPath>
</defs>
</svg>
