<svg width="150" height="57" viewBox="0 0 150 57" fill="none" xmlns="http://www.w3.org/2000/svg">
<g clip-path="url(#clip0_17_226)">
<path d="M59.3083 19.4212C62.1527 19.4212 64.4628 16.9999 64.4628 14.0274C64.4628 11.0605 62.1527 8.63354 59.3083 8.63354C56.4694 8.63354 54.1594 11.0605 54.1594 14.0274C54.1594 16.9999 56.4694 19.4212 59.3083 19.4212ZM59.3083 10.4816C61.1341 10.4816 62.6147 12.068 62.6147 14.0274C62.6147 15.9868 61.1341 17.5788 59.3083 17.5788C57.4881 17.5788 56.013 15.9868 56.013 14.0274C56.013 12.068 57.4937 10.4816 59.3083 10.4816Z" fill="#2A256D"/>
<path d="M102.576 8.422H67.5911C67.079 8.422 66.6615 8.83391 66.6615 9.34602V13.5932C66.6615 14.1053 67.079 14.5228 67.5911 14.5228H69.3223V18.1521C66.6114 20.0224 64.4183 20.8907 63.8783 21.0911H54.5936C51.5098 21.0911 48.9993 23.596 48.9993 26.6854V37.1781C48.9993 38.976 50.4633 40.44 52.2557 40.44C52.7622 40.44 53.2409 40.3286 53.6695 40.1227V55.152H47.424C46.9119 55.152 46.5 55.5695 46.5 56.0816C46.5 56.5937 46.9119 57.0056 47.424 57.0056H99.9208C100.438 57.0056 100.85 56.5937 100.85 56.0816C100.85 55.5695 100.438 55.152 99.9208 55.152H93.5417L86.4223 36.3542H90.9756C91.4877 36.3542 91.8996 35.9367 91.8996 35.4246C91.8996 34.9125 91.4877 34.5006 90.9756 34.5006H71.1759V25.6779C71.1759 25.6779 71.2093 25.6556 71.226 25.65C72.2725 25.0711 73.2354 24.431 74.1038 23.7574C74.1149 23.7407 74.1372 23.7352 74.1539 23.7185C75.9463 22.3102 77.3657 20.7349 78.3677 19.2208C78.5291 18.9926 78.6571 18.7866 78.7573 18.6197C79.5867 17.2336 79.2806 15.5804 78.0504 14.5228H93.6252C94.1373 14.5228 94.5492 14.1053 94.5492 13.5932C94.5492 13.0811 94.1373 12.6692 93.6252 12.6692H68.5096V10.2756H101.646V12.6692H99.9152C99.4031 12.6692 98.9912 13.0811 98.9912 13.5932V34.5006H97.5773C97.0652 34.5006 96.6533 34.9125 96.6533 35.4246C96.6533 35.9367 97.0652 36.3542 97.5773 36.3542H99.9152C100.427 36.3542 100.845 35.9367 100.845 35.4246V14.5228H102.576C103.088 14.5228 103.5 14.1053 103.5 13.5932V9.34602C103.5 8.83391 103.088 8.422 102.576 8.422ZM60.2323 55.152V40.4845C60.2323 39.9724 59.8148 39.5605 59.3027 39.5605C58.7906 39.5605 58.3787 39.9724 58.3787 40.4845V55.152H55.5064V29.2571C55.5064 28.7449 55.0945 28.3275 54.5824 28.3275C54.0647 28.3275 53.6528 28.7449 53.6528 29.2571V37.1836C53.6528 37.9629 53.0183 38.5975 52.2445 38.5975C51.4652 38.5975 50.8307 37.9629 50.8307 37.1836V26.6909C50.8307 24.6258 52.5117 22.9448 54.5824 22.9448H64.023C64.1177 22.9448 64.2123 22.9281 64.3069 22.9002C64.5185 22.8279 69.6785 21.1023 74.8219 15.9533C75.334 15.4412 76.1689 15.3967 76.759 15.8587C77.3713 16.3374 77.5216 17.0444 77.1431 17.6678C77.0429 17.8348 76.9371 17.9962 76.8258 18.1688C75.924 19.4991 73.7086 22.299 69.801 24.3085C69.801 24.3085 69.801 24.3085 69.7898 24.3085C68.0531 25.1991 66.077 25.8949 63.8728 26.2401C63.4219 26.3124 63.0935 26.6965 63.0935 27.153V55.152H60.2212H60.2323ZM78.5959 55.152L84.1567 40.4789V55.152H78.5959ZM85.9992 55.152V40.4789L91.5601 55.152H85.9992ZM70.2352 36.3542H83.7337L76.6198 55.152H64.9471V27.9323C66.5168 27.6261 67.9696 27.153 69.3056 26.5852V35.4302C69.3056 35.9479 69.723 36.3598 70.2352 36.3598V36.3542ZM73.5249 14.6397C73.1854 14.9848 72.8347 15.3132 72.4729 15.6416C72.3949 15.7084 72.3226 15.7752 72.2446 15.8476C71.8939 16.1537 71.5433 16.4599 71.1814 16.7605C71.1814 16.7605 71.1647 16.7716 71.1592 16.7716V14.5228H73.6752C73.6251 14.5617 73.575 14.6007 73.5249 14.6397Z" fill="#2A256D"/>
</g>
<defs>
<clipPath id="clip0_17_226">
<rect width="150" height="57" fill="white"/>
</clipPath>
</defs>
</svg>
