<svg width="152" height="57" viewBox="0 0 152 57" fill="none" xmlns="http://www.w3.org/2000/svg">
<path d="M64.8994 4.19705C65.0291 4.19705 65.1588 4.16922 65.2885 4.11912C65.8694 3.86863 66.4502 3.64598 67.0367 3.44002C67.5498 3.26189 67.8262 2.70526 67.6457 2.20428C67.4653 1.69773 66.9013 1.42498 66.3882 1.60311C65.7622 1.82576 65.125 2.06512 64.5103 2.33231C64.0141 2.54383 63.7829 3.1116 63.9972 3.61258C64.1551 3.98553 64.5272 4.19705 64.8994 4.19705Z" fill="#2A256D"/>
<path d="M104.063 22.004C104.063 22.004 104.063 21.9929 104.063 21.9873C104.063 21.965 104.052 21.9372 104.047 21.9149C103.922 21.3973 103.776 20.874 103.624 20.3619C103.624 20.3508 103.618 20.3341 103.612 20.3118C103.28 19.2319 102.891 18.1687 102.434 17.1445C102.422 17.1 102.4 17.0666 102.377 17.0221C102.174 16.5712 101.966 16.1314 101.74 15.6973C101.689 15.5971 101.639 15.4969 101.582 15.3967C101.379 15.0182 101.176 14.6396 100.962 14.2778C100.9 14.1665 100.832 14.0496 100.759 13.9383C100.522 13.5431 100.274 13.159 100.026 12.7805C99.9638 12.697 99.9074 12.6135 99.851 12.5244C99.586 12.1348 99.304 11.7507 99.0108 11.3722C98.8529 11.1662 98.6893 10.9658 98.5314 10.7654C98.3735 10.5762 98.21 10.3813 98.0521 10.1865C97.9675 10.0808 97.8829 9.975 97.7927 9.86924C97.7814 9.84697 97.7476 9.84141 97.7363 9.81914C92.4468 3.81299 84.6478 0 75.9578 0C74.6044 0 73.2285 0.0946288 71.8864 0.283887C71.345 0.361816 70.8149 0.450879 70.2792 0.556641C69.7435 0.662403 69.3995 1.17451 69.5066 1.70332C69.5969 2.16533 70.0085 2.48818 70.4709 2.48818C70.5386 2.48818 70.6006 2.48818 70.6683 2.46592C71.1646 2.36572 71.6664 2.28223 72.1683 2.21543C73.4202 2.04287 74.6947 1.95381 75.9635 1.95381C83.6553 1.95381 90.5915 5.16006 95.4976 10.2756L92.8923 11.7562C92.4806 11.99 92.3284 12.4688 92.4693 12.8974L89.7456 14.4504C89.5482 14.5617 89.3283 14.5896 89.1028 14.5395L85.708 13.7713C84.2249 13.4373 82.6797 13.6655 81.3602 14.4114L75.9578 17.4896L70.2848 14.2556C69.2472 13.6655 68.125 13.2313 66.9577 12.9753L66.3656 12.8473C64.86 12.5133 63.4051 11.9511 62.0686 11.1885L60.8674 10.4927C60.9238 10.3145 60.952 10.1309 60.9013 9.94717C60.8392 9.69668 60.6701 9.48516 60.4389 9.35713L58.5441 8.27168C59.2264 7.69277 59.937 7.15283 60.6757 6.64629C61.0986 6.3624 61.5216 6.08965 61.9558 5.82803C62.4182 5.54971 62.5705 4.9541 62.2829 4.48652C62.0009 4.03008 61.3919 3.88535 60.9238 4.16924C60.4614 4.44756 59.999 4.73701 59.5535 5.04316C57.9125 6.16201 56.4068 7.44785 55.0478 8.85615C54.935 8.97861 54.8166 9.10664 54.7038 9.2291C54.4613 9.48516 54.2245 9.74678 53.9933 10.0195C53.8523 10.1865 53.7057 10.3591 53.5591 10.5316C53.373 10.7599 53.1869 10.9937 53.0064 11.2274C52.8542 11.4223 52.7076 11.6115 52.5666 11.8119C52.3918 12.0457 52.2339 12.2851 52.0647 12.5188C51.9293 12.7192 51.7827 12.9196 51.653 13.1145C51.388 13.5208 51.1342 13.9383 50.8917 14.3558C50.7677 14.5729 50.6605 14.7844 50.5365 14.9959C50.4011 15.2464 50.2602 15.4969 50.1305 15.7474C50.0177 15.9645 49.9162 16.1927 49.809 16.4153C49.685 16.677 49.5609 16.9386 49.4481 17.2058C49.3522 17.4117 49.2677 17.6288 49.1774 17.8348C49.0477 18.1632 48.918 18.4916 48.7996 18.8145C48.7545 18.9258 48.7094 19.0315 48.6755 19.1429C48.6755 19.154 48.6755 19.1651 48.6755 19.1707C48.168 20.6124 47.7733 22.0931 47.5026 23.6071C47.4124 24.1304 47.7733 24.6369 48.3034 24.7315C48.3654 24.7371 48.4218 24.7427 48.4725 24.7427C48.9406 24.7427 49.3579 24.4087 49.4368 23.9411C49.6173 22.9113 49.871 21.9038 50.1699 20.913L52.7865 22.3992C52.95 22.4883 53.1136 22.5272 53.2771 22.5272C53.5534 22.5272 53.8185 22.4104 54.0102 22.1988L56.717 23.7463C56.9087 23.8521 57.0554 24.0302 57.1174 24.2473L58.1381 27.5314C58.5836 28.9676 59.5591 30.1755 60.8731 30.927L66.2698 34.0052V40.4789C66.2698 41.659 66.4502 42.8279 66.8055 43.9635L66.9859 44.5312C67.4483 45.9896 67.6795 47.5093 67.6795 49.0345V50.4094C67.2341 50.504 66.8901 50.8714 66.8901 51.3445V53.5154C56.9482 50.0197 49.6568 40.863 49.0928 29.8471C49.0646 29.3127 48.6304 28.9008 48.0609 28.923C47.5195 28.9509 47.1022 29.4073 47.1248 29.9417C47.7789 42.956 57.2076 53.5488 69.5969 56.2931C69.642 56.3042 69.6927 56.3153 69.7378 56.3209C71.0067 56.5992 72.3037 56.794 73.6345 56.8942C73.7698 56.9054 73.9108 56.9165 74.0518 56.9221C74.6834 56.9666 75.315 56.9944 75.9578 56.9944C76.6345 56.9944 77.3169 56.9555 77.9936 56.9165C78.174 56.8998 78.3601 56.8942 78.5406 56.8775C79.1045 56.8274 79.6741 56.7551 80.238 56.6771C80.5481 56.6382 80.8526 56.577 81.1628 56.5324C81.2361 56.5157 81.3151 56.5102 81.3884 56.4935C81.3996 56.4935 81.4166 56.4823 81.4391 56.4712C85.7587 55.6585 89.8415 53.8939 93.4111 51.2054C93.8453 50.8769 94.2739 50.543 94.6799 50.1978C95.0916 49.8472 95.1423 49.2349 94.7927 48.8285C94.4374 48.4222 93.8171 48.3665 93.4054 48.7228C93.022 49.04 92.6272 49.3629 92.2212 49.6635C89.2043 51.929 85.8038 53.4932 82.1891 54.3337V51.3445C82.1891 50.8714 81.8508 50.504 81.3996 50.4094V47.3089C81.3996 47.0918 81.4899 46.8747 81.6421 46.7133L84.0162 44.1973C85.0538 43.0896 85.6234 41.659 85.6234 40.1561V33.9996L91.2964 30.7655C92.334 30.1755 93.2757 29.4352 94.0821 28.5668L94.4938 28.1215C95.5483 26.9971 96.7607 26.0396 98.1029 25.2771L99.3097 24.5868C99.4394 24.7315 99.5916 24.8429 99.7721 24.8874C99.8566 24.9097 99.9356 24.9208 100.026 24.9208C100.195 24.9208 100.364 24.8818 100.516 24.7928L102.411 23.7129C102.704 25.2659 102.862 26.8523 102.862 28.4833C102.862 28.9898 102.845 29.4908 102.817 29.9918C102.789 30.5262 103.201 30.9882 103.748 31.016C103.77 31.016 103.787 31.016 103.804 31.016C104.329 31.016 104.757 30.6152 104.785 30.0976C104.819 29.5632 104.83 29.0288 104.83 28.4833C104.83 26.2512 104.565 24.0747 104.063 21.9873V22.004ZM50.8635 18.9536C50.9538 18.7087 51.0609 18.4693 51.1624 18.2244C51.2414 18.0407 51.3147 17.857 51.4049 17.6678C51.4557 17.5564 51.512 17.4507 51.5628 17.3338C51.8504 16.7215 52.1606 16.1259 52.4933 15.5303C52.5384 15.4523 52.5722 15.3855 52.6173 15.3021C52.7583 15.0571 52.9162 14.8122 53.0685 14.5617C53.1587 14.4226 53.2433 14.2778 53.3391 14.1387C53.4801 13.9216 53.6267 13.7101 53.779 13.493C53.8918 13.3315 53.9989 13.1645 54.123 13.0031C54.2583 12.8083 54.4049 12.6246 54.5516 12.4409C54.6869 12.2628 54.8222 12.0791 54.9689 11.901C55.1042 11.734 55.2452 11.5726 55.3805 11.4167C55.5441 11.2219 55.7132 11.0215 55.8824 10.8378C56.0065 10.7042 56.1362 10.565 56.2602 10.4314C56.4632 10.2199 56.655 10.0084 56.8693 9.80244C56.92 9.75234 56.9651 9.70225 57.0272 9.65215L58.6005 10.5539L52.9388 20.2339L50.8297 19.0371C50.8297 19.0371 50.8466 18.987 50.8635 18.9592V18.9536ZM61.8881 29.2403C61.0028 28.7338 60.3543 27.9322 60.0498 26.9637L59.0347 23.6739C58.8204 22.9948 58.3524 22.4215 57.7264 22.0597L55.0422 20.5289L59.9144 12.1904L61.0817 12.8584C62.5987 13.7212 64.2284 14.3558 65.9314 14.7343L66.5235 14.8623C67.4991 15.085 68.4296 15.4412 69.298 15.9311L74.5706 18.9369C74.3732 19.3488 74.2717 19.7997 74.2548 20.2506L73.939 20.0725C73.471 19.7997 72.8619 19.9667 72.5856 20.4287C72.3149 20.8907 72.4785 21.4863 72.9465 21.7535L74.8808 22.8557C74.8808 22.8557 74.8695 22.8557 74.8638 22.8557C74.362 22.9726 73.939 23.2509 73.6007 23.6183L72.2924 22.8779C71.8243 22.6052 71.2153 22.7722 70.9446 23.2342C70.6796 23.6739 70.8262 24.225 71.2435 24.5089C70.2566 24.893 69.5687 25.8949 69.5687 27.0082V27.8098C69.157 27.704 68.7284 27.704 68.2942 27.8042C68.1871 27.832 68.0856 27.8654 67.9728 27.91L64.0648 25.6778C63.5855 25.4051 62.9878 25.5721 62.7114 26.0341C62.4408 26.4961 62.6043 27.0973 63.0723 27.3645L66.5179 29.3238C66.3713 29.6634 66.2867 30.0252 66.2867 30.4093V31.7563L61.8768 29.2403H61.8881ZM78.5068 54.9293C78.2755 54.946 78.0443 54.9627 77.8131 54.985C77.2436 55.0184 76.674 55.0462 76.1045 55.0462C76.0481 55.0462 75.986 55.0462 75.9297 55.0462C75.9127 55.0462 75.9015 55.0462 75.8845 55.0462C75.439 55.0462 74.9935 55.0351 74.5424 55.0128C74.4353 55.0128 74.3338 54.9961 74.2266 54.9905C73.8657 54.9683 73.5048 54.9404 73.1439 54.907C73.0424 54.8959 72.9465 54.8848 72.845 54.8681C72.4785 54.8291 72.1063 54.779 71.7341 54.7178C71.6552 54.7066 71.5819 54.6899 71.5029 54.6844C71.1138 54.6176 70.7191 54.5508 70.33 54.4617C70.2792 54.4506 70.2285 54.4395 70.1721 54.4283C69.7491 54.3337 69.3375 54.2335 68.9202 54.1277C68.9089 54.1277 68.892 54.1222 68.8863 54.1222V52.3186H80.2098V54.7178C80.0632 54.74 79.9278 54.7567 79.7868 54.779C79.3583 54.8347 78.9353 54.8903 78.5011 54.9349L78.5068 54.9293ZM83.6553 40.1561C83.6553 41.1691 83.2719 42.1321 82.5726 42.8725L80.1985 45.3885C79.7023 45.9062 79.4316 46.5908 79.4316 47.3089V50.376H69.6815V49.0345C69.6815 47.3089 69.4164 45.6 68.8976 43.9523L68.7172 43.3846C68.4239 42.4438 68.2717 41.4586 68.2717 40.4789V30.4148C68.2717 30.0753 68.4803 29.7691 68.7566 29.7023C69.0386 29.6411 69.236 29.7524 69.3318 29.8248C69.4897 29.9473 69.5799 30.131 69.5799 30.3313V34.4338C69.5799 34.9682 70.0198 35.4135 70.5668 35.4135C71.1138 35.4135 71.5537 34.9793 71.5537 34.4338V27.0193C71.5537 26.6742 71.7623 26.3681 72.0386 26.3068C72.3206 26.2345 72.5236 26.3458 72.6195 26.4293C72.7774 26.5462 72.8619 26.7354 72.8619 26.9303V34.4338C72.8619 34.9682 73.3018 35.4135 73.8488 35.4135C74.4014 35.4135 74.8413 34.9793 74.8413 34.4338V25.4774C74.8413 25.1379 75.0499 24.8317 75.3263 24.7649C75.6139 24.7037 75.8056 24.8095 75.9015 24.8874C76.0594 25.0099 76.1439 25.1936 76.1439 25.3939V34.4004C76.1439 34.9348 76.5894 35.3745 77.1364 35.3745C77.6834 35.3745 78.1233 34.9403 78.1233 34.4004V26.9414C78.1233 26.741 78.2192 26.5573 78.3771 26.4349C78.4729 26.3625 78.6646 26.2512 78.9522 26.3124C79.2286 26.3792 79.4372 26.6854 79.4372 27.0249V40.0726C79.4372 40.6069 79.8771 41.0467 80.4241 41.0467C80.9767 41.0467 81.4166 40.6125 81.4166 40.0726V33.7881C81.4166 33.4819 81.5406 33.198 81.7718 32.981C81.9918 32.7694 82.2963 32.6692 82.6064 32.6804C83.1534 32.7082 83.6666 33.3094 83.6666 33.9105V40.1728L83.6553 40.1561ZM97.1217 23.596C95.6047 24.4588 94.24 25.5387 93.0558 26.8022L92.6498 27.2476C91.9674 27.9712 91.1836 28.5835 90.3208 29.0845L85.0482 32.0903C84.7888 31.7118 84.4392 31.4001 84.0557 31.1663L84.3771 30.9882C84.8452 30.7154 85.0087 30.1254 84.738 29.6522C84.4617 29.1902 83.864 29.0288 83.3846 29.296L81.4166 30.426V28.9342L82.7305 28.1883C83.1985 27.9155 83.3621 27.3255 83.0914 26.8523C82.8151 26.3903 82.2173 26.2289 81.738 26.4961L81.3884 26.6965C81.3376 26.2512 81.1684 25.8281 80.926 25.4719L81.0557 25.3995C81.5237 25.1323 81.6872 24.5367 81.4166 24.0691C81.1402 23.6071 80.5425 23.4401 80.0632 23.7129L79.0932 24.2695C79.0425 24.2974 79.0143 24.3363 78.9692 24.3753C78.6195 24.353 78.2812 24.3753 77.9654 24.4755C77.8582 24.1916 77.6778 23.9355 77.4691 23.6962C78.1458 23.3065 78.8395 22.9113 78.8677 22.9002L84.3828 19.7552C84.8508 19.488 85.02 18.8979 84.7437 18.4248C84.4674 17.9628 83.8696 17.7958 83.3959 18.0686L77.8808 21.2136C77.6101 21.3583 77.2943 21.4028 76.9955 21.3082C76.7022 21.2247 76.4541 21.0243 76.3131 20.746C76.065 20.2617 76.3244 19.527 76.8545 19.2319L82.347 16.098C83.2324 15.5915 84.2643 15.4412 85.2681 15.6583L88.6629 16.432C89.3678 16.5879 90.1065 16.4821 90.7268 16.1259L93.4111 14.5896L97.1611 20.9965L98.2833 22.928L97.116 23.596H97.1217ZM101.983 21.7312L100.398 22.6386L94.7419 12.953L96.8341 11.7618C96.992 11.9566 97.1442 12.1459 97.2965 12.3407C97.3867 12.4632 97.4882 12.5801 97.5841 12.7025C97.7307 12.8974 97.8717 13.0978 98.0126 13.2926C98.1423 13.4818 98.272 13.6655 98.3905 13.8492C98.5032 14.0162 98.6104 14.1776 98.7119 14.3446C98.8642 14.5784 99.0051 14.8122 99.1518 15.0571C99.2307 15.1852 99.3097 15.3187 99.383 15.4523C99.5409 15.7418 99.6988 16.0145 99.851 16.3096C99.9074 16.4153 99.9582 16.5211 100.015 16.6213C100.184 16.9497 100.342 17.2781 100.494 17.6065C100.528 17.6845 100.567 17.7624 100.601 17.8403C100.77 18.2021 100.917 18.5751 101.063 18.948C101.086 18.9926 101.109 19.0538 101.131 19.1039C101.289 19.5158 101.441 19.9333 101.577 20.3563C101.577 20.373 101.582 20.3786 101.588 20.3897C101.734 20.8351 101.864 21.2804 101.988 21.7312H101.983Z" fill="#2A256D"/>
<path d="M103.178 34.623C102.659 34.4839 102.112 34.79 101.971 35.3133C101.74 36.176 101.458 37.0333 101.142 37.8627C100.951 38.3692 101.21 38.9259 101.718 39.1151C101.836 39.1596 101.949 39.1819 102.067 39.1819C102.462 39.1819 102.84 38.937 102.992 38.5529C103.33 37.6623 103.635 36.7383 103.877 35.8087C104.018 35.291 103.703 34.7566 103.178 34.623Z" fill="#2A256D"/>
<path d="M100.082 42.3492C99.6198 42.0653 99.0108 42.1989 98.7232 42.6554C98.2438 43.4124 97.7138 44.1472 97.1611 44.8541C96.8171 45.2716 96.8961 45.8839 97.3247 46.2179C97.5051 46.3626 97.7194 46.4238 97.928 46.4238C98.2269 46.4238 98.5145 46.2958 98.7119 46.0565C99.3096 45.2994 99.8736 44.509 100.392 43.7074C100.68 43.251 100.545 42.6498 100.082 42.3659V42.3492Z" fill="#2A256D"/>
</svg>
