<svg width="153" height="57" viewBox="0 0 153 57" fill="none" xmlns="http://www.w3.org/2000/svg">
<g clip-path="url(#clip0_17_223)">
<path d="M85.7496 30.2645H82.3779C81.9465 29.7914 81.5719 29.09 81.2767 28.1994C83.9048 26.613 85.6645 23.7741 85.6645 20.5345V20.5066C85.6645 20.5066 85.7212 20.5066 85.7496 20.5066C87.6625 20.5066 89.2235 18.7309 89.2235 16.5433V7.04706C89.2235 5.366 87.7136 3.9911 85.8461 3.9911C85.5339 3.9911 85.2217 4.03007 84.9209 4.10243C84.1262 2.97245 82.7923 2.28221 81.3278 2.28221C80.4707 2.28221 79.6533 2.516 78.9665 2.95018C78.2286 1.1745 76.5087 -0.0501099 74.4993 -0.0501099C72.1436 -0.0501099 70.1739 1.65321 69.7142 3.90204C69.5041 3.89091 69.2941 3.87421 69.0841 3.87421C66.3935 3.87421 64.1741 5.21571 63.7938 7.02479C63.7598 7.12499 63.737 7.23632 63.737 7.35321V16.5433C63.737 18.7309 65.2923 20.5066 67.2109 20.5066C67.2393 20.5066 67.2677 20.5066 67.2961 20.5066V20.5345C67.2961 23.7741 69.0557 26.613 71.6781 28.1994C71.3773 29.1067 71.0027 29.797 70.5599 30.2757H67.2109C59.5707 30.2757 53.3608 36.3653 53.3608 43.8521V56.037C53.3608 56.5491 53.7809 56.9666 54.3031 56.9666H98.6631C99.1853 56.9666 99.6054 56.5491 99.6054 56.037V43.8521C99.6054 36.3653 93.3956 30.2757 85.761 30.2757L85.7496 30.2645ZM89.0078 51.9123H64.7985L63.4078 37.4062H90.3928L89.0078 51.9123ZM85.6645 18.6586V14.4504C86.0221 14.4225 86.3683 14.5561 86.6521 14.8178C86.6521 14.8178 86.6521 14.8289 86.6578 14.8345C86.7543 14.918 86.8338 15.0182 86.9133 15.135C86.9303 15.1573 86.9416 15.174 86.9587 15.1963C87.0154 15.2909 87.0722 15.3967 87.1233 15.5024C87.1403 15.5414 87.1517 15.5748 87.1687 15.6082C87.2141 15.7195 87.2425 15.8253 87.2709 15.9366C87.2765 15.9811 87.2936 16.0145 87.2992 16.0591C87.3276 16.2149 87.3447 16.3708 87.3447 16.5378C87.3447 17.729 86.55 18.7087 85.6645 18.6474V18.6586ZM65.6102 7.5369C65.6102 7.5369 65.6159 7.49794 65.6159 7.47567C65.7294 6.63514 67.1371 5.72782 69.0671 5.72782C69.4985 5.72782 69.9242 5.77792 70.3385 5.87255C70.6167 5.93378 70.9175 5.87255 71.1389 5.69442C71.366 5.52186 71.4965 5.24911 71.4965 4.97079C71.4965 4.94296 71.4965 4.91512 71.4965 4.88173C71.5192 3.17841 72.8531 1.8035 74.4993 1.8035C76.1397 1.8035 77.4225 3.12831 77.485 4.80936C77.4963 5.21571 77.7801 5.56639 78.1832 5.67216C78.5748 5.77792 79.0005 5.61649 79.2219 5.27137C79.676 4.55887 80.4593 4.13026 81.3335 4.13026C82.3609 4.13026 83.2577 4.71473 83.638 5.62206C83.7402 5.87255 83.9502 6.0618 84.2113 6.15087C84.4725 6.23436 84.7563 6.20653 84.989 6.07294C85.2444 5.92264 85.5396 5.84471 85.8518 5.84471C86.6749 5.84471 87.3503 6.38466 87.3503 7.05263V13.0309C87.3503 13.0309 87.2992 13.0087 87.2765 12.9975C87.1971 12.953 87.1176 12.9085 87.0381 12.8751C86.9927 12.8528 86.9473 12.8417 86.9076 12.8194C86.8281 12.7916 86.7543 12.7582 86.6749 12.7304C86.6294 12.7192 86.5784 12.7025 86.5386 12.6914C86.4478 12.6691 86.3683 12.6524 86.2832 12.6302C86.2378 12.6246 86.2037 12.619 86.1583 12.6135C86.0278 12.5968 85.8972 12.5801 85.7666 12.5801C85.7383 12.5801 85.7099 12.5801 85.6758 12.5801V11.8843C85.6758 11.5224 85.4601 11.194 85.1196 11.0437C84.779 10.8934 84.3873 10.9602 84.1092 11.1996C83.3826 11.8342 77.9277 13.749 74.2438 12.6246C72.0187 11.9511 68.5335 11.0103 68.4938 10.9992C68.2099 10.9213 67.9091 10.9769 67.6764 11.1551C67.4436 11.3276 67.3017 11.6059 67.3017 11.8898V12.5912C67.3017 12.5912 67.2734 12.5912 67.2677 12.5912C67.2507 12.5912 67.2336 12.5912 67.2166 12.5912C66.9555 12.5912 66.7001 12.6246 66.456 12.6914C66.4219 12.697 66.3935 12.7137 66.3652 12.7192C66.2743 12.7471 66.1722 12.7805 66.0757 12.8194C66.0416 12.8306 65.9962 12.8473 65.9621 12.8695C65.8713 12.9085 65.7805 12.953 65.6897 13.0031C65.667 13.0198 65.6499 13.0254 65.6272 13.0365V7.5536L65.6102 7.5369ZM65.6102 16.5489C65.6102 16.3875 65.6272 16.2316 65.6556 16.0758C65.6556 16.0368 65.667 16.0034 65.6783 15.9644C65.7067 15.8364 65.7408 15.7195 65.7862 15.6026C65.7919 15.5804 65.8089 15.5637 65.8146 15.5414C66.0586 14.9792 66.49 14.5561 66.9839 14.4615C66.9839 14.4615 67.0009 14.4615 67.0066 14.4615C67.1031 14.4504 67.1939 14.4504 67.2904 14.4615V18.6697C66.3935 18.7254 65.6102 17.7401 65.6102 16.56V16.5489ZM69.1692 20.5345V13.1033C70.384 13.4373 72.2798 13.9661 73.6705 14.3836C77.1047 15.4301 81.4186 14.4003 83.78 13.4262V20.5289C83.78 23.3399 82.1168 25.7724 79.7044 26.947C79.4717 27.0583 79.2333 27.1585 78.9949 27.2475C78.9665 27.2531 78.9438 27.2698 78.9154 27.2754C78.677 27.3589 78.4272 27.4312 78.1888 27.4869C78.1661 27.4869 78.1434 27.5036 78.1207 27.5036C77.0422 27.7541 75.9126 27.7541 74.8285 27.5036C74.8171 27.5036 74.7944 27.498 74.7774 27.4869C74.5276 27.4312 74.2779 27.3589 74.0338 27.2698C74.0111 27.2587 73.9884 27.2531 73.9657 27.2475C73.7216 27.1529 73.4718 27.0527 73.2334 26.9414C70.8267 25.7613 69.1692 23.3344 69.1692 20.5289V20.5345ZM73.9941 29.1958C74.1133 29.2348 74.2325 29.2626 74.3517 29.2904C74.4993 29.3238 74.6468 29.3628 74.8001 29.385C74.9477 29.4129 75.0953 29.424 75.2372 29.4463C75.3734 29.4685 75.504 29.4852 75.6459 29.4964C75.8559 29.5186 76.0659 29.5242 76.2816 29.5242C76.3554 29.5242 76.4235 29.5353 76.4859 29.5353C76.5541 29.5353 76.6165 29.5242 76.6846 29.5242C76.9003 29.5242 77.1217 29.5131 77.3317 29.4908C77.4623 29.4741 77.5985 29.4574 77.729 29.4407C77.8766 29.4184 78.0185 29.3962 78.1718 29.3739C78.3194 29.3461 78.4613 29.3182 78.6089 29.2848C78.7337 29.257 78.8586 29.2292 78.9722 29.1902C79.1311 29.1457 79.29 29.1012 79.4546 29.0399C79.4887 29.0288 79.5341 29.0177 79.5682 29.0065C80.0052 30.2144 80.5842 31.1496 81.2881 31.8009C81.2881 31.8009 81.2881 31.812 81.3051 31.812C81.6457 32.1738 81.8273 32.5468 81.8273 32.9253C81.8273 34.1221 80.0052 35.2687 77.6723 35.5526H75.3053C72.9723 35.2687 71.1446 34.1221 71.1446 32.9253C71.1446 32.5468 71.3205 32.1738 71.6725 31.812C71.6725 31.812 71.6725 31.8064 71.6781 31.8009C72.3877 31.1496 72.9723 30.2144 73.3981 29.0065C73.4378 29.0177 73.4718 29.0288 73.5173 29.0399C73.6762 29.1012 73.8408 29.1457 74.0054 29.1902L73.9941 29.1958ZM55.2453 43.8466C55.2453 37.3784 60.6094 32.1126 67.2109 32.1126H69.3679C69.2941 32.3853 69.2601 32.6525 69.2601 32.9308C69.2601 33.9161 69.7312 34.8179 70.5429 35.5582H62.3804C62.1136 35.5582 61.8639 35.6695 61.6822 35.8588C61.5006 36.0536 61.4098 36.3097 61.4382 36.5657L62.9083 51.9067H62.8005C62.0569 51.9067 61.3757 52.2407 60.933 52.8252C60.4902 53.4097 60.3597 54.1444 60.5697 54.8347L60.6492 55.0963H55.2453V43.8354V43.8466ZM62.9424 55.113C62.7494 55.113 62.5734 54.9849 62.5166 54.7957L62.3691 54.3225C62.3123 54.1444 62.3918 53.9997 62.4429 53.9385C62.4939 53.8717 62.6018 53.7603 62.8005 53.7603H91.0058C91.1988 53.7603 91.3067 53.8661 91.3578 53.9385C91.4089 53.9997 91.4827 54.1333 91.4316 54.3225L91.2897 54.7901C91.2272 54.9738 91.0569 55.1074 90.8583 55.1074H62.9424V55.113ZM97.7152 55.113H93.1628L93.2423 54.8458C93.4523 54.15 93.3161 53.4152 92.8733 52.8307C92.4306 52.2463 91.7438 51.9123 91.0058 51.9123H90.898L92.3625 36.5713C92.3852 36.3152 92.3 36.0592 92.1241 35.8699C91.9481 35.6751 91.6927 35.5693 91.4259 35.5693H82.4176C83.235 34.829 83.7005 33.9217 83.7005 32.9364C83.7005 32.6637 83.6664 32.3909 83.5926 32.1182H85.7496C92.3511 32.1182 97.7152 37.384 97.7152 43.8521V55.1185V55.113Z" fill="#2A256D"/>
</g>
<defs>
<clipPath id="clip0_17_223">
<rect width="152.961" height="57" fill="white"/>
</clipPath>
</defs>
</svg>
