<svg width="72" height="55" viewBox="0 0 72 55" fill="none" xmlns="http://www.w3.org/2000/svg">
<g clip-path="url(#clip0_20_986)">
<path fill-rule="evenodd" clip-rule="evenodd" d="M0.439331 54.7305H71.6725V27.3652V0H0.439331V27.3652V54.7305Z" fill="#FF3859"/>
<path fill-rule="evenodd" clip-rule="evenodd" d="M40.6041 25.2669V10.9766H53.774V22.3234C53.774 28.3908 53.0524 32.8061 51.5806 35.5217C49.6436 39.1679 46.6051 41.893 42.4272 43.7636L39.4837 38.978C42.0094 37.924 43.8515 36.3858 45.0384 34.3063C46.2063 32.2269 46.8805 29.2169 47.0229 25.2669H40.6041ZM19.4488 25.2669V10.9766H32.6187V22.3234C32.6187 28.3908 31.897 32.8061 30.4253 35.5217C28.4882 39.1679 25.4498 41.893 21.2719 43.7636L18.3283 38.978C20.8541 37.924 22.6961 36.3858 23.883 34.3063C25.051 32.2269 25.7251 29.2169 25.8675 25.2669H19.4488Z" fill="white"/>
</g>
<defs>
<clipPath id="clip0_20_986">
<rect width="71.2332" height="54.7305" fill="white" transform="translate(0.439331)"/>
</clipPath>
</defs>
</svg>
