<svg width="150" height="57" viewBox="0 0 150 57" fill="none" xmlns="http://www.w3.org/2000/svg">
<g clip-path="url(#clip0_17_197)">
<path d="M56.898 46.9137H53.6528C53.1407 46.9137 52.7288 47.3256 52.7288 47.8377C52.7288 48.3498 53.1407 48.7617 53.6528 48.7617H56.898C57.4101 48.7617 57.8221 48.3498 57.8221 47.8377C57.8221 47.3256 57.4101 46.9137 56.898 46.9137Z" fill="#2A256D"/>
<path d="M56.898 43.6685H53.6528C53.1407 43.6685 52.7288 44.0804 52.7288 44.598C52.7288 45.1102 53.1407 45.5221 53.6528 45.5221H56.898C57.4101 45.5221 57.8221 45.1102 57.8221 44.598C57.8221 44.0804 57.4101 43.6685 56.898 43.6685Z" fill="#2A256D"/>
<path d="M69.1441 46.9137H65.8989C65.3868 46.9137 64.9749 47.3256 64.9749 47.8377C64.9749 48.3498 65.3868 48.7617 65.8989 48.7617H69.1441C69.6562 48.7617 70.0681 48.3498 70.0681 47.8377C70.0681 47.3256 69.6562 46.9137 69.1441 46.9137Z" fill="#2A256D"/>
<path d="M69.1441 43.6685H65.8989C65.3868 43.6685 64.9749 44.0804 64.9749 44.598C64.9749 45.1102 65.3868 45.5221 65.8989 45.5221H69.1441C69.6562 45.5221 70.0681 45.1102 70.0681 44.598C70.0681 44.0804 69.6562 43.6685 69.1441 43.6685Z" fill="#2A256D"/>
<path d="M69.055 16.8495H65.9824C64.6019 16.8495 63.4775 17.9683 63.4775 19.3488V33.4875C63.4775 34.8624 64.5964 35.9868 65.9824 35.9868H69.055C70.4355 35.9868 71.5599 34.8679 71.5599 33.4875V19.3488C71.5599 17.9739 70.4411 16.8495 69.055 16.8495ZM69.7063 33.4875C69.7063 33.8437 69.4113 34.1332 69.055 34.1332H65.9824C65.6261 34.1332 65.3311 33.8437 65.3311 33.4875V19.3488C65.3311 18.9926 65.6261 18.7031 65.9824 18.7031H69.055C69.4113 18.7031 69.7063 18.9926 69.7063 19.3488V33.4875Z" fill="#2A256D"/>
<path d="M90.6249 50.2257H85.4592C84.9471 50.2257 84.5352 50.6376 84.5352 51.1497C84.5352 51.6618 84.9471 52.0793 85.4592 52.0793H90.6249C91.137 52.0793 91.5489 51.6618 91.5489 51.1497C91.5489 50.6376 91.137 50.2257 90.6249 50.2257Z" fill="#2A256D"/>
<path d="M97.1153 47.8377C96.6032 47.8377 96.1913 48.2496 96.1913 48.7617V51.1497C96.1913 51.6618 96.6032 52.0793 97.1153 52.0793C97.6274 52.0793 98.0449 51.6618 98.0449 51.1497V48.7617C98.0449 48.2496 97.6274 47.8377 97.1153 47.8377Z" fill="#2A256D"/>
<path d="M98.0449 38.5863C98.0449 38.0742 97.6274 37.6623 97.1153 37.6623C96.6032 37.6623 96.1913 38.0742 96.1913 38.5863V45.1936C96.1913 45.7057 96.6032 46.1177 97.1153 46.1177C97.6274 46.1177 98.0449 45.7057 98.0449 45.1936V38.5863Z" fill="#2A256D"/>
<path d="M98.0449 12.9586C98.0449 12.4465 97.6274 12.0345 97.1153 12.0345C96.6032 12.0345 96.1913 12.4465 96.1913 12.9586V17.5787C96.1913 18.0908 96.6032 18.5027 97.1153 18.5027C97.6274 18.5027 98.0449 18.0908 98.0449 17.5787V12.9586Z" fill="#2A256D"/>
<path d="M102.509 55.1909H101.09C101.14 54.9905 101.184 54.779 101.184 54.5619V20.0613C101.184 19.5492 100.772 19.1373 100.26 19.1373C99.7426 19.1373 99.3307 19.5492 99.3307 20.0613V54.5563C99.3307 54.907 99.0468 55.1853 98.7073 55.1853H95.5289C95.1782 55.1853 94.8999 54.8959 94.8999 54.5563V9.40723C94.8999 9.05654 95.1838 8.77822 95.5289 8.77822H98.7073C99.0524 8.77822 99.3307 9.06211 99.3307 9.40723V14.5506C99.3307 15.0627 99.7426 15.4746 100.26 15.4746C100.772 15.4746 101.184 15.0627 101.184 14.5506V9.40723C101.184 8.03789 100.071 6.92461 98.7073 6.92461H95.5289C95.3062 6.92461 95.1003 6.96357 94.8999 7.01924V6.23437C94.8999 4.86504 93.7866 3.75732 92.4228 3.75732H83.678C82.3087 3.75732 81.201 4.86504 81.201 6.23437V9.40723C81.0006 9.35713 80.7835 9.3126 80.5719 9.3126H75.8071C75.5844 9.3126 75.3785 9.346 75.1781 9.40723C75.1781 8.03789 74.0593 6.93017 72.701 6.93017H62.3698C61.0005 6.93017 59.8872 8.04346 59.8872 9.41279V14.1721C59.6868 14.122 59.4753 14.0774 59.2582 14.0774H51.2927C49.9289 14.0774 48.8156 15.1907 48.8156 16.5601V54.5619C48.8156 54.7846 48.849 54.9905 48.9102 55.1909H47.4908C46.9787 55.1909 46.5668 55.6028 46.5668 56.1149C46.5668 56.627 46.9787 57.0445 47.4908 57.0445H102.509C103.021 57.0445 103.433 56.627 103.433 56.1149C103.433 55.6028 103.021 55.1909 102.509 55.1909ZM83.0434 27.9823H93.0407V29.168H83.0434V27.9823ZM93.0407 26.1287H83.0434V15.9311H93.0407V26.1287ZM93.0407 14.0774H83.0434V12.8918H93.0407V14.0774ZM83.0434 31.0271H93.0407V41.2248H83.0434V31.0271ZM83.0434 43.0784H93.0407V44.2696H83.0434V43.0784ZM83.6724 5.60537H92.4117C92.7624 5.60537 93.0407 5.89482 93.0407 6.23437V11.0382H83.0434V6.23437C83.0434 5.88369 83.3273 5.60537 83.6724 5.60537ZM50.6692 27.7096H59.876V28.834H50.6692V27.7096ZM50.6692 24.5312H59.876V25.856H50.6692V24.5312ZM50.6692 30.6876H59.876V32.0124H50.6692V30.6876ZM51.2927 15.9255H59.2415C59.5866 15.9255 59.8649 16.2094 59.8649 16.5489V22.6775H50.6692V16.5489C50.6692 16.2038 50.9531 15.9255 51.2927 15.9255ZM51.2927 55.1853C50.9475 55.1853 50.6692 54.8959 50.6692 54.5563V33.866H59.876V54.5563C59.876 54.907 59.5866 55.1853 59.247 55.1853H51.2927ZM62.3531 55.1853C62.0024 55.1853 61.7241 54.8959 61.7241 54.5563V9.40723C61.7241 9.05654 62.0135 8.77822 62.3531 8.77822H72.6843C73.035 8.77822 73.3134 9.06211 73.3134 9.40723V54.5563C73.3134 54.907 73.0239 55.1853 72.6843 55.1853H62.3531ZM75.7904 55.1853C75.4397 55.1853 75.1614 54.8959 75.1614 54.5563V11.7841C75.1614 11.4334 75.4509 11.1551 75.7904 11.1551H80.5552C80.9059 11.1551 81.1842 11.4445 81.1842 11.7841V17.8904H77.8722C77.3601 17.8904 76.9426 18.3023 76.9426 18.8145C76.9426 19.3321 77.3601 19.744 77.8722 19.744H81.1842V45.4497H78.1728C77.6552 45.4497 77.2432 45.8616 77.2432 46.3793C77.2432 46.8914 77.6552 47.3033 78.1728 47.3033H81.1842V54.5563C81.1842 54.907 80.9004 55.1853 80.5552 55.1853H75.7904ZM83.6724 55.1853C83.3218 55.1853 83.0434 54.8959 83.0434 54.5563V46.1121H93.0407V54.5563C93.0407 54.907 92.7568 55.1853 92.4117 55.1853H83.6724Z" fill="#2A256D"/>
</g>
<defs>
<clipPath id="clip0_17_197">
<rect width="150" height="57" fill="white"/>
</clipPath>
</defs>
</svg>
