<svg width="514" height="321" viewBox="0 0 514 321" fill="none" xmlns="http://www.w3.org/2000/svg">
<g clip-path="url(#clip0_17_243)">
<path d="M468.656 296.855C468.656 296.855 543.569 260.567 500.823 187.562C446.535 94.8448 511.411 78.8662 452.806 35.5223C404.77 -0.00017596 337.006 35.429 293.896 21.7557C250.785 8.08246 190.6 -14.3828 119.827 12.8424C49.0447 40.0677 99.2111 71.8849 67.9693 113.857C36.7368 155.819 -35.2513 188.812 20.6346 293.392L468.665 296.864L468.656 296.855Z" fill="#DAE6FF"/>
<path d="M78.1654 280.185C78.1654 280.185 78.2121 280.185 78.2308 280.176C78.4084 280.129 78.5018 279.943 78.4551 279.775C65.4649 234.574 53.5308 202.626 44.8488 189.821C44.6526 189.541 44.5124 189.335 44.4657 189.223C44.3816 189.065 44.1853 188.999 44.0264 189.083C43.8676 189.167 43.8021 189.363 43.8863 189.522C43.961 189.662 44.0919 189.858 44.3161 190.185C52.9607 202.934 64.8575 234.816 77.8289 279.952C77.8757 280.101 78.0159 280.195 78.1654 280.185Z" fill="#8CB0FF"/>
<path d="M38.7182 187.422C39.7462 188.859 44.989 191.538 45.4002 191.249C45.8114 190.959 44.9703 185.135 43.933 183.698C42.905 182.261 40.9051 181.925 39.4659 182.951C38.0267 183.978 37.6902 185.975 38.7182 187.413V187.422Z" fill="#8CB0FF"/>
<path d="M48.8393 191.883C48.2973 193.61 49.3253 199.537 49.8206 199.686C50.3159 199.845 54.5494 195.57 55.0915 193.843C55.6335 192.117 54.6709 190.278 52.942 189.737C51.2131 189.195 49.372 190.157 48.83 191.883H48.8393Z" fill="#8CB0FF"/>
<path d="M42.4284 202.141C44.232 202.281 49.7832 199.938 49.8206 199.425C49.858 198.911 44.7367 195.747 42.933 195.607C41.1293 195.467 39.55 196.821 39.4098 198.622C39.2696 200.423 40.6247 202.001 42.4284 202.141Z" fill="#8CB0FF"/>
<path d="M63.9416 221.927C62.7267 224.708 63.3715 234.779 64.1659 235.124C64.9603 235.47 72.8104 229.114 74.0253 226.332C75.2403 223.551 73.9693 220.312 71.1937 219.09C68.4087 217.876 65.1659 219.146 63.9416 221.927Z" fill="#8CB0FF"/>
<path d="M51.3813 237.887C54.3719 238.447 64.0537 235.544 64.2126 234.695C64.3715 233.846 56.3998 227.639 53.4093 227.079C50.4187 226.519 47.5497 228.488 46.9889 231.466C46.4282 234.452 48.4001 237.318 51.3813 237.878V237.887Z" fill="#8CB0FF"/>
<path d="M71.7077 233.286C69.5022 236.282 67.5583 248.48 68.4181 249.106C69.2685 249.731 80.3522 244.252 82.5578 241.256C84.7633 238.26 84.1184 234.051 81.1279 231.858C78.128 229.655 73.9132 230.299 71.717 233.286H71.7077Z" fill="#8CB0FF"/>
<path d="M53.7644 254.155C57.4745 254.463 68.8853 249.712 68.9788 248.658C69.0629 247.603 58.5773 241.051 54.8672 240.752C51.157 240.444 47.9048 243.198 47.6057 246.903C47.2973 250.608 50.0543 253.856 53.7644 254.155Z" fill="#8CB0FF"/>
<path d="M76.4084 248.032C74.2029 251.028 72.2591 263.227 73.1188 263.852C73.9786 264.478 85.053 258.999 87.2585 256.003C89.464 253.007 88.8192 248.798 85.8287 246.604C82.8288 244.402 78.614 245.046 76.4178 248.032H76.4084Z" fill="#8CB0FF"/>
<path d="M58.4745 268.902C62.1847 269.21 73.5955 264.459 73.6889 263.404C73.773 262.35 63.2874 255.798 59.5773 255.499C55.8671 255.191 52.6149 257.944 52.3159 261.65C52.0075 265.355 54.7644 268.603 58.4745 268.902Z" fill="#8CB0FF"/>
<path d="M86.894 266.615C83.7166 268.547 77.2682 279.084 77.8196 279.99C78.371 280.895 90.707 280.046 93.8844 278.114C97.0619 276.182 98.0712 272.047 96.146 268.874C94.2115 265.7 90.0715 264.692 86.894 266.615Z" fill="#8CB0FF"/>
<path d="M62.6146 283.48C66.2499 284.245 78.1747 280.96 78.399 279.924C78.614 278.888 69.0349 271.086 65.3902 270.32C61.7548 269.555 58.1755 271.879 57.4091 275.519C56.6428 279.15 58.9698 282.724 62.6146 283.489V283.48Z" fill="#8CB0FF"/>
<path d="M53.4934 201.235C52.942 202.99 53.9887 209.01 54.4934 209.169C54.998 209.327 59.2969 204.987 59.8483 203.233C60.3997 201.478 59.4277 199.611 57.6708 199.061C55.9139 198.51 54.0448 199.481 53.4934 201.235Z" fill="#8CB0FF"/>
<path d="M47.2132 211.772C49.045 211.912 54.6803 209.542 54.727 209.019C54.7644 208.496 49.5683 205.286 47.7272 205.146C45.8955 205.006 44.2881 206.378 44.1479 208.207C44.0078 210.036 45.3815 211.642 47.2132 211.782V211.772Z" fill="#8CB0FF"/>
<path d="M58.839 209.934C57.8577 212.351 58.6334 220.994 59.3249 221.274C60.0165 221.554 66.6237 215.907 67.605 213.49C68.5863 211.073 67.4275 208.319 65.007 207.33C62.5865 206.35 59.8203 207.507 58.839 209.925V209.934Z" fill="#8CB0FF"/>
<path d="M48.7365 224.904C51.3439 225.11 59.353 221.731 59.4091 220.984C59.4651 220.238 52.0729 215.674 49.4655 215.478C46.8581 215.272 44.5872 217.223 44.3816 219.827C44.176 222.431 46.1292 224.699 48.7365 224.904Z" fill="#8CB0FF"/>
<g opacity="0.5">
<path d="M325.596 249.656C325.596 249.656 325.558 249.638 325.549 249.628C325.427 249.535 325.399 249.358 325.502 249.227C350.669 216.691 370.697 194.58 381.893 186.974C382.145 186.806 382.323 186.685 382.397 186.619C382.519 186.517 382.696 186.526 382.799 186.647C382.902 186.768 382.893 186.946 382.771 187.049C382.668 187.142 382.491 187.254 382.21 187.45C371.061 195.028 351.09 217.092 325.951 249.582C325.867 249.694 325.717 249.722 325.596 249.666V249.656Z" fill="#89B4FD"/>
<path d="M387.649 187.011C386.35 187.851 381.229 188.337 380.986 187.963C380.743 187.59 383.313 183.138 384.612 182.298C385.911 181.458 387.649 181.841 388.481 183.138C389.322 184.435 388.939 186.171 387.64 187.002L387.649 187.011Z" fill="#89B4FD"/>
<path d="M377.977 187.375C377.855 188.952 375.108 193.432 374.659 193.404C374.211 193.367 372.145 188.532 372.267 186.955C372.379 185.378 373.762 184.193 375.341 184.314C376.921 184.426 378.108 185.807 377.986 187.385L377.977 187.375Z" fill="#89B4FD"/>
<path d="M379.874 197.773C378.36 197.306 374.613 193.619 374.743 193.181C374.874 192.751 380.061 191.837 381.575 192.303C383.089 192.77 383.93 194.375 383.463 195.887C382.995 197.399 381.388 198.239 379.874 197.773Z" fill="#89B4FD"/>
<path d="M355.996 206.91C356.09 209.56 352.305 217.54 351.548 217.559C350.791 217.587 346.473 209.887 346.38 207.236C346.286 204.586 348.371 202.364 351.025 202.271C353.679 202.178 355.903 204.259 355.996 206.91Z" fill="#89B4FD"/>
<path d="M361.034 223.924C358.426 223.411 351.501 217.942 351.641 217.195C351.791 216.448 360.267 213.984 362.875 214.488C365.482 215.002 367.183 217.522 366.678 220.126C366.164 222.73 363.641 224.428 361.034 223.924Z" fill="#89B4FD"/>
<path d="M346.015 213.639C346.838 216.784 344.473 227.322 343.576 227.555C342.679 227.788 335.446 219.762 334.623 216.616C333.801 213.471 335.679 210.26 338.829 209.439C341.978 208.618 345.193 210.494 346.015 213.639Z" fill="#89B4FD"/>
<path d="M353.847 236.375C350.735 235.423 342.997 227.891 343.268 227.004C343.539 226.118 354.174 224.176 357.286 225.128C360.398 226.08 362.146 229.366 361.202 232.464C360.249 235.572 356.959 237.318 353.847 236.375Z" fill="#89B4FD"/>
<path d="M337.427 224.102C338.249 227.247 335.885 237.784 334.988 238.018C334.091 238.251 326.857 230.224 326.035 227.079C325.212 223.934 327.091 220.723 330.24 219.902C333.39 219.08 336.605 220.956 337.427 224.102Z" fill="#89B4FD"/>
<path d="M345.249 246.838C342.137 245.886 334.399 238.354 334.67 237.467C334.941 236.58 345.576 234.639 348.688 235.591C351.8 236.543 353.548 239.828 352.604 242.927C351.651 246.035 348.361 247.78 345.258 246.838H345.249Z" fill="#89B4FD"/>
<path d="M322.895 235.815C324.857 238.41 326.689 249.05 325.941 249.61C325.203 250.17 315.456 245.494 313.493 242.899C311.531 240.304 312.045 236.618 314.643 234.667C317.241 232.707 320.932 233.22 322.885 235.815H322.895Z" fill="#89B4FD"/>
<path d="M337.175 257.347C333.969 256.796 325.343 250.282 325.502 249.367C325.661 248.452 335.969 245.204 339.175 245.755C342.38 246.306 344.53 249.348 343.978 252.55C343.427 255.751 340.38 257.898 337.175 257.347Z" fill="#89B4FD"/>
<path d="M371.173 193.47C371.052 195.075 368.258 199.621 367.8 199.593C367.342 199.555 365.248 194.646 365.361 193.041C365.482 191.435 366.875 190.231 368.482 190.353C370.089 190.474 371.295 191.865 371.173 193.47Z" fill="#89B4FD"/>
<path d="M372.865 204.054C371.332 203.578 367.519 199.826 367.65 199.396C367.79 198.958 373.052 198.024 374.594 198.5C376.127 198.976 376.986 200.61 376.51 202.14C376.033 203.671 374.398 204.53 372.865 204.054Z" fill="#89B4FD"/>
<path d="M364.015 198.808C364.034 201.095 360.604 207.862 359.95 207.871C359.295 207.871 355.753 201.16 355.735 198.883C355.716 196.596 357.557 194.739 359.837 194.72C362.127 194.702 363.987 196.54 364.005 198.818L364.015 198.808Z" fill="#89B4FD"/>
<path d="M367.389 214.227C365.202 213.546 359.791 208.226 359.987 207.6C360.183 206.975 367.66 205.65 369.846 206.331C372.033 207.012 373.248 209.327 372.575 211.502C371.902 213.686 369.575 214.899 367.398 214.227H367.389Z" fill="#89B4FD"/>
</g>
<path d="M510.047 296.855C510.047 283.517 396.752 272.709 257 272.709C117.248 272.709 3.95312 283.517 3.95312 296.855C3.95312 310.192 117.248 321 257 321C396.752 321 510.047 310.192 510.047 296.855Z" fill="#B8D0FC"/>
<path d="M237.047 257.478C237.047 257.478 252.327 225.427 193.395 208.627C193.395 208.627 199.899 271.338 237.047 257.478Z" fill="#7798F8"/>
<path d="M193.311 208.534L238.244 253.166C240.094 243.907 239.169 221.61 193.311 208.534Z" fill="#89B4FD"/>
<path d="M236.356 251.383C236.356 251.383 236.29 251.383 236.272 251.355L193.236 208.608C193.236 208.608 193.199 208.506 193.236 208.459C193.273 208.422 193.339 208.422 193.385 208.459L236.421 251.206C236.421 251.206 236.459 251.308 236.421 251.355C236.403 251.374 236.384 251.383 236.365 251.383H236.356Z" fill="#080435"/>
<path d="M215.787 230.952C215.787 230.952 215.777 230.952 215.768 230.952L198.927 230.15C198.871 230.15 198.825 230.103 198.834 230.047C198.834 229.991 198.89 229.944 198.937 229.954L215.777 230.756C215.833 230.756 215.88 230.803 215.871 230.859C215.871 230.906 215.833 230.952 215.777 230.952H215.787Z" fill="#080435"/>
<path d="M303.634 248.004C303.634 248.004 280.336 214.61 343.857 184.575C343.857 184.575 348.268 256.731 303.634 248.004Z" fill="#7798F8"/>
<path d="M343.931 184.454L301.475 243.347C297.653 233.22 294.513 207.815 343.931 184.454Z" fill="#89B4FD"/>
<path d="M295.26 266.382C295.26 266.382 301.755 214.74 387.818 240.519C387.818 240.519 330.166 312.824 295.26 266.382Z" fill="#89B4FD"/>
<path d="M387.818 240.519L295.26 266.381C295.26 266.381 321.699 315.717 387.818 240.519Z" fill="#7798F8"/>
<path d="M241.393 267.576C241.393 267.576 231.253 223.588 159.256 253.371C159.256 253.371 215.347 310.705 241.393 267.576Z" fill="#89B4FD"/>
<path d="M159.256 253.371L241.393 267.576C241.393 267.576 222.917 312.469 159.256 253.371Z" fill="#7798F8"/>
<path d="M141.266 262.116C142.799 261.706 147.939 262.826 148.06 263.264C148.182 263.703 144.284 267.24 142.752 267.651C141.219 268.062 139.649 267.156 139.238 265.626C138.827 264.095 139.733 262.527 141.266 262.116Z" fill="#4D60E4"/>
<path d="M136.079 256.498C134.827 255.536 132.163 251.327 132.35 251.075C132.547 250.823 137.303 252.307 138.556 253.278C139.808 254.239 140.275 255.742 139.584 256.638C138.901 257.524 137.322 257.468 136.07 256.507L136.079 256.498Z" fill="#4D60E4"/>
<path d="M150.854 256.88C150.882 258.458 148.546 263.171 148.097 263.18C147.649 263.18 145.154 258.56 145.126 256.983C145.098 255.406 146.359 254.099 147.939 254.071C149.518 254.043 150.826 255.303 150.854 256.88Z" fill="#4D60E4"/>
<path d="M148.041 227.536C147.135 228.759 142.602 231.008 142.247 230.747C141.901 230.486 142.696 225.492 143.602 224.27C144.509 223.047 146.228 222.786 147.462 223.682C148.686 224.587 148.948 226.304 148.051 227.536H148.041Z" fill="white"/>
<path d="M140.49 224.214C141.509 225.352 142.771 230.243 142.443 230.532C142.116 230.822 137.388 229.011 136.378 227.882C135.36 226.743 135.462 225.007 136.603 223.99C137.743 222.972 139.481 223.075 140.5 224.214H140.49Z" fill="white"/>
<path d="M135.556 229.972C136.986 229.44 142.014 230.056 142.163 230.467C142.313 230.878 138.902 234.611 137.472 235.134C136.042 235.666 134.453 234.938 133.93 233.51C133.397 232.082 134.126 230.495 135.556 229.972Z" fill="white"/>
<path d="M139.472 236.272C139.481 234.751 141.845 230.28 142.275 230.28C142.714 230.28 144.995 234.798 144.985 236.319C144.976 237.84 143.733 239.063 142.21 239.054C140.686 239.044 139.462 237.803 139.472 236.282V236.272Z" fill="white"/>
<path d="M146.92 235.283C145.518 234.695 142.257 230.831 142.425 230.43C142.593 230.028 147.639 229.618 149.041 230.206C150.443 230.794 151.116 232.399 150.527 233.808C149.938 235.208 148.331 235.88 146.92 235.292V235.283Z" fill="white"/>
<path d="M143.303 230.206C143.182 229.72 142.686 229.422 142.2 229.543C141.714 229.664 141.415 230.159 141.537 230.644C141.658 231.13 142.154 231.428 142.64 231.307C143.126 231.186 143.425 230.691 143.303 230.206Z" fill="#89B4FD"/>
<path d="M155.639 279.56C154.107 270.442 149.77 264.571 146.415 261.248C142.771 257.646 139.434 256.19 139.406 256.171L139.285 256.46C139.415 256.516 152.424 262.322 155.331 279.607L155.639 279.551V279.56Z" fill="#4D60E4"/>
<path d="M159.854 278.506C156.191 256.61 144.135 233.174 144.013 232.94L143.733 233.09C143.855 233.323 155.892 256.712 159.536 278.562L159.845 278.506H159.854Z" fill="#4D60E4"/>
<path d="M352.305 283.648C351.081 283.321 346.978 284.217 346.885 284.563C346.791 284.908 349.903 287.736 351.127 288.063C352.352 288.389 353.604 287.661 353.931 286.448C354.258 285.225 353.529 283.975 352.314 283.648H352.305Z" fill="#4D60E4"/>
<path d="M356.445 279.159C357.445 278.394 359.576 275.034 359.417 274.828C359.258 274.623 355.464 275.818 354.464 276.583C353.464 277.348 353.09 278.552 353.641 279.261C354.193 279.971 355.445 279.924 356.445 279.159Z" fill="#4D60E4"/>
<path d="M344.642 279.467C344.623 280.727 346.483 284.498 346.847 284.498C347.212 284.498 349.202 280.802 349.221 279.542C349.24 278.282 348.24 277.236 346.969 277.218C345.707 277.199 344.66 278.198 344.642 279.467Z" fill="#4D60E4"/>
<path d="M346.885 256.012C347.604 256.992 351.23 258.784 351.511 258.579C351.791 258.374 351.155 254.379 350.436 253.408C349.716 252.428 348.333 252.223 347.352 252.942C346.371 253.66 346.165 255.042 346.885 256.022V256.012Z" fill="white"/>
<path d="M352.922 253.362C352.109 254.267 351.099 258.178 351.361 258.411C351.623 258.644 355.398 257.198 356.211 256.292C357.024 255.387 356.94 253.996 356.034 253.184C355.127 252.372 353.735 252.456 352.922 253.362Z" fill="white"/>
<path d="M356.866 257.963C355.725 257.543 351.707 258.038 351.585 258.355C351.464 258.682 354.193 261.668 355.333 262.088C356.473 262.508 357.744 261.93 358.165 260.791C358.585 259.652 358.006 258.383 356.866 257.963Z" fill="white"/>
<path d="M353.735 262.994C353.725 261.78 351.838 258.206 351.492 258.206C351.146 258.206 349.314 261.818 349.324 263.031C349.333 264.244 350.324 265.224 351.548 265.215C352.763 265.206 353.744 264.216 353.735 262.994Z" fill="white"/>
<path d="M347.782 262.21C348.903 261.743 351.511 258.654 351.38 258.327C351.249 258.01 347.212 257.674 346.09 258.15C344.969 258.616 344.436 259.904 344.903 261.024C345.371 262.144 346.66 262.676 347.782 262.21Z" fill="white"/>
<path d="M350.669 258.15C350.763 257.758 351.165 257.524 351.548 257.627C351.94 257.72 352.174 258.122 352.071 258.504C351.969 258.887 351.576 259.13 351.193 259.027C350.8 258.934 350.567 258.532 350.669 258.15Z" fill="#89B4FD"/>
<path d="M340.819 297.592C342.044 290.303 345.501 285.608 348.193 282.958C351.109 280.083 353.772 278.916 353.791 278.907L353.894 279.14C353.791 279.187 343.399 283.826 341.072 297.639L340.819 297.601V297.592Z" fill="#4D60E4"/>
<path d="M337.446 296.743C340.371 279.252 350.006 260.52 350.099 260.334L350.324 260.446C350.23 260.632 340.614 279.327 337.698 296.78L337.446 296.743Z" fill="#4D60E4"/>
<path d="M189.479 117.366C189.479 76.8877 225.067 44.0625 268.962 44.0625C312.858 44.0625 348.445 76.8784 348.445 117.366C348.445 137.003 340.072 154.83 326.446 167.99C314.101 179.909 306.998 196.242 306.998 213.396C306.998 227.275 295.737 238.522 281.84 238.522H256.103C242.206 238.522 230.945 227.275 230.945 213.396C230.945 196.242 223.842 179.918 211.497 167.99C197.871 154.83 189.498 137.003 189.498 117.366H189.479Z" fill="#F77166"/>
<mask id="mask0_17_243" style="mask-type:luminance" maskUnits="userSpaceOnUse" x="189" y="44" width="160" height="195">
<path d="M189.479 117.366C189.479 76.8877 225.067 44.0625 268.962 44.0625C312.858 44.0625 348.445 76.8784 348.445 117.366C348.445 137.003 340.072 154.83 326.446 167.99C314.101 179.909 306.998 196.242 306.998 213.396C306.998 227.275 295.737 238.522 281.84 238.522H256.103C242.206 238.522 230.945 227.275 230.945 213.396C230.945 196.242 223.842 179.918 211.497 167.99C197.871 154.83 189.498 137.003 189.498 117.366H189.479Z" fill="white"/>
</mask>
<g mask="url(#mask0_17_243)">
<path d="M181.872 127.866C183.32 127.866 271.448 128.445 271.448 128.445C271.448 128.445 273.953 182.662 273.084 183.101C272.214 183.549 198.114 183.483 198.114 183.483L235.795 241.938L334.446 237.756C334.446 237.756 378.416 111.645 375.519 104.99C372.622 98.3356 344.791 45.6398 342.763 45.3505C340.735 45.0612 246.841 28.8492 244.365 29.7172C241.888 30.5852 195.217 58.0905 194.927 58.9585C194.638 59.8264 181.881 127.857 181.881 127.857L181.872 127.866Z" fill="#5774F4"/>
<path d="M337.941 136.182C337.941 133.392 336.913 130.853 335.212 128.912H354.426V108.36C352.426 110.786 349.399 112.326 346.025 112.326C339.988 112.326 335.1 107.398 335.1 101.332C335.1 95.2557 339.997 90.3277 346.025 90.3277C349.399 90.3277 352.426 91.8677 354.426 94.2943V73.7424H334.53C336.633 71.7358 337.941 68.9078 337.941 65.7624C337.941 59.6865 333.044 54.7678 327.007 54.7678C320.97 54.7678 316.073 59.6958 316.073 65.7624C316.073 68.9078 317.381 71.7358 319.484 73.7424H299.587V93.4637C301.559 91.5317 304.251 90.337 307.222 90.337C313.26 90.337 318.147 95.265 318.147 101.341C318.147 107.417 313.26 112.336 307.222 112.336C304.251 112.336 301.559 111.141 299.587 109.209V128.93H318.802C317.101 130.872 316.073 133.41 316.073 136.201C316.073 142.277 320.97 147.195 327.007 147.195C333.044 147.195 337.941 142.267 337.941 136.201V136.182Z" fill="#2240A0"/>
<path d="M236.58 90.0663C239.617 90.0663 242.374 91.3076 244.356 93.3049V73.593H189.479V128.398H207.721C206.619 130.106 205.974 132.131 205.974 134.315C205.974 140.345 210.871 145.245 216.917 145.245C222.955 145.245 227.861 140.354 227.861 134.315C227.861 132.131 227.216 130.106 226.113 128.398H244.356V108.677C242.374 110.674 239.617 111.916 236.58 111.916C230.543 111.916 225.646 107.025 225.646 100.986C225.646 94.9476 230.543 90.0663 236.58 90.0663Z" fill="#7798F8"/>
<path d="M306.839 90.0477C304.045 90.0477 301.503 91.0743 299.559 92.773V73.5837H278.98C281.41 75.5811 282.952 78.6051 282.952 81.9744C282.952 88.0037 278.018 92.885 271.943 92.885C265.859 92.885 260.925 87.9944 260.925 81.9744C260.925 78.6051 262.467 75.5811 264.897 73.5837H244.318V93.4543C242.309 91.3543 239.477 90.0477 236.328 90.0477C230.244 90.0477 225.319 94.9383 225.319 100.968C225.319 106.997 230.253 111.888 236.328 111.888C239.477 111.888 242.309 110.581 244.318 108.481V128.352H264.065C262.131 126.382 260.934 123.694 260.934 120.726C260.934 114.697 265.869 109.816 271.953 109.816C278.037 109.816 282.962 114.697 282.962 120.726C282.962 123.694 281.765 126.382 279.831 128.352H299.578V109.162C301.522 110.861 304.064 111.888 306.858 111.888C312.942 111.888 317.867 106.997 317.867 100.968C317.867 94.9383 312.933 90.0477 306.858 90.0477H306.839Z" fill="#DAE6FF"/>
<path d="M305.232 166.338C311.271 166.338 316.166 161.336 316.166 155.166C316.166 148.996 311.271 143.994 305.232 143.994C299.193 143.994 294.298 148.996 294.298 155.166C294.298 161.336 299.193 166.338 305.232 166.338Z" fill="#2D3DBD"/>
<path d="M271.943 131.749C277.982 131.749 282.878 126.747 282.878 120.577C282.878 114.407 277.982 109.405 271.943 109.405C265.905 109.405 261.009 114.407 261.009 120.577C261.009 126.747 265.905 131.749 271.943 131.749Z" fill="#2D3DBD"/>
<path d="M244.374 128.389V146.925C245.673 146.309 247.131 145.963 248.664 145.963C254.196 145.963 258.673 150.443 258.673 155.959C258.673 161.475 254.187 165.955 248.664 165.955C247.131 165.955 245.673 165.61 244.374 164.994V183.53H299.597V128.38H244.374V128.389Z" fill="#2D3DBD"/>
<path d="M271.962 92.8943C278.14 92.8943 283.149 87.8256 283.149 81.573C283.149 75.3204 278.14 70.2517 271.962 70.2517C265.784 70.2517 260.776 75.3204 260.776 81.573C260.776 87.8256 265.784 92.8943 271.962 92.8943Z" fill="#414ADD"/>
<path d="M307.391 56.9798C313.569 56.9798 318.577 52.0908 318.577 46.0598C318.577 40.0289 313.569 35.1399 307.391 35.1399C301.213 35.1399 296.204 40.0289 296.204 46.0598C296.204 52.0908 301.213 56.9798 307.391 56.9798Z" fill="#414ADD"/>
<path d="M299.578 18.5266H281.018C281.635 19.8239 281.98 21.2799 281.98 22.8106C281.98 28.3359 277.495 32.8066 271.971 32.8066C266.448 32.8066 261.962 28.3266 261.962 22.8106C261.962 21.2799 262.308 19.8239 262.925 18.5266H244.365V73.6771H299.587V18.5266H299.578Z" fill="#414ADD"/>
<path d="M236.655 222.132C242.916 222.132 247.991 217.131 247.991 210.961C247.991 204.79 242.916 199.789 236.655 199.789C230.394 199.789 225.319 204.79 225.319 210.961C225.319 217.131 230.394 222.132 236.655 222.132Z" fill="#F4F6FC"/>
<path d="M299.774 183.381V201.916C298.475 201.3 297.017 200.955 295.485 200.955C289.952 200.955 285.476 205.435 285.476 210.951C285.476 216.467 289.961 220.947 295.485 220.947C297.017 220.947 298.475 220.602 299.774 219.986V238.522H244.552V183.371H299.774V183.381Z" fill="#F4F6FC"/>
<path d="M272.214 201.31C278.253 201.31 283.149 196.308 283.149 190.138C283.149 183.968 278.253 178.966 272.214 178.966C266.176 178.966 261.28 183.968 261.28 190.138C261.28 196.308 266.176 201.31 272.214 201.31Z" fill="#2D3DBD"/>
<path d="M294.298 222.198C300.558 222.198 305.634 217.196 305.634 211.026C305.634 204.856 300.558 199.854 294.298 199.854C288.037 199.854 282.962 204.856 282.962 211.026C282.962 217.196 288.037 222.198 294.298 222.198Z" fill="#414ADD"/>
<path d="M327.521 257.58C333.56 257.58 338.455 252.579 338.455 246.408C338.455 240.238 333.56 235.236 327.521 235.236C321.482 235.236 316.587 240.238 316.587 246.408C316.587 252.579 321.482 257.58 327.521 257.58Z" fill="#414ADD"/>
<path d="M355.09 238.596V220.061C353.791 220.677 352.333 221.022 350.8 221.022C345.268 221.022 340.791 216.542 340.791 211.026C340.791 205.51 345.277 201.03 350.8 201.03C352.333 201.03 353.791 201.375 355.09 201.991V183.455H299.868V238.606H355.09V238.596Z" fill="#414ADD"/>
</g>
<path d="M294.223 278.776H243.701C240.01 278.776 237.019 275.789 237.019 272.103V260.548H300.905V272.103C300.905 275.789 297.914 278.776 294.223 278.776Z" fill="#414ADD"/>
<path d="M265.028 269.368C283.84 269.368 300.597 264.011 301.653 263.666C304.849 262.62 306.587 259.195 305.55 256.003C304.503 252.811 301.073 251.075 297.877 252.111C297.316 252.288 262.589 263.292 240.879 252.456C237.87 250.954 234.216 252.176 232.711 255.172C231.207 258.178 232.431 261.827 235.431 263.33C244.524 267.866 255.065 269.368 265.028 269.368Z" fill="#060632"/>
<path d="M265.028 259.494C283.84 259.494 300.597 254.136 301.653 253.791C304.849 252.746 306.587 249.32 305.55 246.128C304.503 242.936 301.073 241.191 297.877 242.236C297.316 242.414 262.589 253.418 240.879 242.582C237.87 241.079 234.216 242.302 232.711 245.298C231.207 248.303 232.431 251.952 235.431 253.455C244.524 257.991 255.065 259.494 265.028 259.494Z" fill="#414ADD"/>
<path d="M265.028 249.619C283.84 249.619 300.597 244.262 301.653 243.916C304.849 242.871 306.587 239.446 305.55 236.254C304.503 233.062 301.073 231.326 297.877 232.362C297.316 232.539 262.589 243.543 240.879 232.707C237.87 231.204 234.216 232.418 232.711 235.423C231.207 238.428 232.431 242.078 235.431 243.58C244.524 248.126 255.065 249.619 265.028 249.619Z" fill="#060632"/>
<path d="M185.059 157.854C185.059 157.854 187.806 158.33 188.124 158.479C188.451 158.629 188.731 159.021 186.591 159.263C184.451 159.506 179.937 158.339 177.629 157.266L177.199 152.889C177.199 152.889 180.283 152.002 181.601 151.414C182.919 150.826 184.554 149.239 185.133 149.846C185.713 150.453 182.816 152.767 182.816 152.767C182.816 152.767 184.573 152.823 185.479 152.73C186.386 152.637 190.208 152.375 190.32 153.309C190.395 153.971 185.732 154.438 185.732 154.438C185.732 154.438 191.46 154.158 191.311 155.035C191.161 155.931 185.152 156.23 185.152 156.23C185.152 156.23 190.33 156.239 190.404 156.65C190.516 157.238 189.264 157.434 187.974 157.574L185.04 157.845L185.059 157.854Z" fill="#FF9390"/>
<path d="M141.378 153.645C141.378 153.645 150.434 155.567 151.593 155.567C152.751 155.567 177.208 152.889 177.208 152.889L179.349 157.051C179.349 157.051 160.461 164.807 148.322 164.042C136.182 163.267 137.145 158.265 137.145 158.265L141.387 153.645H141.378Z" fill="#FF9390"/>
<path d="M104.417 283.769C104.417 283.769 102.23 295.595 102.305 295.735C102.379 295.875 101.613 297.051 101.613 297.051L98.6226 297.583L95.8937 296.332C95.8937 296.332 98.1086 285.151 97.8282 283.769C97.5385 282.379 104.426 283.769 104.426 283.769H104.417Z" fill="#FF9390"/>
<path d="M95.8937 296.332C95.8937 296.332 99.3422 297.536 102.286 295.548C102.286 295.548 113.762 299.841 113.407 303.108C113.407 303.108 113.893 304.079 108.921 303.873C103.949 303.659 96.2208 303.444 96.0152 303.332C95.8096 303.22 94.8377 303.743 95.8844 296.341L95.8937 296.332Z" fill="#010130"/>
<path d="M48.5496 264.776C48.5496 264.776 37.9799 270.535 37.9145 270.684C37.8584 270.824 36.4566 270.983 36.4566 270.983L34.1576 269.004L33.41 266.101C33.41 266.101 43.4937 260.772 44.3909 259.671C45.2881 258.57 48.5496 264.785 48.5496 264.785V264.776Z" fill="#FF9390"/>
<path d="M33.41 266.092C33.41 266.092 34.6436 269.527 38.0547 270.553C38.0547 270.553 41.9517 282.155 39.1948 283.947C39.1948 283.947 38.7463 284.936 35.7744 280.951C32.8025 276.965 28.1018 270.833 28.0644 270.6C28.027 270.367 26.999 269.947 33.4193 266.092H33.41Z" fill="#010130"/>
<path d="M116.753 205.808C116.753 205.808 123.257 237.766 118.631 255.424C114.005 273.083 104.174 290.116 104.174 290.116H94.0527C94.0527 290.116 105.333 258.644 103.594 246.52C101.856 234.396 101.566 218.511 97.2301 217.932C92.8938 217.354 85.3801 238.428 71.2124 251.999C57.0447 265.57 42.2975 270.479 42.2975 270.479L38.2509 260.95C38.2509 260.95 62.4744 239.763 66.5396 231.783C77.2028 210.82 85.0904 196.849 85.0904 196.849L116.753 205.799V205.808Z" fill="#5080D0"/>
<path d="M112.977 146.047C112.977 146.047 119.211 147.783 121.668 146.766C124.126 145.758 132.799 148.213 138.873 150.667C144.948 153.122 146.097 153.262 146.097 153.262C146.097 153.262 144.939 160.915 142.341 165.246C142.341 165.246 133.519 165.106 133.089 165.246C132.659 165.386 121.089 188.057 120.51 190.362C119.93 192.667 118.052 207.106 118.052 207.106C118.052 207.106 105.473 213.891 99.6973 212.304C93.9125 210.718 89.8659 202.196 80.184 203.214C80.184 203.214 90.1182 152.254 112.977 146.047Z" fill="#DF5854"/>
<path d="M227.889 172.666C234.315 172.666 239.524 167.58 239.524 161.307C239.524 155.034 234.315 149.949 227.889 149.949C221.463 149.949 216.254 155.034 216.254 161.307C216.254 167.58 221.463 172.666 227.889 172.666Z" fill="#0C1480"/>
<path d="M219.749 132.654H200.432C201.077 134.007 201.432 135.519 201.432 137.115C201.432 142.865 196.769 147.522 191.012 147.522C185.255 147.522 180.592 142.865 180.592 137.115C180.592 135.519 180.956 134.007 181.592 132.654H162.274V190.044H219.74V132.654H219.749Z" fill="#0C1480"/>
<path d="M129.435 164.079C129.435 164.079 141.574 169.427 143.892 168.849C146.2 168.27 163.742 165.386 163.742 165.386L165.087 168.895C165.087 168.895 149.667 179.629 139.257 179.05C128.846 178.471 119.211 172.694 119.211 172.694C119.211 172.694 126.145 164.695 129.425 164.07L129.435 164.079Z" fill="#FF9390"/>
<path d="M116.902 175.718C116.902 175.718 116.828 175.699 116.799 175.671L106.248 165.059C106.192 165.003 106.192 164.91 106.248 164.854C106.305 164.798 106.398 164.798 106.454 164.854L116.884 175.345C123.893 166.17 129.509 163.734 130.659 163.305C129.425 161.923 120.809 152.394 116.846 150.901C116.771 150.873 116.734 150.789 116.762 150.714C116.79 150.639 116.874 150.593 116.949 150.63C121.267 152.263 130.631 162.829 131.033 163.277C131.07 163.314 131.079 163.37 131.061 163.417C131.051 163.463 131.005 163.501 130.958 163.519C130.902 163.538 124.837 165.367 117.014 175.662C116.986 175.699 116.949 175.718 116.902 175.718Z" fill="#060632"/>
<path d="M127.995 132.477C127.995 132.477 128.808 131.366 129.388 131.861C130.864 133.121 129.257 134.586 128.22 134.875L127.986 132.477H127.995Z" fill="#FF6968"/>
<path d="M128.537 128.249H128.528C128.537 128.127 128.547 128.006 128.556 127.885C128.808 122.5 124.463 117.964 118.977 118.076C114.407 118.16 110.51 121.613 109.875 126.13C109.641 127.81 109.856 129.425 110.426 130.871C111.192 133.102 111.874 135.015 112.613 136.611C113.837 139.253 114.117 142.23 113.501 145.067L113.015 147.298C118.641 150.63 121.397 147.905 121.397 147.905L121.697 143.779C121.734 143.238 122.182 142.827 122.725 142.818C122.725 142.818 122.725 142.818 122.734 142.818C129.902 142.687 128.388 131.469 128.537 128.258V128.249Z" fill="#FF9390"/>
<path d="M118.641 132.719C118.659 132.234 118.285 131.833 117.809 131.805C117.323 131.786 116.921 132.15 116.893 132.635C116.874 133.121 117.239 133.522 117.725 133.55C118.211 133.569 118.613 133.195 118.641 132.719Z" fill="#00001C"/>
<path d="M126.472 131.525C126.491 131.04 126.117 130.638 125.64 130.61C125.154 130.592 124.752 130.956 124.724 131.441C124.706 131.926 125.07 132.328 125.556 132.356C126.042 132.374 126.444 132.001 126.472 131.525Z" fill="#00001C"/>
<path d="M115.575 131.217C115.482 131.217 115.398 131.189 115.314 131.133C115.08 130.974 115.015 130.657 115.173 130.423C115.65 129.714 117.042 128.659 118.949 129.723C119.192 129.863 119.285 130.171 119.145 130.423C119.005 130.666 118.697 130.759 118.444 130.619C116.874 129.742 116.052 130.946 116.024 130.993C115.921 131.151 115.743 131.226 115.575 131.217Z" fill="#00001C"/>
<path d="M123.827 130.237C123.734 130.237 123.65 130.209 123.566 130.153C123.332 129.994 123.267 129.677 123.425 129.443C123.902 128.734 125.295 127.67 127.201 128.743C127.444 128.883 127.537 129.191 127.397 129.443C127.257 129.686 126.949 129.779 126.696 129.639C125.126 128.762 124.304 129.966 124.276 130.013C124.173 130.171 123.996 130.246 123.827 130.237Z" fill="#00001C"/>
<path d="M108.921 127.624L111.174 134.082L112.893 133.821L114.295 125.692L108.921 127.624Z" fill="#00001C"/>
<path d="M113.164 133.634C113.024 133.326 112.772 133.083 112.463 132.943C111.828 132.654 110.697 132.318 109.875 133.065C108.669 134.166 110.846 137.321 113.211 135.911C113.211 135.911 113.893 135.286 113.164 133.643V133.634Z" fill="#FF9390"/>
<path d="M122.977 136.089C122.117 136.462 121.397 135.977 121.388 135.967C121.323 135.921 121.304 135.827 121.351 135.753C121.397 135.687 121.491 135.669 121.566 135.715C121.603 135.734 122.407 136.266 123.276 135.547C123.416 135.426 123.491 135.333 123.5 135.258C123.5 135.155 123.388 135.015 123.229 134.819C122.855 134.371 122.22 133.625 122.089 132.001C122.089 131.917 122.145 131.842 122.229 131.833C122.313 131.833 122.388 131.889 122.397 131.973C122.519 133.503 123.089 134.175 123.472 134.623C123.678 134.866 123.837 135.053 123.818 135.286C123.799 135.454 123.696 135.603 123.482 135.781C123.313 135.921 123.154 136.014 122.996 136.079L122.977 136.089Z" fill="#FF6968"/>
<path d="M119.388 137.517C119.388 137.517 122.93 138.123 125.238 137.171C125.238 137.171 124.547 139.878 122.472 139.999C120.388 140.121 119.388 137.507 119.388 137.507V137.517Z" fill="white"/>
<path d="M127.192 124.543C127.192 124.543 128.5 125.551 128.565 131.254C128.565 131.254 129.322 124.935 128.64 124.207C127.967 123.479 127.192 124.543 127.192 124.543Z" fill="#00001C"/>
<path d="M113.622 116.909C113.921 116.675 114.444 116.526 114.631 116.862C114.706 117.002 114.678 117.161 114.65 117.319C114.557 117.758 114.388 118.187 114.155 118.57C115.968 116.955 118.659 116.75 121.061 117.114C123.463 117.478 125.78 118.337 128.201 118.551C129.164 118.635 130.313 118.729 130.771 119.578C131.089 120.166 130.892 120.95 130.425 121.426C129.958 121.911 129.276 122.135 128.612 122.21C129.135 122.07 129.743 122.294 130.042 122.751C130.341 123.199 130.322 123.843 129.986 124.273C129.481 124.926 128.509 124.954 127.678 124.907C125.033 124.758 122.397 124.469 119.781 124.049C120.117 124.413 120.463 124.767 120.799 125.131C120.911 125.253 121.033 125.383 121.08 125.551C121.136 125.775 121.024 126.009 120.874 126.186C120.482 126.643 119.837 126.802 119.239 126.755C118.641 126.709 118.07 126.494 117.5 126.317C116.659 126.055 115.8 125.878 114.93 125.775C114.753 125.757 114.566 125.738 114.388 125.794C114.155 125.869 113.977 126.055 113.8 126.223C112.725 127.203 111.192 127.474 109.753 127.707C109.304 127.782 108.725 127.782 108.538 127.371C108.463 127.213 108.482 127.026 108.501 126.858C108.716 124.777 109.519 122.751 110.772 121.071C110.445 121.501 109.79 121.529 109.585 120.95C109.314 120.213 110.258 119.755 110.79 119.541C111.276 119.345 111.706 119.345 112.099 118.962C112.716 118.355 112.884 117.497 113.622 116.927V116.909Z" fill="#00001C"/>
<path d="M170.713 167.57C170.713 167.57 173.442 167.019 173.797 167.038C174.153 167.057 174.564 167.327 172.657 168.326C170.751 169.325 166.125 169.866 163.583 169.707L161.602 165.787C161.602 165.787 164.153 163.846 165.172 162.819C166.181 161.793 167.134 159.73 167.891 160.075C168.648 160.43 166.788 163.631 166.788 163.631C166.788 163.631 168.452 163.043 169.256 162.633C170.069 162.222 173.536 160.589 173.975 161.419C174.283 162.007 170.106 164.135 170.106 164.135C170.106 164.135 175.339 161.802 175.517 162.67C175.704 163.557 170.218 166.011 170.218 166.011C170.218 166.011 175.05 164.154 175.265 164.499C175.582 165.013 174.48 165.638 173.339 166.245L170.704 167.561L170.713 167.57Z" fill="#FF9390"/>
<path d="M158.901 84.1304L162.489 76.4491L155.938 73.3971C156.041 72.2304 156.022 71.0731 155.873 69.9251L162.658 66.7238L159.032 59.0611L152.593 62.1038C151.948 61.2825 151.219 60.5265 150.406 59.8358L153.312 53.6292L145.621 50.0452L142.714 56.2518C141.668 56.0745 140.612 55.9998 139.574 56.0371L137.771 49.1492L129.565 51.2865L131.462 58.5385C130.491 59.1545 129.584 59.8825 128.752 60.7131L122.201 57.6611L118.612 65.3424L124.584 68.1238C124.145 69.8784 124.024 71.6517 124.182 73.3971L117.837 76.3931L121.463 84.0557L127.192 81.349C127.921 82.3384 128.762 83.2624 129.724 84.0744L127.192 89.4877L134.883 93.0717L137.416 87.6583C138.658 87.873 139.901 87.929 141.135 87.845L142.733 93.9677L150.938 91.8303L149.163 85.045C150.602 84.0464 151.892 82.8144 152.948 81.349L158.919 84.1304H158.901ZM136.528 79.501C132.36 77.5597 130.556 72.6037 132.5 68.4318C134.444 64.2691 139.406 62.4678 143.584 64.4091C147.761 66.3504 149.555 71.3064 147.611 75.4784C145.668 79.6504 140.705 81.4517 136.528 79.501Z" fill="#6D99F4"/>
<path d="M185.638 26.9453C180.349 24.4813 174.068 26.7586 171.601 32.0412C169.134 37.3239 171.414 43.5959 176.704 46.0598C181.993 48.5238 188.274 46.2465 190.741 40.9639C193.208 35.6812 190.928 29.4093 185.638 26.9453ZM178.078 43.6799C174.162 41.8599 172.47 37.2119 174.302 33.3012C176.124 29.3906 180.778 27.7013 184.694 29.5306C188.61 31.3506 190.302 35.9986 188.47 39.9092C186.647 43.8199 181.993 45.5092 178.078 43.6799Z" fill="#9FC6F9"/>
<path d="M188.284 24.6793L185.676 23.4635L183.936 27.1848L186.545 28.4006L188.284 24.6793Z" fill="#9FC6F9"/>
<path d="M192.572 28.3288L190.723 26.1251L187.571 28.7621L189.419 30.9658L192.572 28.3288Z" fill="#9FC6F9"/>
<path d="M194.821 33.3237L193.997 30.5691L190.057 31.7437L190.88 34.4982L194.821 33.3237Z" fill="#9FC6F9"/>
<path d="M195.026 38.3522L195.098 35.4784L190.987 35.3766L190.916 38.2504L195.026 38.3522Z" fill="#9FC6F9"/>
<path d="M171.938 33.8561L173.156 31.2512L169.43 29.5144L168.212 32.1193L171.938 33.8561Z" fill="#9FC6F9"/>
<path d="M192.822 43.5921L194.039 40.9872L190.313 39.2503L189.096 41.8552L192.822 43.5921Z" fill="#9FC6F9"/>
<path d="M180.059 26.6H182.937V22.4933H180.059V26.6Z" fill="#9FC6F9"/>
<path d="M176.407 27.7418L179.05 26.6034L177.421 22.8325L174.778 23.9709L176.407 27.7418Z" fill="#9FC6F9"/>
<path d="M173.518 30.1472L175.678 28.2473L172.96 25.1654L170.8 27.0654L173.518 30.1472Z" fill="#9FC6F9"/>
<path d="M178.394 45.9269L175.786 44.7111L174.047 48.4323L176.655 49.6481L178.394 45.9269Z" fill="#9FC6F9"/>
<path d="M182.199 46.4985H179.321V50.6052H182.199V46.4985Z" fill="#9FC6F9"/>
<path d="M185.84 45.3612L183.197 46.4996L184.826 50.2705L187.469 49.1321L185.84 45.3612Z" fill="#9FC6F9"/>
<path d="M188.746 42.9621L186.586 44.8621L189.304 47.9439L191.464 46.044L188.746 42.9621Z" fill="#9FC6F9"/>
<path d="M169.693 44.77L171.542 46.9738L174.694 44.3368L172.846 42.1331L169.693 44.77Z" fill="#9FC6F9"/>
<path d="M167.438 39.7796L168.261 42.5342L172.201 41.3596L171.378 38.605L167.438 39.7796Z" fill="#9FC6F9"/>
<path d="M167.242 34.7512L167.17 37.625L171.281 37.7268L171.352 34.853L167.242 34.7512Z" fill="#9FC6F9"/>
<path d="M393.294 55.5237C377.93 55.5237 365.482 67.9556 365.482 83.2996C365.482 98.6435 377.93 111.075 393.294 111.075C408.658 111.075 421.106 98.6435 421.106 83.2996C421.106 67.9556 408.658 55.5237 393.294 55.5237ZM393.93 103.861C382.556 103.861 373.342 94.6582 373.342 83.2996C373.342 71.9409 382.556 62.7383 393.93 62.7383C405.303 62.7383 414.518 71.9409 414.518 83.2996C414.518 94.6582 405.303 103.861 393.93 103.861Z" fill="#B4D0F9"/>
<path d="M397.088 47.2264H389.5V58.0437H397.088V47.2264Z" fill="#B4D0F9"/>
<path d="M411.413 51.114L404.537 47.9087L399.956 57.7109L406.832 60.9162L411.413 51.114Z" fill="#B4D0F9"/>
<path d="M422.371 60.5165L417.328 54.8536L409.234 62.0426L414.277 67.7055L422.371 60.5165Z" fill="#B4D0F9"/>
<path d="M428.432 72.3317L425.393 65.3875L415.468 69.7199L418.508 76.6641L428.432 72.3317Z" fill="#B4D0F9"/>
<path d="M368.286 87.2663V79.6876H357.454V87.2663H368.286Z" fill="#B4D0F9"/>
<path d="M428.956 87.2757V79.697H418.125V87.2757H428.956Z" fill="#B4D0F9"/>
<path d="M379.58 60.9224L386.457 57.7172L381.876 47.915L374.999 51.1202L379.58 60.9224Z" fill="#B4D0F9"/>
<path d="M372.146 67.7175L377.189 62.0546L369.096 54.8656L364.053 60.5285L372.146 67.7175Z" fill="#B4D0F9"/>
<path d="M367.905 76.657L370.944 69.7128L361.02 65.3803L357.981 72.3246L367.905 76.657Z" fill="#B4D0F9"/>
<path d="M397.182 108.91H389.593V119.727H397.182V108.91Z" fill="#B4D0F9"/>
<path d="M406.9 106.035L400.023 109.24L404.604 119.042L411.481 115.837L406.9 106.035Z" fill="#B4D0F9"/>
<path d="M414.347 99.2446L409.304 104.907L417.398 112.096L422.441 106.434L414.347 99.2446Z" fill="#B4D0F9"/>
<path d="M418.594 90.3089L415.555 97.2532L425.48 101.586L428.519 94.6413L418.594 90.3089Z" fill="#B4D0F9"/>
<path d="M375.074 115.836L381.95 119.042L386.531 109.239L379.655 106.034L375.074 115.836Z" fill="#B4D0F9"/>
<path d="M364.132 106.434L369.175 112.097L377.269 104.908L372.226 99.2455L364.132 106.434Z" fill="#B4D0F9"/>
<path d="M358.065 94.6242L361.104 101.568L371.029 97.2361L367.99 90.2918L358.065 94.6242Z" fill="#B4D0F9"/>
<path d="M410.022 151.647C410.237 154.214 413.452 156.183 412.742 158.666C412.583 159.217 412.237 159.702 412.116 160.262C411.854 161.494 412.826 162.745 414.032 163.118C415.237 163.491 416.555 163.174 417.686 162.623C418.817 162.073 419.835 161.307 420.957 160.729C423.461 159.422 426.34 159.086 429.078 158.386C431.853 157.677 434.592 156.575 437.461 156.622C440.769 156.669 443.825 158.227 446.974 159.235C450.18 160.262 453.572 160.729 456.937 160.607C458.694 160.542 460.507 160.299 462.011 159.403C465.03 157.611 466.011 153.523 464.581 150.415C463.768 148.642 462.273 147.242 460.535 146.393C458.983 145.637 457.039 145.459 455.825 144.115C454.124 142.23 454.937 139.234 454.17 136.807C453.526 134.773 451.694 133.167 449.722 132.458C447.881 131.786 445.647 131.805 444.208 130.302C442.647 128.669 443.003 126.261 442.629 124.217C442.087 121.296 439.984 118.794 437.377 117.357C436.601 116.928 435.76 116.582 434.881 116.312C429.106 114.548 421.798 116.386 420.172 122.966C419.676 124.982 419.835 127.194 418.854 129.023C417.779 131.011 415.471 132.281 414.938 134.465C414.265 137.218 416.751 139.999 416.134 142.771C415.733 144.582 414.134 145.823 412.714 147.027C411.303 148.231 409.873 149.799 410.032 151.647H410.022Z" fill="#010130"/>
<path d="M448.301 284.171C448.301 284.171 448.862 297.769 447.516 299.337C446.75 300.233 430.62 302.903 430.04 300.765C429.461 298.619 441.657 294.969 442.348 290.919C443.04 286.868 442.376 283.125 442.376 283.125L448.301 284.18V284.171Z" fill="#FF9390"/>
<path d="M404.172 283.098C404.172 283.098 401.303 290.452 400.724 291.796C400.144 293.14 399.742 297.742 398.443 297.975C397.144 298.208 383.182 300.448 382.734 298.189C382.285 295.921 394.808 291.47 395.528 289.631C396.247 287.792 398.929 280.12 398.929 280.12L404.172 283.098Z" fill="#FF9390"/>
<path d="M446.442 186.563C446.442 186.563 456.441 201.338 457.694 209.206C458.955 217.074 454.712 246.996 454.89 248.91C455.068 250.814 456.068 255.135 455.441 258.187C454.815 261.23 450.395 270.507 451.217 272.924C452.04 275.342 450.769 287.176 450.769 287.176L440.115 287.764C440.115 287.764 440.713 273.774 439.012 267.847C437.311 261.92 436.769 252.102 436.545 248.004C436.321 243.916 434.853 217.447 434.853 217.447C434.853 217.447 428.994 230.364 428.807 232.016C428.62 233.668 428.424 235.05 426.555 240.902C424.685 246.754 420.022 251.663 419.34 254.164C418.658 256.666 418.517 259.139 417.293 261.668C416.06 264.198 412.845 265.476 411.807 271.552C410.77 277.628 405.78 286.392 405.78 286.392L393.808 282.948C393.808 282.948 401.294 259.82 401.247 258.999C401.2 258.178 405.06 253.586 404.621 245.68C404.182 237.766 408.509 226.855 409.77 224.867C411.032 222.879 421.714 188.215 426.639 185.621C431.564 183.026 446.423 186.582 446.423 186.582L446.442 186.563Z" fill="#7FB4F9"/>
<path d="M438.451 144.927C443.993 144.825 452.741 146.803 458.105 154.718C463.478 162.633 466.151 170.081 466.151 170.081L454.507 175.037L453.021 170.398C453.021 170.398 450.778 185.509 447.769 186.899C444.76 188.299 442.591 186.162 440.732 186.059C438.872 185.957 433.04 188.122 428.04 186.965C423.041 185.807 422.639 182.13 421.779 177.865C420.929 173.599 419.891 169.754 419.891 169.754L418.125 171.285L408.097 162.325C408.097 162.325 418.602 150.322 424.648 148.147C430.695 145.963 438.442 144.918 438.442 144.918L438.451 144.927Z" fill="white"/>
<path d="M463.796 171.079C463.796 171.079 465.31 183.735 464.843 189.923C464.376 196.111 458.553 209.701 458.553 209.701L454.367 205.827C454.367 205.827 459.927 187.142 455.862 174.458L463.806 171.079H463.796Z" fill="#FF9390"/>
<path d="M421.873 132.038C421.873 132.038 420.901 131.077 420.405 131.655C419.153 133.13 421.097 134.334 422.162 134.455L421.873 132.038Z" fill="#FF6968"/>
<path d="M428.452 116.498C433.087 115.845 437.564 118.813 438.76 123.33C439.152 124.814 439.162 126.307 438.863 127.698C438.264 131.133 437.76 133.914 436.853 136.051C435.937 138.217 435.816 140.634 436.62 142.837L437.433 145.067C432.676 148.829 429.797 146.663 429.797 146.663L428.685 141.353C422.798 141.866 421.34 131.114 420.686 127.978C420.658 127.866 420.63 127.745 420.602 127.623C419.508 122.388 423.05 117.254 428.442 116.489L428.452 116.498Z" fill="#FF9390"/>
<path d="M431.04 125.645C432.396 126.55 433.638 127.614 434.872 128.678C436.18 129.808 437.535 131.002 438.115 132.626C439.358 131.189 439.956 129.313 440.405 127.474C440.61 126.616 440.797 125.748 440.741 124.861C440.657 123.62 440.106 122.462 439.563 121.333C438.863 119.886 438.115 118.374 436.825 117.413C435.975 116.778 434.937 116.424 433.9 116.181C431.47 115.621 428.882 115.63 426.536 116.47C424.19 117.31 422.125 119.028 421.097 121.286C419.77 124.198 420.265 127.586 420.779 130.741C420.826 129.378 421.452 128.109 422.078 126.886C422.48 126.093 422.891 125.281 423.536 124.665C424.629 123.61 425.013 123.713 426.91 121.762C427.891 123.573 429.349 124.516 431.04 125.645Z" fill="#010130"/>
<path d="M436.61 130.844C436.694 130.517 436.909 130.237 437.19 130.05C437.769 129.668 438.825 129.154 439.75 129.761C441.105 130.648 439.47 134.092 436.928 133.074C436.928 133.074 436.162 132.57 436.61 130.844Z" fill="#FF9390"/>
<path d="M423.405 131.814C423.274 131.385 423.508 130.928 423.938 130.797C424.368 130.666 424.826 130.9 424.957 131.329C425.087 131.758 424.854 132.216 424.424 132.346C423.994 132.477 423.536 132.243 423.405 131.814Z" fill="#010130"/>
<path d="M431.106 131.086C430.975 130.657 431.209 130.199 431.639 130.069C432.068 129.938 432.526 130.171 432.657 130.601C432.788 131.03 432.554 131.487 432.125 131.618C431.695 131.749 431.237 131.515 431.106 131.086Z" fill="#010130"/>
<path d="M426.349 137.209C426.349 137.209 426.956 136.602 427.386 136.658C427.816 136.705 428.115 137.172 428.115 137.172C428.115 137.172 428.284 136.64 428.788 136.556C429.283 136.472 430.751 136.639 430.751 136.639C430.751 136.639 429.779 138.963 428.227 138.814C426.676 138.665 426.386 137.274 426.386 137.274L426.358 137.209H426.349Z" fill="#FF6968"/>
<path d="M427.882 137.862C429.657 137.965 431.125 136.453 431.143 136.425C431.19 136.378 431.181 136.303 431.143 136.266C431.096 136.219 431.022 136.229 430.984 136.266C430.891 136.369 428.583 138.73 426.34 137.031C426.293 136.994 426.218 137.003 426.181 137.05C426.143 137.097 426.153 137.171 426.199 137.209C426.77 137.638 427.34 137.825 427.882 137.853V137.862Z" fill="#250437"/>
<path d="M433.489 129.397C433.582 129.369 433.666 129.303 433.713 129.21C433.788 129.042 433.713 128.837 433.545 128.762C433.498 128.734 432.274 128.193 430.835 128.641C430.657 128.697 430.554 128.883 430.61 129.061C430.667 129.238 430.872 129.341 431.031 129.285C432.237 128.911 433.246 129.369 433.255 129.369C433.33 129.406 433.414 129.406 433.489 129.387V129.397Z" fill="#010130"/>
<path d="M425.087 129.714C425.171 129.677 425.246 129.593 425.274 129.49C425.321 129.313 425.209 129.126 425.031 129.08C424.975 129.061 423.695 128.744 422.34 129.453C422.172 129.537 422.106 129.742 422.2 129.91C422.284 130.078 422.499 130.134 422.658 130.05C423.779 129.462 424.854 129.733 424.863 129.733C424.947 129.752 425.022 129.742 425.097 129.714H425.087Z" fill="#010130"/>
<path d="M428.153 134.866C427.181 134.922 426.723 134.278 426.601 133.877C426.583 133.802 426.592 133.727 426.62 133.671C427.246 132.467 426.844 130.974 426.844 130.965C426.798 130.815 426.891 130.657 427.041 130.61C427.19 130.563 427.349 130.657 427.396 130.806C427.414 130.871 427.844 132.43 427.19 133.821C427.293 134.026 427.62 134.474 428.508 134.241C428.667 134.203 428.816 134.297 428.854 134.446C428.891 134.595 428.798 134.754 428.648 134.791C428.47 134.838 428.302 134.866 428.153 134.875V134.866Z" fill="#FF6968"/>
<path d="M419.891 169.829C419.891 169.829 419.826 169.801 419.817 169.773C419.218 165.722 422.05 159.814 422.078 159.758C422.097 159.721 422.134 159.711 422.172 159.721C422.209 159.739 422.218 159.777 422.209 159.814C422.181 159.87 419.368 165.75 419.957 169.745C419.957 169.782 419.938 169.819 419.901 169.829H419.891Z" fill="#251A33"/>
<path d="M442.638 171.285C439.171 171.481 436.124 169.642 436.078 169.614C436.04 169.595 436.031 169.549 436.059 169.521C436.078 169.483 436.124 169.474 436.152 169.502C436.208 169.539 441.984 173.021 446.638 169.81C446.666 169.791 446.713 169.801 446.741 169.829C446.759 169.866 446.759 169.903 446.722 169.931C445.395 170.846 443.984 171.229 442.638 171.303V171.285Z" fill="#251A33"/>
<path d="M448.358 294.045C440.283 298.731 437.433 297.452 436.442 296.155C433.134 298.012 429.732 299.608 430.04 300.765C430.62 302.912 446.75 300.233 447.516 299.337C448.012 298.768 448.245 296.584 448.348 294.045H448.358Z" fill="#424EED"/>
<path d="M388.78 293.7C385.584 295.343 382.509 297.042 382.734 298.18C383.182 300.448 397.144 298.199 398.443 297.966C399.621 297.751 400.06 293.943 400.565 292.235C393.817 296.51 390.191 294.774 388.78 293.691V293.7Z" fill="#424EED"/>
<path d="M455.357 204.978C455.357 204.978 451.778 207.666 450.694 208.916C449.619 210.176 447.638 210.587 448.115 211.427C448.591 212.258 451.451 210.858 451.451 210.858C451.451 210.858 450.666 214.134 450.264 215.104C449.871 216.075 449.6 217.988 450.292 218.334C450.984 218.679 452.554 213.891 452.554 213.891C452.554 213.891 451.628 218.054 452.189 218.511C452.759 218.968 454.712 213.844 454.712 213.844C454.712 213.844 453.507 218.24 453.712 218.66C453.918 219.09 454.469 218.838 455.283 217.391C456.086 215.935 456.535 214.246 456.535 214.246C456.535 214.246 455.918 217.4 455.974 217.802C456.03 218.203 456.404 218.716 457.376 216.439C458.338 214.162 459.628 208.898 459.198 206.014L455.348 204.987L455.357 204.978Z" fill="#FF9390"/>
<path d="M385.659 160.141C385.659 160.141 384.379 155.857 383.575 154.41C382.771 152.963 383.061 150.966 382.117 151.125C381.173 151.283 381.491 154.447 381.491 154.447C381.491 154.447 378.687 152.571 377.921 151.862C377.145 151.153 375.444 150.238 374.884 150.77C374.323 151.293 378.276 154.429 378.276 154.429C378.276 154.429 374.687 152.114 374.071 152.487C373.444 152.861 377.575 156.473 377.575 156.473C377.575 156.473 373.874 153.813 373.398 153.859C372.921 153.906 372.968 154.513 374.042 155.773C375.127 157.033 376.556 158.041 376.556 158.041C376.556 158.041 373.809 156.37 373.416 156.286C373.014 156.202 372.407 156.37 374.201 158.069C376.005 159.767 380.5 162.791 383.36 163.398L385.659 160.15V160.141Z" fill="#FF9390"/>
<path d="M416.088 169.474C416.088 169.474 407.695 180.721 400.303 179.946C392.911 179.171 381.977 161.933 381.977 161.933L385.397 159.581C385.397 159.581 397.098 171.033 400.911 170.043C404.724 169.063 409.901 163.949 409.901 163.949L416.078 169.474H416.088Z" fill="#FF9390"/>
</g>
<defs>
<clipPath id="clip0_17_243">
<rect width="514" height="321" fill="white"/>
</clipPath>
</defs>
</svg>
