<svg width="514" height="340" viewBox="0 0 514 340" fill="none" xmlns="http://www.w3.org/2000/svg">
<g clip-path="url(#clip0_17_704)">
<mask id="mask0_17_704" style="mask-type:luminance" maskUnits="userSpaceOnUse" x="0" y="0" width="515" height="341">
<path d="M472.45 330.841C460.413 338.084 445.143 340.589 429.788 339.617L54.4279 340.673C11.1491 310.662 -48.6524 187.085 67.7545 114.464C108.398 89.1077 63.7173 49.1709 130.276 14.6363C211.301 -27.4034 233.795 56.0218 289.606 23.6742C389.145 -34.0112 475.88 21.8797 469.506 104.23C464.273 171.823 489.767 166.467 507.664 212.909C522.233 250.733 512.215 306.923 472.459 330.841H472.45Z" fill="white"/>
</mask>
<g mask="url(#mask0_17_704)">
<path d="M472.45 330.841C460.413 338.084 445.143 340.589 429.788 339.617L54.4279 340.673C11.1491 310.662 -48.6524 187.085 67.7545 114.464C108.398 89.1077 63.7173 49.1709 130.276 14.6363C211.301 -27.4034 233.795 56.0218 289.606 23.6742C389.145 -34.0112 475.88 21.8797 469.506 104.23C464.273 171.823 489.767 166.467 507.664 212.909C522.233 250.733 512.215 306.923 472.459 330.841H472.45Z" fill="#DDE7FE"/>
<path d="M436.947 216.619C436.853 216.573 436.779 216.479 436.769 216.367C436.741 216.18 436.872 216.003 437.059 215.965C437.797 215.844 438.545 215.685 439.274 215.47C439.461 215.414 439.648 215.526 439.704 215.704C439.76 215.89 439.648 216.077 439.47 216.133C438.713 216.358 437.937 216.526 437.171 216.647C437.096 216.657 437.021 216.647 436.956 216.61L436.947 216.619ZM370.239 181.552C369.575 181.178 368.93 180.776 368.314 180.356L368.248 180.309C368.089 180.197 368.052 179.982 368.164 179.823C368.276 179.664 368.491 179.627 368.65 179.739L368.716 179.786C369.314 180.197 369.94 180.589 370.585 180.945C370.753 181.038 370.809 181.253 370.715 181.421C370.622 181.589 370.416 181.646 370.248 181.561L370.239 181.552ZM372.314 182.58C372.155 182.496 372.08 182.3 372.155 182.132C372.229 181.954 372.435 181.879 372.613 181.954C373.295 182.253 374.014 182.533 374.734 182.786C374.912 182.851 375.014 183.048 374.949 183.225C374.884 183.403 374.687 183.505 374.51 183.44C373.762 183.188 373.033 182.898 372.332 182.59C372.332 182.59 372.314 182.59 372.314 182.58ZM366.445 178.916C366.445 178.916 366.398 178.888 366.379 178.87C365.753 178.337 365.192 177.776 364.697 177.215C364.566 177.075 364.585 176.851 364.725 176.729C364.865 176.599 365.09 176.617 365.211 176.757C365.688 177.29 366.23 177.823 366.828 178.346C366.977 178.468 366.987 178.692 366.865 178.832C366.753 178.954 366.585 178.991 366.445 178.916ZM376.678 184.076C376.538 184.001 376.463 183.842 376.5 183.683C376.547 183.496 376.734 183.384 376.921 183.431C377.65 183.618 378.397 183.777 379.154 183.907C379.341 183.945 379.472 184.122 379.435 184.309C379.407 184.496 379.22 184.627 379.033 184.59C378.257 184.459 377.491 184.291 376.743 184.104C376.715 184.104 376.687 184.085 376.669 184.076H376.678ZM381.229 184.879C381.108 184.814 381.033 184.683 381.042 184.534C381.061 184.347 381.229 184.206 381.425 184.225C382.173 184.3 382.939 184.356 383.715 184.384C383.902 184.384 384.051 184.552 384.051 184.749C384.051 184.935 383.883 185.085 383.687 185.085C382.902 185.057 382.117 185.001 381.36 184.917C381.313 184.917 381.276 184.898 381.238 184.879H381.229ZM363.417 175.44C363.361 175.412 363.314 175.365 363.277 175.309C362.856 174.598 362.529 173.86 362.305 173.122C362.249 172.935 362.351 172.748 362.538 172.692C362.725 172.636 362.912 172.739 362.968 172.925C363.174 173.608 363.482 174.29 363.875 174.954C363.968 175.122 363.921 175.327 363.753 175.43C363.641 175.496 363.519 175.496 363.417 175.43V175.44ZM441.367 215.33C441.302 215.292 441.246 215.236 441.208 215.161C441.133 214.984 441.208 214.778 441.386 214.703C442.077 214.404 442.76 214.068 443.423 213.685C443.591 213.591 443.797 213.647 443.9 213.816C443.993 213.984 443.937 214.189 443.769 214.292C443.087 214.685 442.376 215.04 441.666 215.348C441.563 215.395 441.461 215.386 441.367 215.339V215.33ZM385.846 185.066C385.734 185.01 385.659 184.898 385.659 184.767C385.659 184.571 385.808 184.421 385.995 184.412C386.752 184.393 387.519 184.356 388.285 184.3C388.472 184.281 388.64 184.431 388.659 184.618C388.677 184.805 388.528 184.973 388.341 184.992C387.556 185.048 386.78 185.094 386.014 185.104C385.958 185.104 385.893 185.094 385.846 185.066ZM362.127 171.056C362.015 171 361.94 170.888 361.94 170.748C361.94 169.963 362.034 169.159 362.249 168.364C362.295 168.178 362.491 168.065 362.678 168.121C362.865 168.168 362.977 168.364 362.921 168.551C362.725 169.28 362.632 170.019 362.632 170.748C362.632 170.944 362.482 171.094 362.286 171.103C362.23 171.103 362.174 171.094 362.118 171.066L362.127 171.056ZM390.462 184.711C390.369 184.664 390.294 184.562 390.276 184.449C390.247 184.263 390.388 184.085 390.575 184.057C391.322 183.954 392.089 183.842 392.846 183.702C393.032 183.664 393.219 183.795 393.247 183.982C393.285 184.169 393.154 184.356 392.967 184.384C392.201 184.524 391.425 184.646 390.659 184.749C390.584 184.758 390.509 184.749 390.453 184.711H390.462ZM445.376 213.04C445.376 213.04 445.292 212.984 445.255 212.937C445.143 212.778 445.18 212.563 445.33 212.451C445.937 212.012 446.535 211.526 447.105 211.021C447.245 210.89 447.47 210.909 447.591 211.049C447.722 211.189 447.703 211.414 447.563 211.535C446.974 212.058 446.358 212.554 445.731 213.012C445.619 213.096 445.479 213.096 445.367 213.04H445.376ZM395.014 183.879C394.93 183.833 394.864 183.748 394.836 183.655C394.789 183.468 394.911 183.281 395.098 183.234C395.836 183.057 396.584 182.87 397.322 182.655C397.509 182.599 397.696 182.711 397.752 182.898C397.808 183.085 397.696 183.272 397.509 183.328C396.761 183.543 396.004 183.739 395.247 183.907C395.163 183.926 395.079 183.907 395.004 183.879H395.014ZM363.277 166.626C363.108 166.533 363.043 166.327 363.136 166.159C363.491 165.495 363.921 164.822 364.426 164.177C364.548 164.028 364.762 164 364.912 164.112C365.061 164.233 365.09 164.448 364.977 164.598C364.501 165.215 364.09 165.85 363.753 166.486C363.66 166.654 363.454 166.72 363.286 166.635L363.277 166.626ZM448.825 209.965C448.825 209.965 448.778 209.937 448.75 209.909C448.61 209.778 448.601 209.563 448.731 209.413C449.245 208.862 449.731 208.273 450.199 207.666C450.311 207.516 450.535 207.488 450.685 207.6C450.834 207.712 450.862 207.937 450.75 208.086C450.273 208.712 449.769 209.311 449.245 209.881C449.133 210.002 448.965 210.021 448.825 209.956V209.965ZM399.471 182.627C399.397 182.59 399.331 182.515 399.303 182.431C399.238 182.253 399.341 182.057 399.518 181.991C400.247 181.748 400.976 181.487 401.686 181.216C401.864 181.15 402.069 181.234 402.135 181.412C402.2 181.59 402.116 181.795 401.939 181.861C401.219 182.141 400.481 182.403 399.742 182.646C399.649 182.674 399.556 182.664 399.471 182.627ZM366.071 162.972C366.071 162.972 366.015 162.934 365.987 162.906C365.856 162.766 365.856 162.551 365.987 162.411C366.519 161.878 367.108 161.355 367.734 160.841C367.884 160.719 368.099 160.738 368.22 160.887C368.342 161.037 368.314 161.252 368.174 161.373C367.566 161.869 366.996 162.383 366.473 162.897C366.361 163.009 366.202 163.028 366.071 162.962V162.972ZM451.638 206.301C451.638 206.301 451.619 206.301 451.61 206.292C451.451 206.189 451.395 205.974 451.498 205.815C451.862 205.245 452.208 204.647 452.516 204.039L452.628 203.834C452.712 203.665 452.927 203.6 453.096 203.684C453.264 203.768 453.329 203.983 453.245 204.151L453.133 204.366C452.806 204.983 452.451 205.6 452.086 206.189C451.993 206.348 451.787 206.395 451.628 206.31L451.638 206.301ZM403.798 180.973C403.733 180.935 403.677 180.879 403.64 180.804C403.565 180.627 403.64 180.421 403.817 180.346C404.518 180.038 405.219 179.711 405.901 179.374C406.069 179.29 406.284 179.356 406.368 179.533C406.452 179.702 406.378 179.916 406.21 180.001C405.518 180.337 404.808 180.674 404.097 180.982C403.995 181.029 403.882 181.019 403.798 180.973ZM369.65 160.056C369.603 160.028 369.557 159.99 369.529 159.943C369.416 159.785 369.463 159.57 369.622 159.457C370.248 159.028 370.912 158.607 371.603 158.205C371.772 158.112 371.977 158.168 372.08 158.327C372.173 158.495 372.117 158.7 371.958 158.803C371.286 159.196 370.631 159.607 370.024 160.028C369.912 160.102 369.781 160.102 369.669 160.046L369.65 160.056ZM407.948 178.926C407.892 178.898 407.836 178.851 407.808 178.786C407.714 178.617 407.78 178.402 407.948 178.318C408.621 177.944 409.284 177.561 409.929 177.169C410.088 177.066 410.303 177.122 410.406 177.281C410.508 177.44 410.452 177.655 410.293 177.758C409.639 178.159 408.957 178.552 408.284 178.926C408.181 178.982 408.051 178.982 407.957 178.926H407.948ZM453.75 202.179C453.591 202.095 453.526 201.908 453.591 201.74C453.881 201.039 454.133 200.319 454.367 199.59C454.423 199.404 454.619 199.301 454.806 199.366C454.993 199.422 455.096 199.619 455.03 199.805C454.797 200.553 454.535 201.292 454.236 202.011C454.161 202.189 453.965 202.273 453.787 202.198C453.778 202.198 453.769 202.198 453.759 202.179H453.75ZM302.634 121.829C302.587 121.801 302.54 121.764 302.503 121.717C302.4 121.558 302.438 121.343 302.596 121.24C302.625 121.222 303.307 120.764 304.606 120.007C304.774 119.913 304.98 119.969 305.082 120.128C305.176 120.296 305.12 120.502 304.961 120.605C303.69 121.353 302.989 121.811 302.989 121.811C302.877 121.885 302.746 121.885 302.634 121.829ZM373.65 157.71C373.585 157.682 373.538 157.626 373.5 157.56C373.416 157.392 373.482 157.177 373.65 157.093C374.332 156.747 375.042 156.411 375.762 156.093C375.94 156.018 376.145 156.093 376.22 156.27C376.295 156.448 376.22 156.654 376.042 156.728C375.332 157.046 374.631 157.373 373.968 157.71C373.865 157.766 373.743 157.756 373.65 157.71ZM411.901 176.505C411.854 176.477 411.807 176.44 411.779 176.393C411.667 176.234 411.714 176.019 411.873 175.907C412.508 175.477 413.135 175.028 413.742 174.57C413.891 174.458 414.116 174.486 414.228 174.636C414.34 174.785 414.312 175.01 414.163 175.122C413.546 175.589 412.91 176.047 412.265 176.486C412.153 176.561 412.022 176.561 411.91 176.505H411.901ZM455.133 197.768C455.002 197.693 454.918 197.544 454.955 197.385C455.114 196.646 455.254 195.889 455.348 195.132C455.376 194.945 455.544 194.805 455.74 194.833C455.927 194.861 456.068 195.029 456.04 195.226C455.937 196.002 455.806 196.777 455.638 197.534C455.6 197.721 455.413 197.843 455.226 197.796C455.198 197.796 455.17 197.777 455.142 197.768H455.133ZM306.652 119.465C306.596 119.437 306.54 119.39 306.512 119.324C306.419 119.156 306.484 118.941 306.652 118.857C307.316 118.493 308.007 118.128 308.708 117.764C308.877 117.679 309.092 117.745 309.176 117.913C309.26 118.081 309.194 118.296 309.026 118.38C308.335 118.736 307.643 119.109 306.989 119.465C306.886 119.521 306.765 119.521 306.662 119.465H306.652ZM377.883 155.831C377.809 155.794 377.753 155.728 377.725 155.653C377.659 155.476 377.743 155.27 377.921 155.205C378.631 154.934 379.369 154.663 380.117 154.41C380.295 154.345 380.5 154.448 380.556 154.625C380.622 154.803 380.519 155.009 380.341 155.065C379.603 155.317 378.883 155.579 378.183 155.85C378.089 155.887 377.977 155.878 377.893 155.831H377.883ZM415.592 173.711C415.592 173.711 415.518 173.664 415.49 173.626C415.368 173.477 415.387 173.262 415.527 173.14C416.116 172.645 416.695 172.131 417.237 171.617C417.377 171.486 417.592 171.495 417.732 171.636C417.863 171.776 417.854 171.991 417.714 172.131C417.153 172.654 416.574 173.178 415.976 173.683C415.863 173.776 415.714 173.785 415.592 173.729V173.711ZM310.774 117.334C310.708 117.296 310.662 117.25 310.624 117.175C310.54 117.007 310.615 116.792 310.783 116.707C311.475 116.371 312.176 116.034 312.886 115.707C313.063 115.623 313.269 115.707 313.344 115.876C313.428 116.053 313.344 116.259 313.176 116.334C312.475 116.661 311.774 116.997 311.091 117.324C310.989 117.371 310.877 117.371 310.774 117.324V117.334ZM455.74 193.188C455.628 193.132 455.544 193.001 455.554 192.861C455.591 192.104 455.591 191.338 455.563 190.581C455.563 190.384 455.703 190.225 455.899 190.216C456.096 190.216 456.254 190.356 456.264 190.553C456.292 191.328 456.292 192.123 456.254 192.899C456.254 193.085 456.086 193.235 455.89 193.226C455.834 193.226 455.787 193.207 455.74 193.188ZM382.276 154.354C382.192 154.308 382.136 154.242 382.108 154.149C382.052 153.962 382.164 153.775 382.341 153.719C383.08 153.504 383.837 153.298 384.584 153.111C384.771 153.065 384.958 153.177 385.005 153.364C385.051 153.551 384.939 153.737 384.752 153.784C384.005 153.971 383.257 154.177 382.528 154.392C382.435 154.42 382.351 154.41 382.266 154.364L382.276 154.354ZM418.957 170.542C418.957 170.542 418.901 170.514 418.882 170.486C418.742 170.355 418.732 170.131 418.863 169.991C419.387 169.43 419.901 168.85 420.387 168.271C420.508 168.121 420.732 168.103 420.873 168.224C421.022 168.346 421.041 168.57 420.919 168.71C420.433 169.299 419.91 169.888 419.368 170.458C419.256 170.57 419.088 170.598 418.957 170.523V170.542ZM386.762 153.223C386.678 153.177 386.603 153.093 386.584 152.99C386.547 152.803 386.659 152.616 386.855 152.579C387.603 152.42 388.369 152.27 389.135 152.13C389.322 152.093 389.5 152.223 389.537 152.41C389.575 152.597 389.444 152.775 389.257 152.812C388.5 152.943 387.734 153.093 386.995 153.251C386.911 153.27 386.827 153.251 386.762 153.223ZM314.979 115.39C314.914 115.352 314.858 115.296 314.82 115.221C314.746 115.044 314.82 114.838 314.998 114.763C315.699 114.455 316.418 114.147 317.138 113.847C317.316 113.773 317.521 113.857 317.596 114.034C317.671 114.212 317.587 114.418 317.409 114.492C316.699 114.791 315.989 115.091 315.288 115.399C315.185 115.446 315.073 115.436 314.989 115.39H314.979ZM455.563 188.581C455.469 188.534 455.395 188.431 455.376 188.319C455.283 187.571 455.161 186.805 455.002 186.066C454.965 185.879 455.086 185.693 455.273 185.655C455.46 185.618 455.647 185.739 455.684 185.926C455.843 186.693 455.965 187.468 456.058 188.235C456.077 188.422 455.946 188.599 455.759 188.618C455.684 188.618 455.619 188.618 455.554 188.581H455.563ZM391.322 152.42C391.229 152.373 391.154 152.279 391.135 152.158C391.107 151.971 391.238 151.793 391.434 151.765C392.201 151.653 392.976 151.56 393.743 151.476C393.93 151.457 394.107 151.597 394.126 151.784C394.145 151.971 394.004 152.149 393.817 152.167C393.06 152.251 392.285 152.345 391.528 152.448C391.453 152.457 391.378 152.448 391.322 152.41V152.42ZM319.259 113.614C319.185 113.576 319.129 113.511 319.101 113.436C319.035 113.259 319.119 113.053 319.297 112.988C320.016 112.707 320.745 112.427 321.465 112.156C321.643 112.09 321.848 112.184 321.914 112.361C321.979 112.539 321.885 112.745 321.708 112.81C320.988 113.072 320.269 113.352 319.549 113.632C319.456 113.67 319.344 113.661 319.259 113.614ZM421.91 166.991C421.91 166.991 421.882 166.972 421.863 166.963C421.704 166.85 421.676 166.635 421.788 166.477C422.237 165.85 422.667 165.215 423.059 164.57C423.162 164.411 423.377 164.355 423.536 164.458C423.695 164.561 423.751 164.775 423.648 164.934C423.246 165.589 422.807 166.243 422.349 166.878C422.246 167.019 422.059 167.065 421.91 166.981V166.991ZM454.638 184.057C454.554 184.01 454.497 183.945 454.469 183.851C454.255 183.132 454.012 182.393 453.74 181.683C453.675 181.505 453.759 181.3 453.946 181.234C454.124 181.169 454.329 181.253 454.395 181.44C454.675 182.169 454.918 182.917 455.133 183.655C455.189 183.842 455.077 184.029 454.899 184.085C454.806 184.113 454.722 184.104 454.638 184.057ZM395.93 151.934C395.827 151.878 395.752 151.775 395.743 151.653C395.733 151.466 395.873 151.298 396.06 151.279C396.827 151.223 397.612 151.177 398.387 151.149C398.574 151.149 398.743 151.289 398.752 151.485C398.752 151.672 398.612 151.84 398.415 151.85C397.649 151.878 396.883 151.924 396.116 151.98C396.051 151.98 395.986 151.971 395.93 151.943V151.934ZM323.614 112.016C323.54 111.978 323.474 111.913 323.446 111.819C323.381 111.642 323.484 111.436 323.661 111.38C324.39 111.128 325.138 110.875 325.867 110.642C326.054 110.586 326.24 110.679 326.306 110.866C326.362 111.053 326.269 111.24 326.082 111.305C325.353 111.539 324.614 111.791 323.895 112.044C323.801 112.081 323.699 112.062 323.624 112.025L323.614 112.016ZM453.012 179.739C452.946 179.702 452.89 179.645 452.862 179.58C452.544 178.898 452.199 178.215 451.825 177.543C451.731 177.374 451.787 177.159 451.956 177.066C452.124 176.972 452.339 177.028 452.423 177.197C452.806 177.879 453.161 178.58 453.488 179.281C453.572 179.459 453.488 179.664 453.32 179.739C453.217 179.786 453.105 179.776 453.012 179.739ZM400.565 151.747C400.453 151.691 400.378 151.578 400.378 151.438C400.378 151.242 400.528 151.092 400.724 151.092C401.499 151.092 402.275 151.092 403.051 151.111C403.247 151.111 403.397 151.279 403.387 151.466C403.387 151.663 403.219 151.812 403.032 151.803C402.266 151.784 401.49 151.775 400.733 151.784C400.677 151.784 400.621 151.775 400.565 151.747ZM424.34 163.056C424.171 162.972 424.106 162.757 424.19 162.588C424.536 161.906 424.863 161.205 425.143 160.514C425.218 160.336 425.414 160.252 425.592 160.327C425.77 160.401 425.854 160.598 425.779 160.775C425.489 161.486 425.162 162.205 424.798 162.906C424.714 163.074 424.499 163.149 424.33 163.056H424.34ZM405.191 151.868C405.069 151.803 404.995 151.681 405.004 151.541C405.013 151.354 405.182 151.205 405.368 151.214C406.144 151.261 406.92 151.317 407.686 151.382C407.873 151.401 408.013 151.569 408.004 151.756C407.985 151.943 407.817 152.083 407.63 152.074C406.873 152.008 406.097 151.943 405.331 151.906C405.284 151.906 405.228 151.887 405.191 151.868ZM450.769 175.701C450.722 175.673 450.675 175.636 450.638 175.58C450.227 174.944 449.787 174.318 449.329 173.701C449.217 173.552 449.245 173.327 449.404 173.215C449.554 173.103 449.778 173.131 449.89 173.29C450.357 173.916 450.806 174.561 451.227 175.206C451.329 175.365 451.283 175.58 451.124 175.683C451.012 175.757 450.881 175.757 450.769 175.701ZM328.025 110.595C327.951 110.558 327.885 110.483 327.857 110.389C327.801 110.202 327.904 110.015 328.091 109.959C328.829 109.735 329.577 109.52 330.324 109.314C330.511 109.258 330.698 109.371 330.754 109.557C330.81 109.744 330.698 109.931 330.511 109.987C329.773 110.193 329.025 110.408 328.296 110.632C328.203 110.66 328.11 110.651 328.035 110.604L328.025 110.595ZM409.798 152.298C409.677 152.233 409.593 152.093 409.611 151.943C409.639 151.756 409.808 151.616 409.994 151.644C410.761 151.737 411.536 151.85 412.293 151.971C412.48 151.999 412.611 152.177 412.583 152.373C412.555 152.56 412.378 152.691 412.181 152.663C411.434 152.541 410.658 152.429 409.901 152.336C409.854 152.336 409.817 152.317 409.78 152.298H409.798ZM448.012 171.991C448.012 171.991 447.937 171.944 447.909 171.907C447.423 171.327 446.909 170.757 446.386 170.196C446.255 170.056 446.264 169.841 446.404 169.701C446.545 169.57 446.759 169.579 446.9 169.72C447.432 170.29 447.956 170.879 448.451 171.458C448.572 171.608 448.554 171.823 448.404 171.944C448.292 172.038 448.143 172.047 448.021 171.981L448.012 171.991ZM414.368 153.027C414.237 152.962 414.163 152.803 414.191 152.653C414.228 152.466 414.406 152.345 414.602 152.382C415.359 152.532 416.125 152.691 416.873 152.868C417.06 152.915 417.172 153.102 417.134 153.289C417.088 153.476 416.901 153.588 416.714 153.551C415.976 153.382 415.219 153.214 414.462 153.065C414.424 153.065 414.396 153.046 414.368 153.027ZM426.078 158.785C425.928 158.71 425.854 158.541 425.91 158.373C426.134 157.644 426.321 156.906 426.48 156.168C426.517 155.981 426.704 155.859 426.891 155.896C427.078 155.934 427.199 156.121 427.162 156.308C427.003 157.065 426.807 157.831 426.583 158.579C426.527 158.766 426.33 158.869 426.153 158.813C426.134 158.813 426.115 158.794 426.097 158.785H426.078ZM444.844 168.626C444.844 168.626 444.788 168.589 444.769 168.57C444.217 168.037 443.647 167.514 443.077 167.009C442.937 166.878 442.918 166.663 443.049 166.523C443.18 166.383 443.395 166.364 443.535 166.495C444.115 167.009 444.685 167.542 445.245 168.075C445.386 168.206 445.386 168.43 445.255 168.57C445.143 168.682 444.974 168.71 444.844 168.636V168.626ZM332.483 109.352C332.399 109.305 332.334 109.23 332.306 109.128C332.259 108.941 332.371 108.754 332.558 108.707C333.306 108.511 334.063 108.324 334.81 108.156C334.997 108.109 335.184 108.23 335.231 108.417C335.278 108.604 335.156 108.791 334.969 108.838C334.221 109.015 333.474 109.202 332.726 109.389C332.642 109.408 332.549 109.399 332.474 109.361L332.483 109.352ZM418.873 154.083C418.732 154.009 418.658 153.85 418.695 153.681C418.742 153.494 418.938 153.382 419.125 153.438C419.873 153.644 420.63 153.859 421.359 154.083C421.545 154.139 421.648 154.336 421.592 154.513C421.536 154.7 421.34 154.803 421.162 154.738C420.433 154.513 419.695 154.298 418.947 154.102C418.919 154.102 418.901 154.083 418.873 154.074V154.083ZM441.376 165.561C441.376 165.561 441.339 165.533 441.32 165.523C440.732 165.037 440.124 164.561 439.517 164.103C439.367 163.99 439.33 163.766 439.451 163.617C439.563 163.467 439.788 163.43 439.937 163.551C440.554 164.018 441.171 164.504 441.769 164.99C441.919 165.112 441.937 165.327 441.816 165.476C441.713 165.607 441.526 165.635 441.386 165.561H441.376ZM423.293 155.448C423.143 155.373 423.069 155.186 423.125 155.027C423.19 154.85 423.386 154.747 423.564 154.812C424.293 155.065 425.031 155.336 425.742 155.625C425.919 155.691 426.013 155.896 425.938 156.074C425.872 156.252 425.667 156.336 425.489 156.27C424.779 155.99 424.05 155.719 423.33 155.467C423.312 155.467 423.302 155.457 423.284 155.448H423.293ZM437.685 162.766C437.685 162.766 437.657 162.747 437.648 162.747C437.021 162.308 436.377 161.887 435.732 161.476C435.573 161.373 435.526 161.158 435.629 161C435.732 160.841 435.947 160.794 436.106 160.897C436.76 161.308 437.405 161.747 438.04 162.187C438.199 162.299 438.236 162.514 438.124 162.673C438.021 162.822 437.835 162.859 437.676 162.785L437.685 162.766ZM427.601 157.14C427.442 157.055 427.368 156.859 427.442 156.691C427.517 156.513 427.723 156.439 427.9 156.513C428.611 156.822 429.321 157.149 430.012 157.485C430.19 157.569 430.255 157.775 430.171 157.953C430.087 158.121 429.882 158.196 429.704 158.112C429.012 157.775 428.312 157.457 427.611 157.149C427.611 157.149 427.592 157.149 427.592 157.14H427.601ZM433.788 160.28C433.788 160.28 433.788 160.28 433.779 160.28C433.124 159.897 432.442 159.523 431.769 159.158C431.601 159.065 431.536 158.859 431.629 158.691C431.723 158.523 431.928 158.457 432.096 158.551C432.779 158.915 433.461 159.299 434.134 159.682C434.302 159.775 434.358 159.99 434.255 160.158C434.162 160.317 433.956 160.373 433.797 160.289L433.788 160.28ZM336.988 108.296C336.904 108.249 336.829 108.165 336.81 108.062C336.773 107.875 336.894 107.688 337.081 107.651C337.838 107.492 338.605 107.333 339.361 107.193C339.548 107.155 339.735 107.277 339.763 107.473C339.801 107.66 339.679 107.847 339.483 107.875C338.735 108.015 337.969 108.174 337.221 108.333C337.137 108.352 337.053 108.333 336.988 108.305V108.296ZM427.003 154.27C426.882 154.205 426.807 154.074 426.816 153.924C426.9 153.177 426.938 152.41 426.947 151.653C426.947 151.457 427.106 151.307 427.293 151.307C427.48 151.307 427.639 151.466 427.639 151.653C427.639 152.429 427.592 153.223 427.508 153.999C427.489 154.186 427.321 154.326 427.125 154.308C427.078 154.308 427.041 154.289 427.003 154.27ZM341.539 107.436C341.446 107.389 341.38 107.296 341.361 107.184C341.333 106.997 341.455 106.819 341.651 106.782C342.417 106.651 343.184 106.539 343.95 106.426C344.137 106.398 344.315 106.529 344.343 106.726C344.371 106.912 344.24 107.09 344.044 107.118C343.287 107.23 342.52 107.342 341.763 107.473C341.689 107.483 341.614 107.473 341.548 107.436H341.539ZM427.031 149.653C426.928 149.597 426.854 149.504 426.844 149.382C426.779 148.634 426.667 147.877 426.527 147.13C426.489 146.943 426.611 146.756 426.807 146.728C426.994 146.69 427.181 146.812 427.209 147.008C427.358 147.775 427.47 148.56 427.536 149.326C427.555 149.513 427.414 149.691 427.218 149.7C427.153 149.7 427.078 149.7 427.022 149.663L427.031 149.653ZM346.118 106.782C346.025 106.735 345.95 106.632 345.931 106.511C345.913 106.324 346.043 106.146 346.24 106.127C347.006 106.034 347.782 105.95 348.548 105.875C348.735 105.856 348.913 105.997 348.931 106.183C348.95 106.37 348.81 106.548 348.623 106.567C347.857 106.641 347.09 106.726 346.333 106.81C346.258 106.81 346.193 106.81 346.128 106.772L346.118 106.782ZM350.726 106.342C350.623 106.286 350.548 106.183 350.539 106.062C350.529 105.875 350.669 105.707 350.856 105.688C351.632 105.632 352.408 105.585 353.174 105.548C353.361 105.548 353.529 105.688 353.539 105.875C353.539 106.062 353.398 106.23 353.211 106.24C352.454 106.277 351.679 106.324 350.912 106.37C350.847 106.37 350.782 106.361 350.726 106.333V106.342ZM426.162 145.12C426.078 145.073 426.013 145.008 425.994 144.905C425.788 144.186 425.545 143.457 425.265 142.746C425.199 142.569 425.284 142.363 425.461 142.298C425.639 142.232 425.844 142.316 425.91 142.494C426.19 143.232 426.442 143.98 426.657 144.718C426.713 144.905 426.601 145.092 426.424 145.148C426.33 145.176 426.246 145.158 426.162 145.12ZM355.342 106.127C355.23 106.071 355.155 105.959 355.155 105.828C355.155 105.632 355.305 105.483 355.492 105.473C356.258 105.454 357.043 105.454 357.819 105.454C358.015 105.454 358.165 105.613 358.165 105.8C358.165 105.997 358.006 106.146 357.819 106.146C357.052 106.146 356.277 106.146 355.51 106.165C355.445 106.165 355.389 106.155 355.342 106.127ZM424.508 140.802C424.443 140.765 424.386 140.718 424.358 140.643C424.041 139.97 423.676 139.288 423.302 138.615C423.209 138.447 423.265 138.232 423.433 138.139C423.601 138.045 423.807 138.101 423.91 138.269C424.302 138.952 424.667 139.653 424.994 140.344C425.078 140.522 424.994 140.727 424.826 140.812C424.723 140.858 424.611 140.858 424.517 140.812L424.508 140.802ZM359.968 106.146C359.856 106.09 359.781 105.969 359.781 105.828C359.781 105.632 359.95 105.483 360.136 105.492C360.912 105.511 361.688 105.548 362.454 105.595C362.65 105.604 362.791 105.772 362.781 105.959C362.772 106.146 362.604 106.296 362.417 106.286C361.66 106.24 360.884 106.212 360.118 106.183C360.062 106.183 360.015 106.165 359.968 106.146ZM422.228 136.783C422.181 136.755 422.134 136.718 422.097 136.671C421.686 136.045 421.237 135.419 420.779 134.793C420.667 134.643 420.695 134.419 420.854 134.307C421.003 134.194 421.228 134.222 421.34 134.381C421.807 135.007 422.265 135.652 422.686 136.288C422.788 136.447 422.751 136.662 422.583 136.765C422.471 136.839 422.34 136.839 422.228 136.783ZM364.585 106.408C364.463 106.342 364.389 106.212 364.398 106.071C364.417 105.884 364.585 105.735 364.772 105.754C365.538 105.819 366.323 105.894 367.08 105.978C367.267 105.997 367.407 106.174 367.389 106.361C367.37 106.548 367.192 106.688 367.005 106.669C366.248 106.585 365.473 106.511 364.716 106.445C364.669 106.445 364.622 106.426 364.585 106.408ZM369.183 106.912C369.061 106.847 368.977 106.707 368.996 106.557C369.024 106.37 369.202 106.23 369.388 106.258C370.155 106.361 370.921 106.483 371.687 106.604C371.874 106.632 372.005 106.81 371.977 107.006C371.949 107.193 371.772 107.324 371.575 107.296C370.818 107.174 370.052 107.053 369.295 106.95C369.258 106.95 369.211 106.931 369.183 106.912ZM419.461 133.082C419.461 133.082 419.387 133.035 419.359 132.998C418.882 132.419 418.368 131.839 417.845 131.269C417.714 131.129 417.723 130.904 417.863 130.774C418.003 130.643 418.228 130.652 418.349 130.792C418.882 131.372 419.396 131.961 419.882 132.54C420.003 132.69 419.985 132.905 419.835 133.026C419.723 133.12 419.574 133.129 419.452 133.063L419.461 133.082ZM373.753 107.67C373.622 107.604 373.547 107.455 373.575 107.296C373.613 107.109 373.79 106.987 373.986 107.025C374.743 107.174 375.51 107.333 376.257 107.501C376.444 107.539 376.566 107.726 376.519 107.913C376.482 108.099 376.295 108.221 376.108 108.174C375.36 108.006 374.603 107.847 373.856 107.707C373.818 107.707 373.79 107.688 373.762 107.67H373.753ZM416.34 129.68C416.34 129.68 416.284 129.643 416.256 129.615C415.723 129.082 415.162 128.549 414.592 128.026C414.452 127.895 414.443 127.68 414.574 127.54C414.705 127.4 414.919 127.39 415.06 127.521C415.639 128.054 416.2 128.596 416.742 129.129C416.882 129.26 416.882 129.484 416.742 129.624C416.63 129.736 416.461 129.755 416.331 129.689L416.34 129.68ZM378.267 108.679C378.126 108.604 378.052 108.445 378.089 108.286C378.136 108.099 378.323 107.987 378.51 108.034C379.257 108.221 380.014 108.427 380.753 108.632C380.939 108.688 381.042 108.875 380.995 109.062C380.939 109.249 380.753 109.352 380.566 109.305C379.827 109.1 379.08 108.894 378.341 108.716C378.313 108.716 378.285 108.698 378.267 108.688V108.679ZM412.929 126.549C412.929 126.549 412.882 126.521 412.863 126.502C412.293 126.016 411.695 125.521 411.088 125.035C410.938 124.913 410.91 124.699 411.032 124.549C411.153 124.399 411.368 124.371 411.518 124.493C412.125 124.979 412.733 125.484 413.312 125.97C413.462 126.091 413.471 126.315 413.349 126.456C413.247 126.577 413.069 126.615 412.929 126.54V126.549ZM382.715 109.931C382.566 109.857 382.491 109.679 382.547 109.52C382.603 109.333 382.799 109.23 382.986 109.296C383.724 109.529 384.463 109.763 385.192 110.015C385.379 110.081 385.472 110.277 385.407 110.455C385.341 110.632 385.145 110.735 384.967 110.67C384.248 110.427 383.509 110.184 382.78 109.959C382.762 109.959 382.743 109.941 382.724 109.931H382.715ZM409.312 123.661C409.312 123.661 409.284 123.642 409.265 123.633C408.798 123.287 408.322 122.932 407.836 122.586C407.695 122.483 407.546 122.381 407.406 122.278C407.247 122.166 407.209 121.951 407.322 121.792C407.434 121.633 407.649 121.596 407.808 121.708C407.957 121.811 408.097 121.913 408.247 122.016C408.733 122.362 409.219 122.726 409.686 123.072C409.836 123.184 409.873 123.409 409.751 123.558C409.649 123.698 409.462 123.736 409.312 123.661ZM387.089 111.427C386.939 111.343 386.864 111.165 386.921 110.997C386.986 110.819 387.192 110.726 387.369 110.791C388.089 111.062 388.818 111.343 389.537 111.632C389.715 111.707 389.799 111.903 389.733 112.081C389.659 112.259 389.462 112.343 389.285 112.268C388.575 111.978 387.855 111.698 387.135 111.436C387.126 111.436 387.107 111.427 387.098 111.417L387.089 111.427ZM405.537 120.979C405.537 120.979 405.518 120.969 405.499 120.96C404.864 120.53 404.219 120.109 403.574 119.698C403.415 119.595 403.369 119.38 403.471 119.222C403.574 119.063 403.789 119.016 403.948 119.119C404.593 119.53 405.247 119.96 405.892 120.39C406.051 120.493 406.097 120.717 405.985 120.876C405.882 121.025 405.696 121.072 405.537 120.988V120.979ZM391.369 113.165C391.21 113.081 391.135 112.885 391.21 112.717C391.285 112.539 391.49 112.464 391.668 112.539C392.378 112.847 393.089 113.175 393.78 113.502C393.958 113.586 394.032 113.791 393.948 113.96C393.864 114.137 393.659 114.212 393.49 114.128C392.799 113.801 392.089 113.483 391.388 113.175C391.388 113.175 391.369 113.175 391.369 113.165ZM401.63 118.493C401.63 118.493 401.621 118.493 401.612 118.483C400.957 118.091 400.285 117.698 399.621 117.315C399.453 117.221 399.397 117.007 399.49 116.838C399.584 116.67 399.799 116.623 399.967 116.707C400.63 117.091 401.313 117.483 401.967 117.885C402.135 117.988 402.182 118.193 402.088 118.362C401.995 118.521 401.789 118.577 401.63 118.493ZM395.556 115.137C395.388 115.053 395.322 114.848 395.406 114.67C395.49 114.502 395.705 114.427 395.873 114.511C396.565 114.857 397.247 115.212 397.939 115.586C398.107 115.679 398.172 115.885 398.079 116.053C397.986 116.221 397.78 116.287 397.612 116.193C396.929 115.829 396.247 115.474 395.565 115.128L395.556 115.137Z" fill="white"/>
<path d="M234.3 88.5936C234.3 88.5936 247.44 114.389 255.617 122.324C263.794 130.259 267.037 137.325 267.037 137.325L266.289 142.709C266.289 142.709 252.159 130.362 245.711 125.895C239.262 121.418 226.067 99.5475 226.067 99.5475L234.309 88.603L234.3 88.5936Z" fill="#FB9391"/>
<path d="M226.403 56.405C226.889 59.1528 226.132 62.1062 227.197 64.6858C228.609 68.0972 232.674 69.6393 234.664 72.7423C236.758 75.9948 236.347 80.6213 239.103 83.341C240.085 84.313 241.365 84.9112 242.384 85.8271C244.757 87.9394 245.421 91.7247 243.926 94.5192C242.253 97.6315 238.524 99.0709 235.01 99.4354C231.496 99.7999 227.917 99.3513 224.431 99.9027C220.88 100.463 217.525 102.043 213.936 102.314C208.974 102.697 204.049 100.463 200.423 97.0614C196.797 93.65 194.357 89.1544 192.61 84.4906C191.946 82.7148 191.367 80.9016 191.049 79.023C189.844 71.7329 192.797 64.4054 196.432 57.9845C198.096 55.0498 200.011 52.1057 202.89 50.3486C209.432 46.367 224.721 46.8904 226.403 56.3863V56.405Z" fill="#F96058"/>
<path d="M190.46 98.024C190.46 98.024 186.18 103.763 182.61 103.763C179.04 103.763 166.91 88.5936 166.91 88.5936L164.059 93.192C164.059 93.192 174.227 115.361 183.507 115.539C192.787 115.717 199.74 105.37 199.563 104.838C199.385 104.305 193.498 98.0334 193.498 98.0334H190.46V98.024Z" fill="#FB9391"/>
<path d="M200.628 130.437C200.628 130.437 195.096 137.148 192.591 144.999C190.096 152.849 197.535 214.021 197.535 214.021H208.6C208.6 214.021 213.646 163.037 213.646 162.299C213.646 160.962 218.506 183.487 224.805 199.422C233.421 221.227 248.047 242.153 248.047 242.153L256.589 238.592C256.589 238.592 247 208.189 241.543 191.824C237.094 178.486 237.692 163.57 235.048 152.13C232.646 141.765 229.851 133.746 226.618 130.446L213.637 131.25L200.61 130.446L200.628 130.437Z" fill="#0B0755"/>
<path d="M200.628 126.951V130.428C200.628 130.428 207.226 136.849 226.637 130.428L226.683 126.951L209.647 125.876L200.638 126.951H200.628Z" fill="#060633"/>
<path d="M207.226 84.9859C207.226 84.9859 200.348 84.7336 196.862 87.1356C194.367 88.8553 188.853 98.5755 188.853 98.5755L195.18 103.95C195.18 103.95 193.675 109.81 199.563 112.754L200.628 126.942C200.628 126.942 211.693 133.362 226.674 126.942C226.674 126.942 228.711 106.249 229.721 107.342C232.113 109.959 233.337 111.399 233.337 111.399L243.122 100.781C243.122 100.781 234.814 89.4441 231.319 87.5188C226.674 84.9579 216.684 84.3597 216.684 84.3597L207.217 84.9673L207.226 84.9859Z" fill="white"/>
<path d="M198.74 66.1999C198.74 66.1999 197.825 64.8073 197.096 65.3681C195.236 66.7981 197.236 68.7234 198.469 69.144L198.74 66.1999Z" fill="#FB9391"/>
<path d="M210.488 49.3952C216.16 49.7877 220.712 54.4515 220.983 60.1341C221.076 62.0034 220.702 63.7698 219.992 65.3493C218.413 69.2841 217.104 72.4525 215.487 74.7611C213.852 77.0976 213.095 79.9389 213.488 82.7615L213.88 85.6121C207.273 88.874 204.404 87.444 204.404 87.444L204.441 78.9763C197.32 78.0977 198.329 64.9475 198.348 61.0594H198.357C198.357 60.9192 198.348 60.7697 198.357 60.6201C198.385 54.1151 203.899 48.9185 210.488 49.3765V49.3952Z" fill="#FB9391"/>
<path d="M211.329 60.8444C213.31 63.209 215.413 65.5269 216.889 68.2187C217.048 68.5177 218.207 70.7422 217.871 71.0039C219.712 69.6206 220.899 67.5364 221.898 65.4615C223.637 61.8538 223.151 57.5171 221.067 54.1618C219.001 50.8439 215.525 49.1148 211.693 48.7877C207.581 48.4325 203.086 49.7971 200.553 53.2178C198.18 56.433 198.049 60.5079 197.768 64.3306C198.096 60.0406 203.871 56.8629 207.338 55.3675C207.235 55.4142 209.89 59.0873 210.03 59.2649C210.45 59.7976 210.88 60.3304 211.329 60.8538V60.8444Z" fill="#F96058"/>
<path d="M216.534 68.5084C216.721 68.1438 217.039 67.8635 217.422 67.7139C218.207 67.4055 219.59 67.0597 220.525 68.013C221.908 69.4056 219.095 73.088 216.338 71.2375C216.338 71.2375 215.553 70.443 216.534 68.499V68.5084Z" fill="#FB9391"/>
<path d="M200.619 66.312C200.572 65.7699 200.965 65.2839 201.516 65.2372C202.058 65.1904 202.544 65.583 202.591 66.1344C202.638 66.6765 202.245 67.1625 201.694 67.2092C201.152 67.256 200.666 66.8634 200.619 66.312Z" fill="#060633"/>
<path d="M209.936 67.3962C209.89 66.8541 210.282 66.3681 210.833 66.3214C211.376 66.2747 211.861 66.6672 211.908 67.2186C211.955 67.7607 211.562 68.2467 211.011 68.2935C210.469 68.3402 209.983 67.9477 209.936 67.3962Z" fill="#060633"/>
<path d="M202.357 73.0881C202.357 73.0881 203.544 72.0133 204.058 72.1161C204.572 72.2189 204.899 72.8077 204.899 72.8077C204.899 72.8077 205.151 72.1815 205.768 72.1254C206.376 72.0693 207.834 73.6208 207.834 73.6208C207.834 73.6208 206.301 76.4527 204.413 76.2565C202.497 76.0602 202.395 73.2376 202.395 73.2376L202.357 73.1068V73.0881Z" fill="#FA7267"/>
<path d="M212.889 65.9382C213.011 65.9382 213.123 65.8915 213.207 65.798C213.357 65.6298 213.338 65.3681 213.16 65.2185C213.114 65.1718 211.871 64.1344 210.03 64.1811C209.805 64.1811 209.628 64.3774 209.628 64.6017C209.628 64.826 209.843 65.0129 210.048 65.0036C211.581 64.9662 212.609 65.8354 212.618 65.8447C212.693 65.9102 212.787 65.9382 212.88 65.9475L212.889 65.9382Z" fill="#060633"/>
<path d="M203.198 64.0782C203.31 64.0502 203.413 63.9754 203.469 63.8633C203.572 63.6576 203.497 63.4146 203.292 63.3118C203.236 63.2838 201.796 62.5548 200.002 63.0408C199.787 63.0969 199.656 63.3305 199.712 63.5455C199.768 63.7604 200.002 63.8913 200.217 63.8352C201.694 63.4333 202.899 64.0315 202.909 64.0408C203.002 64.0876 203.095 64.0969 203.189 64.0782H203.198Z" fill="#060633"/>
<path d="M205.478 71.144C204.31 70.9571 203.927 70.0785 203.89 69.5738C203.89 69.4897 203.908 69.3963 203.965 69.3308C205.021 68.0597 204.918 66.1811 204.918 66.1624C204.908 65.9755 205.049 65.8073 205.245 65.7979C205.432 65.7886 205.6 65.9288 205.609 66.125C205.609 66.2092 205.721 68.1719 204.6 69.6486C204.665 69.9196 204.946 70.5365 206.058 70.4804C206.254 70.4804 206.413 70.6206 206.422 70.8075C206.422 70.9945 206.282 71.1627 206.095 71.1721C205.871 71.1814 205.665 71.1721 205.478 71.144Z" fill="#EA6868"/>
<path d="M202.357 73.0881L207.824 73.6115C207.824 73.6115 205.964 75.1443 204.488 75.0882C203.011 75.0322 202.348 73.0975 202.348 73.0975L202.357 73.0881Z" fill="#FAFAFC"/>
<path d="M267.028 137.316C267.028 137.316 269.588 140.419 270.822 140.886C272.056 141.354 274.439 142.615 274.626 142.083C274.812 141.55 271.588 139.578 271.57 139.138C271.56 138.699 269.99 138.129 269.99 138.129L267.028 137.316Z" fill="#FB9391"/>
<path d="M217.665 110.81C222.684 110.81 224.777 105.791 224.796 105.744C224.833 105.651 224.796 105.538 224.693 105.501C224.599 105.464 224.487 105.501 224.45 105.604C224.431 105.651 222.431 110.436 217.665 110.436C212.899 110.436 211.039 106.959 211.02 106.922C210.974 106.828 210.861 106.791 210.768 106.838C210.675 106.884 210.637 106.997 210.684 107.09C210.703 107.127 212.646 110.8 217.656 110.8L217.665 110.81Z" fill="#7C9AF2"/>
<path d="M195.18 104.146C195.273 104.146 195.357 104.08 195.367 103.978C195.367 103.94 195.806 100.594 198.395 98.1549C198.469 98.0802 198.469 97.968 198.395 97.8932C198.32 97.8185 198.208 97.8185 198.133 97.8932C195.441 100.426 195.012 103.8 194.993 103.94C194.984 104.043 195.058 104.137 195.152 104.146H195.17H195.18Z" fill="#7C9AF2"/>
<path d="M206.507 131.456C206.507 131.989 206.637 132.493 206.862 132.932C207.404 133.998 208.506 134.727 209.777 134.727C210.918 134.727 211.918 134.138 212.506 133.26C212.852 132.746 213.048 132.119 213.048 131.456C213.048 131.372 213.048 131.278 213.039 131.194C213.002 130.689 212.843 130.213 212.6 129.801C212.03 128.829 210.983 128.185 209.777 128.185C208.824 128.185 207.974 128.596 207.366 129.241C206.974 129.671 206.693 130.203 206.572 130.802C206.525 131.017 206.507 131.231 206.507 131.456ZM211.534 131.101C211.553 131.213 211.572 131.334 211.572 131.456C211.572 132.437 210.768 133.241 209.787 133.241C208.806 133.241 208.002 132.437 208.002 131.456C208.002 131.26 208.039 131.073 208.095 130.895C208.329 130.185 209.002 129.671 209.787 129.671C210.656 129.671 211.376 130.287 211.534 131.11V131.101Z" fill="#BDD1F9"/>
<path d="M157.826 86.93C158.284 86.0047 160.284 86.0047 160.564 85.0234C160.91 84.5374 161.237 84.042 161.546 83.528C161.732 83.2102 161.873 82.8924 161.994 82.5559C162.779 83.3691 164.162 84.5374 164.162 84.5374C164.162 84.5374 161.798 80.3876 162.77 80.3128C163.742 80.2474 165.471 83.2195 166.274 84.6963C168.891 89.4722 168.564 91.1545 168.564 91.1545L165.966 94.6594C163.443 93.865 160.134 91.1078 158.434 89.3601C158.845 88.9208 157.555 87.4534 157.826 86.9113V86.93Z" fill="#FB9391"/>
<path d="M172.3 75.6932L175.23 76.1285L177.055 63.8421L174.125 63.4068L172.3 75.6932Z" fill="#F96058"/>
<path d="M159.62 93.5881L163.558 94.1738L166.529 74.1962L162.591 73.6105L159.62 93.5881Z" fill="#060633"/>
<path d="M156.944 73.3879L172.307 75.6732L174.134 63.3871L158.771 61.1019L156.944 73.3879Z" fill="white"/>
<path d="M158.77 61.1063C158.77 61.1063 144.154 59.1809 134.64 49.9655L130.584 77.238C130.584 77.238 138.649 70.6675 156.948 73.3873L158.77 61.1063Z" fill="#F96058"/>
<path d="M129.748 77.1193L130.589 77.2444L134.645 49.9728L133.804 49.8477L129.748 77.1193Z" fill="#0B0755"/>
<path d="M161.471 81.8924C161.471 81.8924 164.387 85.3411 163.957 85.8085C163.527 86.2758 160.658 84.1261 160.686 84.1728C160.714 84.2196 163.331 86.958 162.975 87.7805C162.62 88.603 159.433 85.9767 159.433 85.9767C159.433 85.9767 162.078 88.36 161.807 88.9114C161.536 89.4629 158.751 87.4534 158.611 87.6403C158.471 87.8273 160.985 89.3694 160.676 90.0704C160.368 90.7713 156.733 88.7245 156.695 87.8646C156.658 87.0048 157.508 86.7805 157.508 86.7805C157.508 86.7805 157.602 85.3318 158.34 85.0327C158.34 85.0327 159.162 83.2195 160.022 83.4251C160.022 83.4251 160.032 81.6867 161.471 81.883V81.8924Z" fill="#E57A7A"/>
<path d="M312.334 239.359L328.455 244.126L332.511 230.387C334.829 230.246 337.1 229.854 339.296 229.228L347.585 241.574L361.538 232.209L353.669 220.489C355.09 218.984 356.361 217.33 357.473 215.545L370.51 219.395L375.276 203.273L362.239 199.422C362.277 197.319 362.108 195.235 361.735 193.198L374.706 187.637L368.08 172.187L354.417 178.047C352.912 176.328 351.221 174.757 349.352 173.393L353.417 159.654L337.296 154.887L333.595 167.402C330.035 167.065 326.502 167.346 323.138 168.168L315.381 156.616L301.428 165.981L308.419 176.393C306.68 178.113 305.138 180.038 303.821 182.15L292.457 178.795L287.69 194.917L299.055 198.273C299.008 200.768 299.26 203.226 299.783 205.61L288.251 210.554L294.877 226.003L307.662 220.526C310.035 223.05 312.848 225.199 316.026 226.854L312.325 239.368L312.334 239.359ZM314.811 194.16C317.4 185.412 326.586 180.412 335.334 183.001C344.081 185.59 349.081 194.777 346.492 203.525C343.903 212.273 334.717 217.274 325.969 214.685C317.222 212.096 312.222 202.908 314.811 194.16Z" fill="#7C9AF2"/>
<path d="M119.855 264.818L139.986 268.753L143.341 251.584C146.135 251.154 148.854 250.416 151.452 249.397L162.938 263.444L178.816 250.453L167.91 237.116C169.461 235.125 170.816 232.966 171.966 230.667L188.245 233.845L192.18 213.713L175.9 210.535C175.704 207.974 175.255 205.46 174.573 203.03L189.694 194.777L179.872 176.767L163.947 185.459C161.919 183.543 159.686 181.832 157.256 180.384L160.611 163.215L140.481 159.28L137.425 174.916C133.051 174.916 128.799 175.664 124.799 177.056L114.052 163.916L98.174 176.907L107.865 188.758C105.949 191.039 104.295 193.562 102.94 196.282L88.7444 193.506L84.81 213.638L99.0057 216.414C99.2394 219.442 99.8281 222.405 100.735 225.237L87.2959 232.564L97.118 250.575L112.024 242.443C115.201 245.238 118.865 247.528 122.911 249.173L119.855 264.809V264.818ZM117.669 209.61C119.799 198.684 130.397 191.553 141.322 193.684C152.247 195.815 159.377 206.413 157.247 217.339C155.106 228.265 144.518 235.396 133.593 233.265C122.668 231.134 115.538 220.535 117.669 209.61Z" fill="#3460CE"/>
<path d="M233.552 194.132C233.552 194.132 234.524 200.366 234.384 202.684C234.244 205.002 235.814 207.395 234.534 207.74C233.253 208.086 231.758 203.834 231.758 203.834C231.758 203.834 229.375 207.852 228.823 209.208C228.281 210.563 226.693 212.713 225.674 212.367C224.655 212.021 227.73 205.722 227.73 205.722C227.73 205.722 224.618 210.759 223.618 210.638C222.618 210.516 225.627 203.497 225.627 203.497C225.627 203.497 222.581 209.039 221.955 209.254C221.338 209.469 221.02 208.666 221.627 206.432C222.235 204.198 223.422 202.076 223.422 202.076C223.422 202.076 220.983 205.796 220.534 206.142C220.085 206.479 219.216 206.609 220.459 203.404C221.702 200.189 225.515 193.721 228.739 191.3L233.571 194.141L233.552 194.132Z" fill="#F9A58F"/>
<path d="M258.439 314.802C258.439 314.802 254.664 327.401 254.757 327.579C254.851 327.756 253.869 329.28 253.869 329.28L250.038 329.971L246.542 328.364C246.542 328.364 248.505 313.316 248.813 311.522C249.383 308.222 258.43 314.821 258.43 314.821L258.439 314.802Z" fill="#F9A58F"/>
<path d="M246.542 328.354C246.542 328.354 250.953 329.906 254.729 327.345C254.729 327.345 269.429 332.869 268.981 337.065C268.981 337.065 269.607 338.318 263.233 338.047C256.86 337.775 246.963 337.495 246.701 337.346C246.44 337.196 245.187 337.869 246.542 328.364V328.354Z" fill="#060633"/>
<path d="M273.523 194.581L245.926 325.317L255.402 325.121L298.055 226.723L307.101 323.644L314.372 300.624L329.624 193.768L309.054 182.692L273.523 194.581Z" fill="#060633"/>
<path d="M371.613 100.015C371.613 100.015 368.94 94.3136 368.426 92.0518C367.912 89.79 365.744 87.9487 366.875 87.2384C368.005 86.5374 370.631 90.1732 370.631 90.1732C370.631 90.1732 371.79 85.6215 371.94 84.1728C372.08 82.7148 373.005 80.1913 374.08 80.2287C375.155 80.2661 373.968 87.201 373.968 87.201C373.968 87.201 375.538 81.4717 376.538 81.2942C377.528 81.1166 376.612 88.7245 376.612 88.7245C376.612 88.7245 377.986 82.5279 378.519 82.1353C379.052 81.7521 379.575 82.4251 379.622 84.743C379.668 87.0608 379.117 89.4348 379.117 89.4348C379.117 89.4348 380.407 85.1542 380.743 84.6962C381.08 84.2383 381.874 83.8644 381.584 87.3038C381.295 90.7433 379.444 98.0614 377.033 101.323L371.613 100.005V100.015Z" fill="#F9A58F"/>
<path d="M312.475 85.4346H312.465C312.465 85.257 312.447 85.0794 312.428 84.9019C311.708 76.9388 304.419 71.1628 296.41 72.4245C289.737 73.4807 284.728 79.3315 284.719 86.1075C284.719 88.6217 285.363 90.9489 286.485 92.9584C288.064 96.0801 289.438 98.7531 290.84 100.949C293.158 104.576 294.186 108.894 293.858 113.193L293.597 116.577C302.503 120.334 305.998 115.763 305.998 115.763L305.596 109.642C305.54 108.838 306.11 108.146 306.905 108.015C306.905 108.015 306.914 108.015 306.923 108.015C317.4 106.361 312.905 90.2012 312.475 85.444V85.4346Z" fill="#F9A58F"/>
<path d="M298.886 94.0051C298.821 93.2948 298.195 92.7714 297.484 92.8368C296.774 92.9022 296.251 93.5284 296.316 94.2388C296.382 94.9491 297.008 95.4725 297.718 95.4071C298.428 95.3416 298.952 94.7154 298.886 94.0051Z" fill="#060633"/>
<path d="M294.101 92.4163C293.971 92.4256 293.83 92.4069 293.7 92.3415C293.326 92.1546 293.167 91.706 293.344 91.3321C293.896 90.1919 295.728 88.36 298.737 89.5376C299.129 89.6872 299.316 90.1264 299.167 90.519C299.017 90.9115 298.578 91.0985 298.185 90.9489C295.709 89.9769 294.746 91.9116 294.709 91.9957C294.587 92.2481 294.354 92.3976 294.092 92.4256L294.101 92.4163Z" fill="#060633"/>
<path d="M305.98 89.304C305.849 89.3134 305.709 89.2947 305.578 89.2292C305.204 89.0423 305.045 88.5937 305.223 88.2198C305.774 87.0796 307.606 85.2384 310.615 86.4253C311.007 86.5749 311.194 87.0142 311.045 87.4067C310.895 87.7992 310.456 87.9862 310.063 87.8366C307.587 86.8646 306.624 88.7993 306.587 88.8834C306.465 89.1358 306.232 89.2853 305.97 89.3134L305.98 89.304Z" fill="#060633"/>
<path d="M283.625 88.4909L288.223 97.5194L290.69 96.7904L291.102 84.5654L283.625 88.4909Z" fill="#060633"/>
<path d="M291.055 96.4539C290.793 96.024 290.373 95.7249 289.887 95.5753C288.896 95.2763 287.176 95.0052 286.12 96.2763C284.578 98.1362 288.401 102.333 291.578 99.7812C291.578 99.7812 292.457 98.725 291.055 96.4539Z" fill="#F9A58F"/>
<path d="M305.933 98.0708C304.755 98.7905 303.596 98.2203 303.578 98.211C303.466 98.1549 303.419 98.0241 303.475 97.9119C303.531 97.7998 303.662 97.753 303.774 97.8091C303.83 97.8371 305.12 98.454 306.241 97.2203C306.428 97.024 306.512 96.8651 306.512 96.753C306.512 96.5941 306.307 96.4165 306.026 96.1642C305.381 95.5847 304.307 94.6127 303.783 92.2574C303.755 92.1359 303.83 92.0144 303.952 91.9864C304.073 91.9583 304.195 92.0331 304.223 92.1546C304.718 94.379 305.68 95.2482 306.325 95.8277C306.671 96.1361 306.942 96.3885 306.961 96.7249C306.97 96.9679 306.858 97.2109 306.578 97.5194C306.363 97.753 306.148 97.9306 305.933 98.0615V98.0708Z" fill="#E58370"/>
<path d="M309.764 80.2568C309.764 80.2568 311.877 81.4718 313.129 89.8367C313.129 89.8367 312.951 80.4063 311.82 79.4623C310.69 78.5277 309.764 80.2568 309.764 80.2568Z" fill="#060633"/>
<path d="M307.297 91.8555C307.194 91.8555 307.092 91.8087 307.026 91.7153C306.914 91.5564 306.942 91.3414 307.092 91.2199C307.166 91.1639 308.877 89.8647 310.858 90.4442C311.035 90.5003 311.148 90.6872 311.091 90.8741C311.045 91.061 310.858 91.1732 310.671 91.1171C309.007 90.6311 307.503 91.7714 307.493 91.7807C307.437 91.8274 307.363 91.8461 307.288 91.8461L307.297 91.8555Z" fill="#060633"/>
<path d="M292.858 114.904H306.69L318.652 143.354V197.936C318.652 197.936 303.101 205.488 282.625 195.618L288.597 131.746L292.849 114.904H292.858Z" fill="white"/>
<path d="M292.858 114.904C292.858 114.904 277.401 121.857 273.298 127.549C269.196 133.241 268.672 204.843 268.672 204.843L289.494 206.899L292.858 114.904Z" fill="#121266"/>
<path d="M306.69 114.904L313.297 115.95C313.297 115.95 318.269 121.138 319.68 123.1C323.783 128.792 330.876 204.852 330.876 204.852L310.054 206.909L306.69 114.913V114.904Z" fill="#121266"/>
<path d="M297.344 117.511L299.774 121.661L294.083 180.702L300.643 192.983L306.69 181.141L302.709 121.306L304.484 117.156L299.709 115.371L297.344 117.511Z" fill="#FA7267"/>
<path d="M292.858 114.904L293.896 112.623L300.4 114.904L305.783 112.427L306.69 114.904L305.55 119.165L300.634 115.969L295.84 119.465L292.858 114.904Z" fill="white"/>
<path d="M288.345 71.7983C288.737 71.3871 289.475 71.06 289.812 71.5273C289.943 71.7142 289.952 71.9572 289.933 72.1909C289.887 72.8545 289.728 73.5087 289.466 74.1256C291.802 71.3871 295.69 70.5366 299.279 70.5927C302.867 70.6487 306.437 71.4338 310.026 71.2562C311.447 71.1908 313.157 71.088 313.989 72.2376C314.568 73.0414 314.437 74.219 313.858 75.0322C313.269 75.8359 312.325 76.3126 311.363 76.5463C312.101 76.2285 313.035 76.4435 313.568 77.051C314.101 77.6585 314.194 78.6024 313.802 79.3034C313.194 80.3689 311.783 80.6119 310.549 80.7054C306.643 81.0231 302.727 81.1353 298.812 81.0418C299.382 81.4998 299.952 81.9671 300.522 82.4251C300.718 82.584 300.914 82.7522 301.008 82.9859C301.139 83.3036 301.026 83.6775 300.84 83.9579C300.363 84.7056 299.438 85.0701 298.559 85.1262C297.671 85.1823 296.793 84.986 295.924 84.8364C294.643 84.6308 293.354 84.5374 292.055 84.5654C291.784 84.5654 291.513 84.5841 291.27 84.6962C290.943 84.8458 290.728 85.1636 290.494 85.4439C289.12 87.1076 286.933 87.8086 284.877 88.4348C284.233 88.631 283.392 88.7525 283.036 88.1824C282.896 87.9581 282.878 87.6871 282.868 87.4347C282.765 84.3224 283.522 81.1914 285.027 78.4716C284.644 79.1726 283.691 79.3408 283.261 78.5277C282.719 77.4902 284.008 76.6397 284.737 76.2191C285.401 75.8266 286.036 75.7518 286.532 75.0976C287.307 74.0788 287.391 72.7797 288.354 71.7983H288.345Z" fill="#060633"/>
<path d="M284.719 118.642L288.812 135.568L284.719 137.279L290.756 172.383L292.859 114.904L284.719 118.642Z" fill="#060633"/>
<path d="M313.297 115.941L310.736 135.568L314.83 137.279L308.793 172.383L306.69 114.904L313.297 115.941Z" fill="#060633"/>
<path d="M301.998 101.576L309.755 99.6036C309.755 99.6036 311.241 102.894 307.241 104.006C303.241 105.127 301.989 101.576 301.989 101.576H301.998Z" fill="white"/>
<path d="M313.297 115.941C313.297 115.941 316.26 116.268 320.25 118.455C327.764 122.567 340.016 129.044 350.651 122.614C366.921 112.773 371.071 98.968 371.071 98.968L380.818 100.548C380.818 100.548 379.126 133.512 359.295 143.625C336.661 155.177 323.53 150.027 323.53 150.027L315.568 119.221L313.306 115.932L313.297 115.941Z" fill="#121266"/>
<path d="M284.719 118.642C284.719 118.642 279.009 119.072 271.579 125.082C257.402 136.559 235.636 161.345 226.067 192.983L234.543 196.889C234.543 196.889 259.953 159.355 279.681 155.579L285.373 121.334L284.719 118.642Z" fill="#121266"/>
<path d="M335.623 92.1826L318.83 94.9772L317.951 89.4909L334.754 86.7057L335.623 92.1826Z" fill="#121266"/>
<path d="M355.557 90.4442L329.11 94.837L327.745 86.2851L354.193 81.8923L355.557 90.4442Z" fill="#121266"/>
<path d="M394.042 85.743L349.641 93.1173L347.754 81.2755L392.154 73.9012L394.042 85.743Z" fill="#121266"/>
<path d="M390.79 86.8739L394.135 86.3225L392.061 73.3218L388.715 73.8826L390.79 86.8739Z" fill="#FA7267"/>
<path d="M267.654 235.555C267.654 235.555 322.755 205.647 256.159 120.483C256.159 120.483 200.264 216.778 267.654 235.555Z" fill="#3460CE"/>
<path d="M256.14 120.268L273.84 230.639C286.092 219.339 307.951 186.524 256.14 120.268Z" fill="#7C9AF2"/>
<path d="M296.008 311.634C296.008 311.634 290.756 249.154 398.49 258.061C398.49 258.061 348.698 357.655 296.008 311.634Z" fill="#3460CE"/>
<path d="M398.677 257.958L296.718 303.755C299.438 287.305 314.858 251.023 398.677 257.958Z" fill="#7C9AF2"/>
<path d="M270.85 239.471C270.85 239.471 289.831 151.167 134.266 144.111C134.266 144.111 187.124 295.549 270.85 239.471Z" fill="#91B5F8"/>
<path d="M134.266 144.12L270.85 239.48C270.85 239.48 199.329 305.166 134.266 144.12Z" fill="#7C9AF2"/>
<path d="M263 233.003L231.571 211.329L213.861 176.047C213.768 175.869 213.553 175.795 213.375 175.888C213.198 175.982 213.123 176.197 213.217 176.374L230.337 210.469L143.556 150.625C143.387 150.513 143.163 150.55 143.051 150.718C142.939 150.887 142.976 151.111 143.144 151.223L204.722 193.693L165.695 198.843C165.499 198.861 165.358 199.048 165.386 199.254C165.415 199.45 165.592 199.59 165.798 199.562L205.619 194.31L262.598 233.602C262.691 233.667 262.804 233.676 262.906 233.648C262.981 233.63 263.046 233.574 263.103 233.508C263.215 233.34 263.177 233.116 263.009 233.003H263Z" fill="#060633"/>
<path d="M113.108 133.381L120.323 135.512L122.136 129.362C123.173 129.297 124.192 129.129 125.173 128.848L128.883 134.372L135.126 130.175L131.603 124.932C132.238 124.259 132.808 123.521 133.304 122.717L139.135 124.437L141.266 117.221L135.434 115.502C135.453 114.558 135.378 113.623 135.21 112.717L141.014 110.23L138.051 103.314L131.939 105.931C131.266 105.165 130.509 104.464 129.668 103.847L131.481 97.697L124.267 95.566L122.612 101.164C121.014 101.015 119.435 101.136 117.93 101.51L114.463 96.3418L108.22 100.538L111.351 105.202C110.575 105.968 109.884 106.828 109.295 107.782L104.211 106.277L102.08 113.492L107.164 114.997C107.146 116.109 107.258 117.212 107.491 118.278L102.333 120.493L105.295 127.409L111.015 124.96C112.08 126.091 113.332 127.054 114.762 127.792L113.108 133.391V133.381ZM114.22 113.146C115.379 109.23 119.491 106.997 123.407 108.156C127.322 109.314 129.556 113.427 128.397 117.343C127.238 121.259 123.126 123.493 119.211 122.334C115.295 121.175 113.061 117.063 114.22 113.146Z" fill="white"/>
<path d="M287.606 207.357C198.497 207.357 215.618 299.007 187.545 297.437C159.461 295.867 146.434 362.057 248.561 362.057C350.688 362.057 369.631 207.357 287.616 207.357H287.606Z" fill="#FF7367"/>
<path d="M255.654 194.562C255.654 194.562 254.159 192.768 253.234 193.665C250.869 195.955 253.738 198.254 255.523 198.637L255.654 194.553V194.562Z" fill="#FF6868"/>
<path d="M254.29 187.487H254.308C254.28 187.281 254.252 187.085 254.224 186.879C253.224 177.813 260.065 169.682 269.336 169.271C277.055 168.925 283.999 174.337 285.55 181.907C286.13 184.72 285.924 187.468 285.13 189.973C284.074 193.824 283.139 197.123 282.065 199.899C280.289 204.488 280.13 209.544 281.476 214.283L282.532 218.003C273.401 224.237 268.448 219.928 268.448 219.928L267.504 212.984C267.383 212.077 266.579 211.423 265.673 211.47C265.673 211.47 265.663 211.47 265.654 211.47C253.542 212.012 254.888 192.908 254.29 187.496V187.487Z" fill="#FF9391"/>
<path d="M271.457 193.973C271.364 193.16 271.953 192.431 272.766 192.338C273.579 192.244 274.308 192.833 274.401 193.646C274.495 194.459 273.906 195.188 273.093 195.282C272.28 195.375 271.551 194.786 271.457 193.973Z" fill="#01011C"/>
<path d="M258.121 192.805C258.028 191.992 258.617 191.263 259.43 191.169C260.243 191.076 260.972 191.665 261.065 192.478C261.159 193.291 260.57 194.02 259.757 194.113C258.944 194.207 258.215 193.618 258.121 192.805Z" fill="#01011C"/>
<path d="M276.467 191.104C276.616 191.085 276.766 191.029 276.896 190.936C277.28 190.646 277.354 190.104 277.065 189.721C276.196 188.571 273.719 186.935 270.616 188.945C270.214 189.207 270.102 189.739 270.355 190.141C270.616 190.543 271.149 190.655 271.551 190.403C274.102 188.758 275.616 190.693 275.682 190.777C275.868 191.029 276.177 191.141 276.467 191.113V191.104Z" fill="#01011C"/>
<path d="M262.448 190.328C262.598 190.309 262.747 190.253 262.878 190.16C263.261 189.87 263.336 189.328 263.047 188.945C262.177 187.795 259.701 186.16 256.598 188.169C256.196 188.431 256.084 188.964 256.336 189.365C256.598 189.767 257.131 189.879 257.533 189.627C260.084 187.982 261.598 189.917 261.663 190.001C261.85 190.253 262.159 190.365 262.448 190.337V190.328Z" fill="#01011C"/>
<path d="M287.317 184.328L284.214 195.478L281.28 195.216L278.037 181.636L287.317 184.328Z" fill="#043DAF"/>
<path d="M280.794 194.927C280.99 194.384 281.392 193.945 281.896 193.674C282.934 193.113 284.803 192.422 286.27 193.599C288.419 195.319 285.092 200.889 280.952 198.768C280.952 198.768 279.728 197.787 280.784 194.927H280.794Z" fill="#FF9391"/>
<path d="M264.504 200.132C265.99 200.665 267.159 199.768 267.177 199.759C267.289 199.674 267.308 199.506 267.224 199.394C267.14 199.282 266.972 199.263 266.859 199.347C266.803 199.394 265.495 200.375 263.962 199.254C263.71 199.067 263.57 198.917 263.551 198.796C263.523 198.618 263.71 198.375 263.962 198.029C264.551 197.235 265.532 195.908 265.588 193.141C265.588 193.001 265.476 192.88 265.336 192.88C265.196 192.88 265.075 192.992 265.075 193.132C265.028 195.73 264.14 196.927 263.551 197.721C263.233 198.151 262.981 198.487 263.047 198.871C263.093 199.142 263.28 199.394 263.663 199.674C263.953 199.889 264.243 200.03 264.514 200.132H264.504Z" fill="#FF6868"/>
<path d="M270.719 202.151C270.719 202.151 264.813 203.553 260.822 202.198C260.822 202.198 262.271 206.703 265.794 206.684C269.317 206.666 270.719 202.151 270.719 202.151Z" fill="white"/>
<path d="M256.15 181.075C256.15 181.075 254.056 182.917 254.561 192.562C254.561 192.562 252.608 181.973 253.664 180.664C254.72 179.356 256.15 181.075 256.15 181.075Z" fill="#043DAF"/>
<path d="M287.99 180.73C287.737 178.393 286.672 176.234 285.485 174.206C286.597 174.346 287.831 174.439 288.718 173.757C289.606 173.075 289.588 171.327 288.485 171.103C287.849 170.972 287.242 171.411 286.597 171.495C285.13 171.701 284.055 170.131 283.588 168.729C283.121 167.327 282.7 165.663 281.364 165.028C280.943 164.831 280.466 164.757 279.999 164.822C279.663 166.533 279.915 168.355 280.7 169.916C278.943 167.757 276.738 165.962 274.27 164.673C272.355 163.673 270.084 162.962 268.028 163.654C267.598 165.327 270.373 166.112 270.728 167.804C267.046 166.888 263.215 166.542 259.43 166.776C258.458 166.841 257.458 166.944 256.579 167.374C255.701 167.804 254.953 168.626 254.869 169.598C254.757 170.879 255.991 172.103 257.271 171.972C255.402 172.851 253.505 173.739 251.916 175.066C250.337 176.393 249.066 178.234 248.879 180.29C250.262 180.3 251.645 179.954 252.851 179.281C252.019 180.057 251.309 181.234 251.739 182.281C252.056 183.057 252.925 183.496 253.766 183.552C254.608 183.599 255.43 183.337 256.234 183.085C260.271 181.776 264.318 180.468 268.355 179.159C266.775 180.87 265.635 182.982 265.075 185.244C268.747 184.805 272.28 183.262 275.093 180.86C275.439 182.589 276.027 184.272 276.831 185.842C276.962 186.085 277.102 186.347 277.345 186.478C278.167 186.917 278.822 185.702 279.56 185.132C280.457 184.431 281.784 184.73 282.784 185.281C284.513 186.225 285.709 187.59 287.027 185.552C287.915 184.178 288.148 182.328 287.98 180.73H287.99Z" fill="#043DAF"/>
<path d="M181.573 300.082C181.573 300.082 163.125 301.577 157.209 325.083C153.77 338.738 155.125 383.217 155.125 383.217L179.04 386.965C179.04 386.965 176.891 337.271 195.413 321.952C195.413 321.952 191.666 332.046 205.236 389.479H222.983L228.898 330.654C228.898 330.654 270.663 332.046 283.195 321.606C295.728 311.167 296.98 298.671 296.98 298.671L237.945 289.698L181.564 300.091L181.573 300.082Z" fill="#80B5FA"/>
<path d="M287.616 220.19C287.616 220.19 286.457 211.255 284.597 211.722C282.737 212.189 266.271 215.18 264.645 214.844C263.018 214.507 264.645 222.395 264.645 222.395C264.645 222.395 246.103 224.087 241.459 231.975C236.814 239.864 226.029 269.828 222.076 272.379C218.132 274.931 210.348 282.034 210.348 282.034L242.43 300.082L272.822 298.661C272.822 298.661 294.802 311.84 311.979 301.577C329.147 291.315 326.138 237.48 309.895 227.966C293.653 218.451 287.616 220.19 287.616 220.19Z" fill="white"/>
<path d="M233.599 291.867C233.599 291.867 233.664 291.867 233.692 291.848C242.944 287.801 247.907 247.845 248.112 246.144C248.131 246.014 248.038 245.901 247.907 245.883C247.767 245.873 247.664 245.957 247.645 246.088C247.598 246.5 242.505 287.483 233.496 291.418C233.375 291.474 233.328 291.605 233.375 291.726C233.412 291.81 233.496 291.867 233.59 291.867H233.599Z" fill="#040156"/>
<path d="M272.822 298.895C272.915 298.895 272.999 298.839 273.037 298.755C273.084 298.633 273.037 298.502 272.915 298.446L266.224 295.521L267.159 283.857C269.158 283.464 287.99 279.791 296.98 278.744C297.092 278.735 297.185 278.632 297.185 278.52C297.204 277.623 297.522 256.435 296.12 253.285C296.064 253.163 295.933 253.117 295.812 253.163C295.69 253.22 295.643 253.35 295.69 253.472C296.98 256.36 296.746 276.081 296.718 278.305C287.167 279.445 267.093 283.389 266.887 283.436C266.785 283.455 266.71 283.539 266.701 283.642L265.738 295.652C265.738 295.755 265.785 295.848 265.878 295.885L272.728 298.876C272.728 298.876 272.794 298.895 272.822 298.895Z" fill="#040156"/>
<path d="M195.423 322.177C195.535 322.177 195.628 322.102 195.647 321.99C195.684 321.784 199.918 301.362 233.337 298.942C233.468 298.942 233.562 298.82 233.552 298.699C233.552 298.568 233.44 298.456 233.309 298.484C215.665 299.755 206.245 306.045 201.451 311.092C196.236 316.578 195.208 321.85 195.199 321.906C195.17 322.027 195.255 322.149 195.385 322.177C195.404 322.177 195.413 322.177 195.432 322.177H195.423Z" fill="#040156"/>
<path d="M260.645 285.305C260.645 285.305 260.187 285.315 259.411 285.343C255.598 285.464 244.206 285.857 242.888 286.324C241.3 286.885 246.085 296.829 246.085 296.829C246.085 296.829 259.776 297.577 264.187 294.642C268.588 291.708 260.654 285.315 260.654 285.315L260.645 285.305Z" fill="#FF8181"/>
<path d="M247.888 296.886C247.888 296.886 240.253 300.344 239.571 299.587C238.898 298.83 245.552 294.979 245.552 294.979L247.888 296.886Z" fill="#FF8181"/>
<path d="M245.804 294.437C245.804 294.437 234.496 299.091 233.636 297.53C232.777 295.97 245.3 291.932 245.3 291.932L245.804 294.446V294.437Z" fill="#FF8181"/>
<path d="M244.3 291.689C244.3 291.689 232.627 295.334 231.917 293.708C231.197 292.081 244.019 289.147 244.019 289.147L244.3 291.689Z" fill="#FF8181"/>
<path d="M243.711 288.754C243.711 288.754 232.805 292.315 232.122 290.68C231.44 289.044 243.421 286.212 243.421 286.212L243.701 288.754H243.711Z" fill="#FF8181"/>
<path d="M258.037 285.632L266.635 284.548L265.85 294.278L261.42 295.269L258.037 285.632Z" fill="#FF8181"/>
<path d="M160.62 255.537L223.581 255.444L243.384 301.484L180.423 301.577L160.62 255.537Z" fill="#01011C"/>
<path d="M231.023 301.501L273.181 301.442L273.177 298.657L231.02 298.716L231.023 301.501Z" fill="#01011C"/>
<path d="M198.544 277.838C198.544 276.305 197.32 275.062 195.787 275.052C194.255 275.052 193.012 276.277 193.002 277.81C193.002 279.342 194.227 280.585 195.759 280.595C197.292 280.595 198.535 279.37 198.544 277.838Z" fill="white"/>
<g opacity="0.7">
<path d="M112.08 366.516C112.08 366.516 112.145 366.497 112.183 366.478C112.445 366.347 112.557 366.039 112.435 365.768C79.3896 296.652 51.6243 248.546 34.2417 230.312C33.8586 229.91 33.5782 229.611 33.4661 229.461C33.2885 229.228 32.9614 229.181 32.7278 229.349C32.4941 229.527 32.4381 229.854 32.6156 230.088C32.7652 230.293 33.0362 230.574 33.4754 231.041C50.7832 249.201 78.4831 297.203 111.482 366.226C111.594 366.459 111.846 366.572 112.089 366.516H112.08Z" fill="#B8D0FC"/>
<path d="M23.7375 228.115C25.7748 230.153 34.9053 233.041 35.4847 232.461C36.0641 231.882 33.139 222.76 31.1017 220.732C29.0644 218.694 25.7654 218.704 23.7281 220.741C21.6908 222.779 21.7001 226.078 23.7375 228.115Z" fill="#B8D0FC"/>
<path d="M41.1854 232.555C40.7836 235.471 44.0358 244.714 44.8675 244.827C45.6993 244.939 51.3439 236.938 51.7551 234.022C52.157 231.106 50.1197 228.414 47.2039 228.003C44.2881 227.601 41.5966 229.639 41.1854 232.555Z" fill="#B8D0FC"/>
<path d="M33.6623 250.761C36.5968 250.5 44.8675 245.247 44.7928 244.406C44.718 243.565 35.6436 239.873 32.7184 240.135C29.784 240.396 27.6158 242.985 27.8775 245.92C28.1392 248.855 30.7279 251.023 33.6623 250.761Z" fill="#B8D0FC"/>
<path d="M73.53 276.744C72.3245 281.539 76.0813 297.549 77.4551 297.895C78.8196 298.241 89.6977 285.904 90.8939 281.109C92.0995 276.314 89.1837 271.445 84.3895 270.249C79.5952 269.043 74.7263 271.959 73.53 276.754V276.744Z" fill="#B8D0FC"/>
<path d="M57.6895 305.774C62.6332 305.867 77.3804 298.596 77.4084 297.185C77.4364 295.773 62.9697 287.96 58.0259 287.866C53.0822 287.773 48.9982 291.708 48.9048 296.652C48.8113 301.596 52.7457 305.68 57.6895 305.774Z" fill="#B8D0FC"/>
<path d="M89.0435 292.904C86.3146 298.306 86.4922 318.429 88.0342 319.204C89.5762 319.98 105.875 308.185 108.604 302.783C111.332 297.381 109.164 290.792 103.763 288.063C98.3609 285.333 91.7724 287.502 89.0435 292.904Z" fill="#B8D0FC"/>
<path d="M65.8948 331.261C71.9226 330.747 88.9594 320.046 88.8192 318.326C88.6697 316.606 70.0816 308.914 64.0537 309.428C58.0259 309.942 53.5494 315.242 54.0634 321.27C54.5774 327.298 59.8763 331.775 65.9041 331.261H65.8948Z" fill="#B8D0FC"/>
<path d="M100.576 315.326C97.8469 320.728 98.0245 340.85 99.5665 341.626C101.108 342.402 117.407 330.607 120.136 325.205C122.865 319.803 120.697 313.213 115.295 310.484C109.893 307.755 103.305 309.924 100.576 315.326Z" fill="#B8D0FC"/>
<path d="M77.4271 353.683C83.4549 353.169 100.492 342.467 100.351 340.748C100.202 339.028 81.6138 331.336 75.586 331.85C69.5582 332.364 65.0817 337.663 65.5957 343.692C66.1097 349.72 71.4086 354.197 77.4364 353.683H77.4271Z" fill="#B8D0FC"/>
<path d="M51.185 246.322C50.7738 249.285 54.0821 258.678 54.9232 258.79C55.7737 258.911 61.5024 250.771 61.9136 247.808C62.3248 244.845 60.2595 242.107 57.2876 241.696C54.3251 241.284 51.5869 243.35 51.1757 246.322H51.185Z" fill="#B8D0FC"/>
<path d="M43.9517 264.949C46.9329 264.678 55.3344 259.351 55.2597 258.5C55.1849 257.65 45.9703 253.893 42.9891 254.154C40.0079 254.425 37.8117 257.052 38.0734 260.033C38.3444 263.015 40.9705 265.211 43.9517 264.949Z" fill="#B8D0FC"/>
<path d="M62.1005 258.855C61.1753 263.005 64.764 276.679 65.9415 276.95C67.1284 277.212 76.1935 266.37 77.128 262.22C78.0532 258.07 75.4459 253.958 71.2965 253.023C67.1471 252.098 63.0351 254.706 62.1005 258.855Z" fill="#B8D0FC"/>
<path d="M49.9328 285.623C54.1663 285.24 66.1004 277.66 65.9976 276.455C65.8855 275.249 52.7925 269.903 48.559 270.286C44.3255 270.669 41.1948 274.408 41.5779 278.642C41.9611 282.875 45.6993 286.006 49.9328 285.623Z" fill="#B8D0FC"/>
</g>
<g opacity="0.7">
<path d="M404.004 358.403C404.004 358.403 403.957 358.403 403.939 358.394C403.77 358.347 403.668 358.169 403.714 358.001C416.377 313.522 428.04 282.09 436.535 269.473C436.722 269.192 436.863 268.987 436.909 268.884C436.993 268.725 437.18 268.66 437.339 268.744C437.498 268.828 437.564 269.015 437.479 269.174C437.414 269.314 437.283 269.51 437.059 269.828C428.601 282.389 416.975 313.756 404.322 358.169C404.275 358.319 404.135 358.412 403.985 358.403H404.004Z" fill="#B8D0FC"/>
<path d="M442.563 267.108C441.554 268.529 436.414 271.174 436.012 270.884C435.61 270.594 436.423 264.874 437.433 263.454C438.442 262.033 440.405 261.706 441.825 262.715C443.246 263.725 443.573 265.687 442.563 267.108Z" fill="#B8D0FC"/>
<path d="M432.629 271.51C433.162 273.202 432.162 279.034 431.676 279.184C431.19 279.333 427.022 275.146 426.489 273.445C425.956 271.753 426.891 269.94 428.592 269.407C430.283 268.875 432.096 269.809 432.629 271.51Z" fill="#B8D0FC"/>
<path d="M438.947 281.586C437.171 281.726 431.723 279.436 431.685 278.931C431.648 278.427 436.666 275.305 438.442 275.165C440.218 275.024 441.769 276.342 441.909 278.118C442.049 279.894 440.732 281.445 438.956 281.586H438.947Z" fill="#B8D0FC"/>
<path d="M417.854 301.082C419.06 303.811 418.443 313.718 417.658 314.064C416.882 314.41 409.163 308.166 407.957 305.437C406.752 302.708 407.995 299.512 410.733 298.315C413.462 297.11 416.658 298.353 417.854 301.091V301.082Z" fill="#B8D0FC"/>
<path d="M430.218 316.756C427.284 317.307 417.77 314.475 417.611 313.643C417.452 312.802 425.274 306.69 428.199 306.138C431.134 305.587 433.956 307.512 434.517 310.447C435.068 313.382 433.143 316.204 430.209 316.765L430.218 316.756Z" fill="#B8D0FC"/>
<path d="M410.256 312.27C412.424 315.204 414.359 327.196 413.518 327.822C412.677 328.439 401.789 323.074 399.612 320.13C397.444 317.195 398.06 313.055 401.004 310.877C403.939 308.709 408.079 309.326 410.256 312.27Z" fill="#B8D0FC"/>
<path d="M427.91 332.756C424.274 333.065 413.05 328.42 412.957 327.382C412.873 326.345 423.153 319.887 426.798 319.578C430.433 319.27 433.638 321.971 433.947 325.616C434.255 329.252 431.554 332.457 427.91 332.766V332.756Z" fill="#B8D0FC"/>
<path d="M405.667 326.775C407.836 329.71 409.77 341.701 408.929 342.327C408.088 342.944 397.201 337.579 395.023 334.635C392.855 331.7 393.472 327.56 396.415 325.382C399.35 323.214 403.49 323.831 405.667 326.775Z" fill="#B8D0FC"/>
<path d="M423.321 347.262C419.686 347.571 408.462 342.925 408.368 341.888C408.284 340.851 418.564 334.392 422.209 334.084C425.844 333.775 429.05 336.476 429.358 340.122C429.667 343.757 426.966 346.963 423.321 347.271V347.262Z" fill="#B8D0FC"/>
<path d="M428.078 280.716C428.62 282.436 427.601 288.362 427.115 288.511C426.62 288.67 422.387 284.408 421.844 282.688C421.302 280.969 422.256 279.127 423.975 278.585C425.695 278.043 427.536 278.997 428.078 280.716Z" fill="#B8D0FC"/>
<path d="M434.265 291.072C432.461 291.212 426.928 288.894 426.882 288.38C426.844 287.866 431.947 284.698 433.741 284.558C435.545 284.417 437.115 285.763 437.264 287.558C437.405 289.362 436.059 290.932 434.265 291.081V291.072Z" fill="#B8D0FC"/>
<path d="M422.844 289.287C423.816 291.661 423.069 300.166 422.386 300.446C421.704 300.727 415.209 295.184 414.237 292.811C413.265 290.437 414.405 287.717 416.779 286.745C419.153 285.773 421.872 286.913 422.844 289.287Z" fill="#B8D0FC"/>
<path d="M432.797 303.979C430.237 304.185 422.368 300.876 422.312 300.147C422.256 299.418 429.508 294.913 432.059 294.708C434.62 294.502 436.853 296.418 437.059 298.97C437.264 301.531 435.349 303.764 432.797 303.97V303.979Z" fill="#B8D0FC"/>
</g>
<path d="M402.677 228.377L432.741 220.592L454.638 231.031L402.677 228.377Z" fill="#7C9AF2"/>
<path d="M427.181 217.152L402.677 228.377L414.546 209.479L427.181 217.152Z" fill="#7C9AF2"/>
<path d="M438.62 230.209L438.162 233.742L402.677 228.377L438.62 230.209Z" fill="#3745BF"/>
<path d="M427.181 217.152L426.442 222.227L402.677 228.377L427.181 217.152Z" fill="#3745BF"/>
</g>
</g>
<defs>
<clipPath id="clip0_17_704">
<rect width="514" height="340" fill="white"/>
</clipPath>
</defs>
</svg>
