<svg width="492" height="309" viewBox="0 0 492 309" fill="none" xmlns="http://www.w3.org/2000/svg">
<g clip-path="url(#clip0_17_448)">
<path d="M467.284 280.648L52.1699 281.552C14.7868 263.352 -10.8329 233.567 4.53535 206.075C20.2794 177.919 36.0323 166.201 34.1716 107.052C30.9513 4.52091 141.794 54.3229 181.763 29.5428C307.965 -48.7099 290.495 53.2666 390.29 53.5799C505.293 53.938 448.024 138.717 478.036 178.188C502.672 210.587 491.911 256.87 467.275 280.648H467.284Z" fill="#DDE7FE"/>
<path d="M476.614 285.205C476.614 292.984 436.592 299.824 375.951 303.808C228.19 313.485 29.8957 302.921 29.8957 285.205C29.8957 276.019 85.7779 268.132 165.527 264.731C186.727 263.844 206.846 263.325 227.653 263.092C264.41 262.68 303.09 263.137 340.258 264.695C420.392 268.079 476.614 275.984 476.614 285.196V285.205Z" fill="#BDD1F9"/>
<path d="M163.586 133.471C163.586 133.471 187.282 84.9312 105.941 60.9746C105.941 60.9746 110.557 155.145 163.586 133.471Z" fill="#7C9AF2"/>
<path d="M105.843 60.8314L165.58 126.954C168.828 112.988 169.132 79.4703 105.843 60.8314Z" fill="#91B5F8"/>
<path d="M163.004 124.393C163.004 124.393 162.924 124.366 162.897 124.331L105.682 61.0015C105.601 60.912 105.61 60.7687 105.699 60.6703C105.789 60.5807 105.923 60.5718 106.004 60.6703L163.219 123.999C163.299 124.089 163.29 124.232 163.201 124.331C163.147 124.393 163.067 124.411 163.004 124.402V124.393Z" fill="#060633"/>
<path d="M112.122 93.2927C112.024 93.2748 111.952 93.1763 111.961 93.0599C111.97 92.9346 112.078 92.8271 112.203 92.8361L135.729 93.6687C135.855 93.6687 135.935 93.7761 135.926 93.9104C135.917 94.0357 135.81 94.1431 135.685 94.1342L112.158 93.3016C112.158 93.3016 112.14 93.3016 112.122 93.3016V93.2927Z" fill="#060633"/>
<path d="M147.913 107.688C147.842 107.67 147.77 107.616 147.752 107.527L142.34 83.7853C142.313 83.6599 142.385 83.5346 142.501 83.4899C142.617 83.454 142.734 83.5167 142.76 83.642L148.172 107.384C148.199 107.509 148.128 107.634 148.011 107.679C147.976 107.688 147.94 107.688 147.904 107.679L147.913 107.688Z" fill="#060633"/>
<path d="M158.308 147.983C158.308 147.983 158.746 115.011 102.595 123.677C102.595 123.677 132.393 174.079 158.308 147.983Z" fill="#91B5F8"/>
<path d="M102.595 123.686L158.308 147.992C158.308 147.992 137.447 176.648 102.595 123.686Z" fill="#7C9AF2"/>
<path d="M309.298 132.352C309.298 132.352 309.343 132.334 309.37 132.325C309.549 132.235 309.629 132.021 309.54 131.842C286.925 84.3851 267.916 51.3598 256.01 38.8354C255.742 38.5579 255.554 38.352 255.473 38.2535C255.357 38.0924 255.124 38.0566 254.963 38.1729C254.802 38.2893 254.767 38.5221 254.883 38.6832C254.99 38.8265 255.169 39.0145 255.473 39.3368C267.326 51.8074 286.299 84.77 308.878 132.155C308.949 132.316 309.128 132.397 309.298 132.352Z" fill="#BDD1F9"/>
<path d="M248.818 37.3225C250.213 38.719 256.475 40.7154 256.869 40.3126C257.271 39.9097 255.267 33.652 253.872 32.2554C252.476 30.8589 250.213 30.8589 248.818 32.2554C247.422 33.652 247.422 35.917 248.818 37.3135V37.3225Z" fill="#BDD1F9"/>
<path d="M260.778 40.3841C260.501 42.3895 262.719 48.7277 263.292 48.8083C263.864 48.8889 267.737 43.4011 268.024 41.3957C268.301 39.3904 266.906 37.5462 264.911 37.2598C262.907 36.9822 261.064 38.3788 260.778 40.3752V40.3841Z" fill="#BDD1F9"/>
<path d="M255.607 52.8727C257.62 52.6936 263.292 49.0948 263.247 48.5218C263.193 47.9489 256.976 45.4064 254.963 45.5765C252.951 45.7556 251.466 47.5281 251.645 49.5424C251.823 51.5567 253.595 53.0428 255.607 52.8637V52.8727Z" fill="#BDD1F9"/>
<path d="M282.927 70.7238C282.095 74.0183 284.662 85.0028 285.602 85.2356C286.541 85.4683 294.001 77.0173 294.833 73.7228C295.665 70.4284 293.67 67.0891 290.378 66.2655C287.086 65.4329 283.75 67.4293 282.927 70.7238Z" fill="#BDD1F9"/>
<path d="M272.049 90.6339C275.439 90.6965 285.557 85.728 285.575 84.7522C285.593 83.7853 275.681 78.4139 272.291 78.3423C268.9 78.2796 266.1 80.9743 266.029 84.3672C265.966 87.7601 268.659 90.5622 272.049 90.6339Z" fill="#BDD1F9"/>
<path d="M293.554 81.8247C291.675 85.531 291.783 99.3355 292.838 99.8727C293.894 100.41 305.085 92.3258 306.954 88.6195C308.833 84.9132 307.348 80.3923 303.644 78.5123C299.941 76.6323 295.424 78.1184 293.545 81.8247H293.554Z" fill="#BDD1F9"/>
<path d="M277.658 108.136C281.791 107.787 293.482 100.455 293.384 99.2729C293.286 98.0912 280.538 92.8003 276.406 93.1494C272.273 93.4986 269.196 97.1333 269.544 101.269C269.893 105.405 273.525 108.485 277.658 108.136Z" fill="#BDD1F9"/>
<path d="M301.453 97.2227C299.574 100.929 299.682 114.734 300.737 115.271C301.793 115.808 312.984 107.724 314.853 104.018C316.732 100.311 315.247 95.7904 311.543 93.9104C307.84 92.0304 303.322 93.5165 301.444 97.2227H301.453Z" fill="#BDD1F9"/>
<path d="M285.548 123.534C289.681 123.185 301.372 115.853 301.274 114.671C301.176 113.489 288.428 108.198 284.295 108.548C280.163 108.897 277.085 112.531 277.434 116.667C277.783 120.803 281.415 123.883 285.548 123.534Z" fill="#BDD1F9"/>
<path d="M316.41 115.79C313.27 118.503 308.108 131.304 308.887 132.209C309.656 133.104 323.083 129.899 326.223 127.186C329.363 124.474 329.72 119.729 327.01 116.578C324.3 113.435 319.558 113.077 316.419 115.79H316.41Z" fill="#BDD1F9"/>
<path d="M292.794 138.842C296.935 139.012 309.459 133.202 309.504 132.021C309.557 130.839 297.571 123.99 293.42 123.82C289.278 123.65 285.771 126.864 285.602 131.018C285.432 135.163 288.643 138.672 292.794 138.842Z" fill="#BDD1F9"/>
<path d="M267.621 49.8379C267.335 51.8701 269.598 58.3158 270.18 58.3964C270.761 58.4769 274.697 52.8996 274.983 50.8674C275.27 48.8352 273.847 46.9552 271.817 46.6688C269.786 46.3823 267.907 47.8057 267.621 49.8379Z" fill="#BDD1F9"/>
<path d="M262.656 62.613C264.705 62.4339 270.466 58.7724 270.412 58.1905C270.358 57.6086 264.043 55.0213 262.003 55.2004C259.955 55.3794 258.452 57.1878 258.631 59.229C258.81 61.2791 260.617 62.783 262.656 62.604V62.613Z" fill="#BDD1F9"/>
<path d="M275.1 58.4501C274.464 61.297 276.907 70.688 277.721 70.867C278.535 71.0461 284.761 63.6156 285.396 60.7688C286.031 57.9219 284.251 55.093 281.397 54.4573C278.553 53.8217 275.726 55.6033 275.091 58.4501H275.1Z" fill="#BDD1F9"/>
<path d="M266.736 76.8114C269.643 76.5518 277.828 71.3594 277.756 70.5268C277.685 69.6942 268.713 66.0238 265.805 66.2834C262.898 66.543 260.751 69.1034 261.01 72.0129C261.27 74.9224 263.828 77.071 266.736 76.8114Z" fill="#BDD1F9"/>
<path d="M72.1898 278.723C72.1898 278.723 72.2256 278.723 72.2524 278.714C72.4134 278.678 72.5029 278.517 72.4671 278.356C61.9115 237.354 51.9731 208.313 44.4947 196.567C44.3247 196.308 44.2084 196.12 44.1637 196.021C44.0921 195.878 43.9222 195.815 43.7701 195.878C43.627 195.95 43.5643 196.12 43.627 196.272C43.6896 196.397 43.8059 196.576 43.9937 196.881C51.4453 208.572 61.3479 237.56 71.8946 278.499C71.9304 278.634 72.0556 278.723 72.1898 278.723Z" fill="#BDD1F9"/>
<path d="M39.0379 194.266C39.9235 195.582 44.5662 198.125 44.9419 197.874C45.3177 197.624 44.7004 192.369 43.8148 191.044C42.9292 189.728 41.1401 189.378 39.8162 190.265C38.5012 191.151 38.1523 192.941 39.0379 194.266Z" fill="#BDD1F9"/>
<path d="M48.0192 198.528C47.4914 200.068 48.2697 205.421 48.708 205.573C49.1463 205.725 53.0555 201.983 53.5922 200.444C54.12 198.904 53.306 197.23 51.7673 196.692C50.2287 196.164 48.5559 196.979 48.0192 198.519V198.528Z" fill="#BDD1F9"/>
<path d="M41.9989 207.597C43.618 207.767 48.6543 205.797 48.708 205.341C48.7527 204.875 44.2353 201.903 42.6161 201.733C40.997 201.563 39.5479 202.735 39.3779 204.356C39.2079 205.976 40.3798 207.426 41.9989 207.597Z" fill="#BDD1F9"/>
<path d="M60.8469 225.931C59.684 228.402 60.015 237.488 60.7217 237.82C61.4284 238.151 68.6295 232.618 69.7924 230.147C70.9553 227.677 69.8908 224.722 67.4218 223.567C64.9529 222.404 62.0009 223.469 60.8469 225.94V225.931Z" fill="#BDD1F9"/>
<path d="M49.1732 239.986C51.8389 240.559 60.6054 238.187 60.7754 237.426C60.9364 236.665 53.9321 230.882 51.2574 230.309C48.5917 229.736 45.9617 231.428 45.3803 234.105C44.8078 236.772 46.4985 239.413 49.1732 239.986Z" fill="#BDD1F9"/>
<path d="M67.5381 236.352C65.4896 238.992 63.4411 249.923 64.1926 250.505C64.944 251.096 75.0344 246.432 77.0829 243.791C79.1404 241.15 78.6663 237.345 76.0274 235.295C73.3885 233.236 69.5867 233.711 67.5381 236.352Z" fill="#BDD1F9"/>
<path d="M50.9085 254.686C54.2273 255.053 64.604 251.06 64.7114 250.111C64.8187 249.162 55.5602 243.012 52.2325 242.645C48.9137 242.278 45.9259 244.677 45.5591 247.998C45.1924 251.32 47.5898 254.31 50.9085 254.677V254.686Z" fill="#BDD1F9"/>
<path d="M71.4026 249.735C69.3451 252.376 67.3056 263.307 68.057 263.889C68.8084 264.48 78.8989 259.816 80.9474 257.175C83.0048 254.534 82.5307 250.729 79.8918 248.679C77.2529 246.62 73.4511 247.094 71.4026 249.735Z" fill="#BDD1F9"/>
<path d="M54.773 268.079C58.0918 268.446 68.4685 264.453 68.5669 263.504C68.6742 262.555 59.4157 256.405 56.088 256.038C52.7692 255.671 49.7814 258.07 49.4147 261.4C49.0479 264.722 51.4453 267.712 54.7641 268.079H54.773Z" fill="#BDD1F9"/>
<path d="M80.366 266.718C77.4676 268.374 71.4116 277.702 71.8857 278.535C72.3598 279.368 83.4611 278.893 86.3684 277.237C89.2667 275.581 90.2775 271.883 88.6226 268.974C86.9677 266.073 83.2732 265.062 80.366 266.718Z" fill="#BDD1F9"/>
<path d="M58.1365 281.301C61.3837 282.08 72.1719 279.421 72.3955 278.49C72.6192 277.559 64.2015 270.299 60.9454 269.52C57.6982 268.741 54.4331 270.747 53.6548 274.005C52.8766 277.255 54.8803 280.522 58.1275 281.301H58.1365Z" fill="#BDD1F9"/>
<path d="M51.973 207.059C51.4363 208.626 52.2325 214.069 52.6708 214.221C53.1181 214.373 57.0898 210.578 57.6266 209.011C58.1633 207.444 57.3314 205.743 55.7749 205.206C54.2094 204.669 52.5098 205.502 51.973 207.059Z" fill="#BDD1F9"/>
<path d="M46.0691 216.388C47.715 216.558 52.8318 214.561 52.8855 214.087C52.9392 213.621 48.3412 210.596 46.6952 210.425C45.0493 210.255 43.5822 211.446 43.4033 213.093C43.2333 214.741 44.4231 216.209 46.0691 216.388Z" fill="#BDD1F9"/>
<path d="M56.5531 215.018C55.6049 217.167 56.0969 224.973 56.7142 225.242C57.3314 225.51 63.3964 220.595 64.3446 218.438C65.2929 216.289 64.3089 213.774 62.1619 212.834C60.015 211.885 57.5014 212.869 56.5621 215.018H56.5531Z" fill="#BDD1F9"/>
<path d="M47.1157 228.241C49.4504 228.482 56.7231 225.644 56.7947 224.982C56.8662 224.311 50.336 220.022 48.0013 219.781C45.6665 219.539 43.5733 221.231 43.3317 223.568C43.0902 225.904 44.7809 227.999 47.1157 228.241Z" fill="#BDD1F9"/>
<path d="M324.434 142.208C324.434 142.208 324.398 142.191 324.389 142.173C324.264 142.065 324.246 141.877 324.344 141.752C351.145 107.625 372.363 84.4836 384.091 76.5786C384.35 76.3996 384.538 76.2742 384.619 76.2026C384.744 76.0952 384.932 76.1131 385.03 76.2384C385.138 76.3638 385.12 76.5518 384.994 76.6681C384.887 76.7666 384.708 76.883 384.404 77.0889C372.73 84.958 351.556 108.055 324.8 142.137C324.711 142.253 324.559 142.28 324.434 142.217V142.208Z" fill="#91B5F8"/>
<path d="M390.013 76.695C388.653 77.5634 383.366 78.011 383.134 77.6171C382.901 77.2232 385.665 72.5411 387.025 71.6727C388.385 70.8043 390.156 71.2251 390.988 72.6127C391.811 74.0003 391.382 75.8356 390.013 76.7039V76.695Z" fill="#91B5F8"/>
<path d="M380.057 76.9456C379.896 78.6108 376.935 83.3287 376.469 83.2839C376.004 83.2391 374.018 78.0826 374.188 76.4174C374.358 74.7523 375.799 73.5169 377.418 73.6601C379.037 73.8033 380.218 75.2805 380.057 76.9456Z" fill="#91B5F8"/>
<path d="M381.72 87.9928C380.182 87.4736 376.425 83.5166 376.577 83.0601C376.729 82.6035 382.087 81.7083 383.626 82.2275C385.164 82.7467 385.996 84.4566 385.469 86.0502C384.941 87.6437 383.268 88.5121 381.729 87.9928H381.72Z" fill="#91B5F8"/>
<path d="M356.897 97.3391C356.915 100.15 352.8 108.547 352.021 108.565C351.243 108.583 347.012 100.365 346.994 97.545C346.976 94.734 349.177 92.4064 351.914 92.3437C354.651 92.281 356.879 94.5191 356.897 97.3302V97.3391Z" fill="#91B5F8"/>
<path d="M361.611 115.441C358.945 114.868 351.968 108.959 352.138 108.18C352.308 107.393 361.101 104.895 363.776 105.477C366.442 106.05 368.123 108.753 367.524 111.502C366.925 114.259 364.277 116.023 361.611 115.441Z" fill="#91B5F8"/>
<path d="M346.449 104.322C347.209 107.661 344.481 118.798 343.55 119.031C342.62 119.263 335.41 110.651 334.649 107.312C333.889 103.973 335.92 100.589 339.176 99.7652C342.432 98.9416 345.688 100.974 346.449 104.322Z" fill="#91B5F8"/>
<path d="M353.864 128.529C350.689 127.482 342.942 119.38 343.237 118.449C343.541 117.509 354.535 115.611 357.711 116.658C360.886 117.706 362.595 121.215 361.531 124.492C360.466 127.768 357.031 129.577 353.864 128.529Z" fill="#91B5F8"/>
<path d="M337.315 115.289C338.076 118.628 335.347 129.765 334.417 129.997C333.487 130.23 326.277 121.618 325.516 118.279C324.756 114.939 326.786 111.556 330.043 110.732C333.299 109.908 336.555 111.94 337.315 115.289Z" fill="#91B5F8"/>
<path d="M344.731 139.496C341.555 138.448 333.809 130.347 334.104 129.416C334.408 128.476 345.402 126.578 348.578 127.625C351.753 128.672 353.462 132.182 352.397 135.458C351.333 138.735 347.898 140.543 344.731 139.496Z" fill="#91B5F8"/>
<path d="M322.045 127.509C323.986 130.284 325.579 141.591 324.801 142.173C324.022 142.755 314.129 137.661 312.187 134.885C310.246 132.11 310.881 128.207 313.601 126.175C316.329 124.134 320.104 124.733 322.054 127.509H322.045Z" fill="#91B5F8"/>
<path d="M336.125 150.525C332.842 149.898 324.156 142.871 324.344 141.904C324.532 140.937 335.231 137.643 338.514 138.269C341.797 138.896 343.917 142.155 343.264 145.539C342.602 148.923 339.408 151.152 336.134 150.525H336.125Z" fill="#91B5F8"/>
<path d="M372.882 83.3108C372.712 85.0028 369.707 89.7923 369.242 89.7475C368.767 89.7028 366.755 84.4656 366.925 82.7736C367.095 81.0816 368.562 79.8194 370.208 79.9715C371.854 80.1237 373.052 81.6188 372.891 83.3108H372.882Z" fill="#91B5F8"/>
<path d="M374.331 94.546C372.766 94.0178 368.946 89.9982 369.098 89.5327C369.25 89.0671 374.698 88.154 376.264 88.6822C377.829 89.2104 378.67 90.9471 378.133 92.5675C377.597 94.1879 375.897 95.0742 374.331 94.546Z" fill="#91B5F8"/>
<path d="M365.377 88.8702C365.332 91.2873 361.611 98.4134 360.94 98.4134C360.269 98.4134 356.816 91.2426 356.861 88.8254C356.906 86.4083 358.847 84.4567 361.2 84.4656C363.552 84.4746 365.422 86.453 365.377 88.8702Z" fill="#91B5F8"/>
<path d="M368.419 105.253C366.191 104.501 360.77 98.7894 360.985 98.127C361.2 97.4734 368.937 96.1753 371.165 96.9184C373.392 97.6704 374.582 100.141 373.822 102.442C373.061 104.743 370.646 105.996 368.419 105.253Z" fill="#91B5F8"/>
<path d="M365.538 163.291C365.538 163.291 351.449 120.812 427.646 108.959C427.646 108.959 409.773 186.406 365.538 163.291Z" fill="#7C9AF2"/>
<path d="M427.754 108.861L364.706 157.714C363.838 145.843 368.463 118.082 427.754 108.861Z" fill="#91B5F8"/>
<path d="M362.64 170.471C362.64 170.471 377.65 134.321 434.785 170.185C434.785 170.185 378.625 211.115 362.64 170.471Z" fill="#91B5F8"/>
<path d="M434.794 170.185L362.649 170.471C362.649 170.471 371.934 211.527 434.794 170.185Z" fill="#7C9AF2"/>
<path d="M176.082 109.64L147.376 110.195C142.716 110.284 139.03 115.289 139.147 121.367L139.245 126.56L185.028 125.682L184.554 120.275C184.437 114.322 180.644 109.559 176.082 109.649V109.64Z" fill="#FA7267"/>
<path d="M351.717 106.256L323.011 106.811C318.351 106.9 314.665 111.905 314.782 117.983L314.88 123.176L360.663 122.289L360.189 116.882C360.072 110.929 356.28 106.166 351.717 106.256Z" fill="#FA7267"/>
<path d="M372.256 277.336C370.762 277.533 344.919 282.045 330.069 261.051C325.373 254.418 320.587 246.029 316.007 236.96C310.032 225.143 297.785 217.829 284.555 218.08L224.88 219.226C210.522 219.503 197.623 227.99 191.558 241.016C187.568 249.61 183.382 257.551 179.213 263.952C165.187 285.5 139.182 281.991 137.679 281.848C123.107 280.487 114.734 266.87 116.899 253.218L135.989 132.567C136.445 129.702 137.357 127.034 138.655 124.626C140.649 120.92 144.514 118.61 148.718 118.53L172.325 118.073C173.801 118.046 177.451 117.957 179.643 119.022C191.039 124.554 202.471 127.831 217.052 127.715L297.571 126.166C306.981 125.987 306.901 122.666 314.388 116.954C314.397 116.954 314.406 116.945 314.415 116.936C316.106 115.656 318.19 114.993 320.31 114.949L356.011 114.259C359.026 114.206 361.906 115.557 363.713 117.966C365.887 120.866 367.452 124.286 368.204 128.082L391.918 247.909C394.602 261.472 386.757 275.393 372.247 277.318L372.256 277.336Z" fill="#5454D1"/>
<path d="M138.413 168.833C138.037 149.352 153.343 133.256 172.603 132.889C191.862 132.522 207.776 148.01 208.152 167.49C208.528 186.97 193.222 203.067 173.962 203.434C154.703 203.801 138.789 188.313 138.413 168.833Z" fill="#1F1F89"/>
<path d="M211.936 208.322C211.748 198.519 219.539 190.417 229.335 190.229C239.13 190.041 247.226 197.839 247.413 207.641C247.601 217.444 239.81 225.546 230.014 225.743C220.219 225.931 212.124 218.134 211.927 208.331L211.936 208.322Z" fill="#060633"/>
<path d="M218.153 208.196C218.028 201.822 223.091 196.558 229.46 196.442C235.829 196.317 241.089 201.384 241.205 207.758C241.33 214.132 236.267 219.396 229.898 219.512C223.529 219.638 218.269 214.571 218.153 208.196Z" fill="#1F1F89"/>
<path d="M261.798 207.355C261.61 197.552 269.401 189.45 279.197 189.262C288.992 189.074 297.087 196.872 297.284 206.674C297.472 216.477 289.681 224.579 279.885 224.776C270.09 224.964 261.994 217.167 261.798 207.364V207.355Z" fill="#060633"/>
<path d="M268.015 207.238C267.89 200.864 272.953 195.6 279.322 195.484C285.691 195.359 290.951 200.426 291.067 206.8C291.192 213.174 286.129 218.438 279.76 218.554C273.391 218.68 268.131 213.613 268.015 207.238Z" fill="#1F1F89"/>
<path d="M276.531 156.711L224.495 157.714C217.723 157.848 212.132 152.459 212.007 145.682L211.658 127.652L287.945 126.184L288.294 144.473C288.419 151.107 283.15 156.586 276.531 156.711Z" fill="#060633"/>
<path d="M165.536 144.411L178.265 144.169C182.836 144.08 185.493 149.361 182.729 153.05L175.671 162.45C174.329 164.231 171.699 164.285 170.286 162.557L161.948 152.298C159.417 149.182 161.555 144.5 165.536 144.42V144.411Z" fill="#060633"/>
<path d="M179.848 189.764L167.119 190.005C162.548 190.095 159.891 184.813 162.655 181.125L169.713 171.725C171.055 169.943 173.685 169.889 175.098 171.617L183.435 181.877C185.967 184.992 183.829 189.674 179.848 189.755V189.764Z" fill="#060633"/>
<path d="M197.498 160.274L197.748 173.157C197.838 177.776 192.614 180.462 188.973 177.669L179.678 170.525C177.916 169.173 177.862 166.505 179.571 165.082L189.715 156.649C192.792 154.088 197.426 156.255 197.507 160.283L197.498 160.274Z" fill="#060633"/>
<path d="M149.049 174.804L148.799 161.922C148.709 157.302 153.933 154.616 157.574 157.41L166.868 164.554C168.631 165.905 168.684 168.573 166.976 169.997L156.832 178.43C153.754 180.99 149.121 178.824 149.04 174.795L149.049 174.804Z" fill="#060633"/>
<path d="M294.118 165.834C293.742 146.353 309.048 130.257 328.307 129.89C347.567 129.523 363.481 145.011 363.856 164.491C364.232 183.971 348.926 200.068 329.667 200.435C310.407 200.802 294.493 185.314 294.118 165.834Z" fill="#1F1F89"/>
<path d="M322.734 147.938C322.654 143.918 325.847 140.606 329.864 140.525C333.88 140.445 337.19 143.641 337.27 147.66C337.351 151.68 334.157 154.992 330.141 155.073C326.124 155.154 322.815 151.958 322.734 147.947V147.938Z" fill="#060633"/>
<path d="M323.36 180.569C323.28 176.55 326.473 173.237 330.49 173.157C334.506 173.076 337.816 176.272 337.897 180.292C337.977 184.311 334.784 187.624 330.767 187.704C326.751 187.785 323.441 184.589 323.36 180.569Z" fill="#060633"/>
<path d="M346.592 156.523C350.608 156.443 353.918 159.639 353.998 163.649C354.079 167.669 350.885 170.981 346.869 171.062C342.852 171.143 339.543 167.947 339.462 163.927C339.382 159.907 342.575 156.595 346.592 156.514V156.523Z" fill="#FA7267"/>
<path d="M314.254 157.159C318.27 157.231 321.464 160.543 321.383 164.563C321.312 168.582 318.002 171.778 313.985 171.698C309.969 171.626 306.775 168.314 306.856 164.294C306.927 160.274 310.237 157.078 314.254 157.159Z" fill="#6C7AFF"/>
<path d="M247.467 160.426C247.467 160.426 246.59 166.595 248.791 169.674C250.992 172.754 255.536 177.158 254.364 178.331C253.192 179.504 240.141 172.897 240.436 171.429C240.731 169.961 242.78 163.945 242.341 160.417H247.476L247.467 160.426Z" fill="#FB9391"/>
<path d="M241.214 168.448C240.856 169.809 240.525 170.91 240.427 171.429C240.132 172.897 253.183 179.504 254.355 178.331C255.223 177.463 252.951 174.813 250.822 172.244C249.623 172.996 246.581 173.801 241.214 168.448Z" fill="#060633"/>
<path d="M234.577 161.42C234.577 161.42 233.7 167.588 235.901 170.668C238.101 173.748 242.645 178.152 241.474 179.325C240.302 180.498 227.25 173.891 227.546 172.423C227.841 170.954 229.889 164.938 229.451 161.411H234.586L234.577 161.42Z" fill="#FB9391"/>
<path d="M232.788 54.0544C235.722 56.4447 237.18 60.518 236.437 64.2333C235.829 67.2592 233.879 70.1239 234.371 73.1677C234.55 74.3136 235.069 75.37 235.4 76.4801C235.972 78.387 235.972 80.455 235.418 82.3618C235.033 83.6778 234.344 84.958 233.208 85.7279C232.43 86.2561 231.508 86.4978 230.596 86.7127C228.628 87.1782 226.597 87.5273 224.585 87.3125C222.572 87.0976 220.559 86.2561 219.271 84.6894C218.403 83.633 217.804 82.2186 216.534 81.7441C216.095 81.5829 215.621 81.5471 215.156 81.5203C213.349 81.4039 211.524 81.2786 209.753 81.6635C207.866 82.0664 206.094 83.0332 204.171 83.1049C201.416 83.2033 198.732 81.198 198.034 78.5302C197.337 75.8624 198.714 72.8007 201.165 71.5473C203.107 70.5536 205.692 70.5089 206.962 68.7363C208.035 67.2502 207.696 65.1464 208.51 63.5081C209.932 60.6613 213.957 60.4822 216.399 58.4411C218.761 56.4626 219.852 53.5173 222.858 52.255C226.007 50.93 230.211 51.9775 232.779 54.0544H232.788Z" fill="#0B0755"/>
<path d="M203.661 110.92C203.661 110.92 200.575 125.933 205.495 128.046C210.415 130.159 226.946 133.883 227.93 136.909C228.923 139.935 227.93 164.634 227.93 164.634L235.793 164.867C235.793 164.867 238.253 136.971 238.021 134.268C237.493 128.046 235.775 126.488 235.775 126.488C235.775 126.488 239.425 128.789 240.418 134.169C240.856 136.56 240.865 162.351 240.865 162.351L248.728 162.584C248.728 162.584 254.114 128.144 248.102 123.408C242.091 118.673 225.613 111.815 225.613 111.815L203.661 110.92Z" fill="#E2615A"/>
<path d="M234.407 90.8398L238.021 105.441L232.349 106.811C232.349 106.811 228.637 100.401 227.367 94.4565C226.096 88.5121 234.407 90.8308 234.407 90.8308V90.8398Z" fill="#FB9391"/>
<path d="M222.142 75.6028C222.142 75.6028 228.449 77.071 231.231 80.7415C234.013 84.412 235.775 92.3348 235.775 92.3348L229.764 94.2417C229.764 94.2417 229.469 98.6462 226.687 99.819C226.687 99.819 224.925 106.721 226.687 112.585C226.687 112.585 211.873 116.99 202.785 112.585L202.051 92.6213L196.478 90.2758C196.478 90.2758 199.412 77.5097 206.3 75.6028C213.197 73.696 218.341 74.2779 222.142 75.6028Z" fill="white"/>
<path d="M197.802 90.8396L205.486 93.8745C205.486 93.8745 203.652 100.15 204.243 103.337C205.182 108.413 212.204 113.561 215.648 113.337L215.487 116.381C215.487 116.381 198.365 115.298 196.46 105.683C194.555 96.0678 197.793 90.8307 197.793 90.8307L197.802 90.8396Z" fill="#FB9391"/>
<path d="M229.764 94.349C229.71 94.349 229.666 94.3042 229.666 94.2416C229.71 92.1467 227.868 89.4162 227.85 89.3804C227.814 89.3357 227.832 89.273 227.876 89.2372C227.921 89.2014 227.984 89.2193 228.02 89.264C228.1 89.3804 229.916 92.084 229.871 94.2416C229.871 94.2953 229.827 94.34 229.773 94.34L229.764 94.349Z" fill="#485F73"/>
<path d="M214.825 96.802C213.26 96.802 211.345 96.2827 209.315 94.537C209.27 94.5012 209.27 94.4386 209.306 94.3938C209.341 94.349 209.404 94.349 209.449 94.3848C214.387 98.6104 218.591 95.486 218.636 95.4591C218.681 95.4233 218.743 95.4323 218.779 95.477C218.815 95.5218 218.806 95.5845 218.761 95.6203C218.734 95.6382 217.169 96.802 214.834 96.802H214.825Z" fill="#485F73"/>
<path d="M206.515 94.349C206.515 94.349 206.488 94.349 206.479 94.349L205.459 93.982C205.406 93.9641 205.379 93.9014 205.397 93.8477C205.414 93.794 205.477 93.7671 205.531 93.785L206.452 94.1163L208.697 86.8022C208.715 86.7485 208.769 86.7216 208.823 86.7306C208.876 86.7485 208.903 86.8022 208.894 86.8559L206.613 94.2685C206.613 94.2685 206.586 94.3132 206.559 94.3311C206.542 94.3311 206.533 94.3401 206.515 94.3401V94.349Z" fill="#485F73"/>
<path d="M232.278 67.1965C232.278 67.1965 233.226 66.5161 233.566 67.0622C234.425 68.4677 232.635 69.2286 231.723 69.1928L232.278 67.1965Z" fill="#EA6868"/>
<path d="M228.789 53.2398C224.978 52.076 220.827 53.9918 219.226 57.6444C218.698 58.844 218.493 60.0973 218.573 61.3148C218.627 64.287 218.681 66.6952 219.164 68.611C219.656 70.5537 219.432 72.6038 218.475 74.3584L218.09 75.0567C217.723 75.7192 217.875 76.5518 218.448 77.0441C220.219 78.575 221.722 78.7988 222.661 78.7272C223.261 78.6824 223.779 78.2885 223.994 77.7245L225.345 74.1436C230.229 75.3521 232.859 66.4804 233.825 63.9289C233.861 63.8305 233.906 63.7409 233.942 63.6424C235.552 59.3722 233.244 54.5827 228.807 53.2308L228.789 53.2398Z" fill="#FB9391"/>
<path d="M225.408 60.5986C224.146 61.1806 222.965 61.9146 221.794 62.6487C220.55 63.4276 219.244 64.2602 218.546 65.5493C217.688 64.1796 217.428 62.5145 217.294 60.903C217.231 60.151 217.196 59.3901 217.357 58.656C217.589 57.6175 218.206 56.7133 218.806 55.836C219.584 54.708 220.407 53.5352 221.624 52.8907C222.429 52.4609 223.341 52.2998 224.245 52.2371C226.356 52.0849 228.538 52.4251 230.399 53.4457C232.26 54.4573 233.772 56.1762 234.344 58.2173C235.078 60.8493 234.219 63.6335 233.369 66.2297C233.512 65.0748 233.145 63.92 232.788 62.8099C232.555 62.0847 232.313 61.3506 231.848 60.7508C231.07 59.7213 230.73 59.7571 229.388 57.8592C228.324 59.2558 226.982 59.8556 225.408 60.5897V60.5986Z" fill="#0B0755"/>
<path d="M220.049 64.2511C220.022 63.9647 219.879 63.705 219.665 63.5081C219.226 63.1052 218.412 62.5412 217.553 62.9262C216.301 63.4991 217.222 66.6056 219.486 66.0864C219.486 66.0864 220.201 65.7641 220.04 64.2422L220.049 64.2511Z" fill="#FB9391"/>
<path d="M231.347 67.492C231.517 67.1518 231.374 66.731 231.034 66.5609C230.694 66.3908 230.274 66.5341 230.104 66.8742C229.934 67.2144 230.077 67.6352 230.417 67.8053C230.757 67.9754 231.177 67.8321 231.347 67.492Z" fill="#050521"/>
<path d="M225.032 65.4686C225.202 65.1285 225.059 64.7077 224.719 64.5376C224.379 64.3675 223.958 64.5107 223.788 64.8509C223.618 65.1911 223.762 65.6119 224.102 65.782C224.441 65.9521 224.862 65.8088 225.032 65.4686Z" fill="#050521"/>
<path d="M227.841 70.9565C227.841 70.9565 227.411 70.3656 227.045 70.3567C226.678 70.3477 226.365 70.6969 226.365 70.6969C226.365 70.6969 226.293 70.2224 225.882 70.0881C225.47 69.9538 224.218 69.9091 224.218 69.9091C224.218 69.9091 224.728 71.995 226.052 72.0755C227.376 72.1561 227.796 71.0192 227.796 71.0192L227.832 70.9654L227.841 70.9565Z" fill="#DD4E4E"/>
<path d="M226.472 71.3056C224.969 71.1624 223.932 69.6852 223.914 69.6673C223.887 69.6226 223.896 69.5599 223.94 69.5331C223.985 69.5062 224.048 69.5151 224.075 69.5599C224.146 69.6584 225.765 71.9502 227.876 70.8132C227.921 70.7864 227.984 70.8132 228.011 70.8491C228.038 70.8938 228.011 70.9565 227.975 70.9833C227.438 71.2698 226.937 71.3504 226.472 71.3056Z" fill="#050521"/>
<path d="M223.252 64.0005C223.171 63.9647 223.118 63.9021 223.091 63.8125C223.046 63.6603 223.135 63.4992 223.288 63.4544C223.332 63.4455 224.433 63.1411 225.586 63.7141C225.73 63.7857 225.792 63.9558 225.721 64.099C225.649 64.2423 225.461 64.296 225.336 64.2333C224.37 63.7588 223.466 64.0095 223.449 64.0095C223.377 64.0274 223.314 64.0184 223.252 64.0005Z" fill="#0B0755"/>
<path d="M230.077 65.7552C230.006 65.7104 229.961 65.6299 229.952 65.5493C229.934 65.3881 230.05 65.2539 230.211 65.2359C230.256 65.2359 231.383 65.1285 232.421 65.8984C232.546 65.9969 232.573 66.1759 232.483 66.3013C232.385 66.4266 232.206 66.4535 232.081 66.3639C231.213 65.7194 230.274 65.8089 230.265 65.8089C230.193 65.8089 230.131 65.7999 230.077 65.7641V65.7552Z" fill="#0B0755"/>
<path d="M226.964 68.6468C226.767 68.6468 226.544 68.602 226.284 68.4857C226.231 68.4588 226.213 68.4051 226.231 68.3514C226.257 68.2977 226.311 68.2798 226.365 68.2977C227.268 68.6916 227.653 68.1544 227.733 68.0022C227.34 66.7847 227.903 65.5314 227.93 65.4777C227.957 65.4239 228.011 65.406 228.064 65.424C228.118 65.4508 228.136 65.5045 228.118 65.5582C228.118 65.5672 227.554 66.8205 227.948 67.9754C227.948 68.0022 227.948 68.0291 227.948 68.047C227.948 68.047 227.671 68.6289 226.973 68.6289L226.964 68.6468Z" fill="#EA6868"/>
<path d="M215.496 116.39C215.496 116.39 216.23 116.864 217.169 116.909C218.108 116.954 220.89 116.694 221.337 116.766C221.785 116.828 224.021 117.697 224.45 117.589C224.88 117.482 222.312 115.933 222.312 115.933C222.312 115.933 224.683 116.945 224.996 116.578C225.3 116.211 222.849 114.904 222.849 114.904C222.849 114.904 225.264 115.638 225.425 115.235C225.586 114.823 223.261 114.089 223.261 114.089C223.261 114.089 225.47 114.42 225.586 114.089C225.712 113.758 222.518 112.576 221.167 112.657C219.817 112.737 215.639 113.346 215.639 113.346L215.478 116.39H215.496Z" fill="#FB9391"/>
<path d="M228.333 169.45C227.975 170.811 227.644 171.912 227.546 172.432C227.25 173.9 240.302 180.507 241.474 179.334C242.341 178.465 240.069 175.816 237.94 173.246C236.741 173.998 233.7 174.804 228.333 169.45Z" fill="#060633"/>
<path d="M257.244 103.57L231.392 101.296L221.615 119.514L247.476 121.788L257.244 103.57Z" fill="#060633"/>
<path d="M226.781 118.826L209.468 117.298L209.367 118.439L226.681 119.967L226.781 118.826Z" fill="#060633"/>
<path d="M223.135 67.0801C222.742 66.8831 222.411 66.5787 222.178 66.1938C221.856 65.6567 221.767 65.03 221.919 64.4212C222.232 63.1679 223.502 62.4159 224.755 62.7292C225.998 63.0426 226.758 64.3138 226.445 65.5671C226.293 66.1759 225.917 66.6862 225.381 66.9995C224.844 67.3218 224.218 67.4113 223.61 67.2591C223.44 67.2144 223.279 67.1607 223.135 67.0801ZM225.166 63.0336C225.023 62.962 224.88 62.9083 224.719 62.8725C223.547 62.577 222.357 63.2932 222.062 64.466C221.919 65.03 222.008 65.6208 222.303 66.1311C222.608 66.6325 223.082 66.9906 223.645 67.1338C224.218 67.277 224.799 67.1875 225.309 66.8921C225.81 66.5877 226.168 66.1132 226.311 65.5492C226.57 64.5376 226.07 63.4991 225.166 63.0515V63.0336Z" fill="#060633"/>
<path d="M229.683 69.0407C229.29 68.8437 228.959 68.5393 228.726 68.1544C228.404 67.6172 228.315 66.9906 228.467 66.3818C228.78 65.1285 230.05 64.3765 231.303 64.6898C231.911 64.842 232.412 65.218 232.734 65.7551C233.056 66.2923 233.145 66.9189 232.993 67.5277C232.841 68.1365 232.466 68.6467 231.929 68.9601C231.392 69.2824 230.766 69.3719 230.158 69.2197C229.988 69.1749 229.827 69.1212 229.683 69.0407ZM231.714 64.9942C231.571 64.9226 231.419 64.8688 231.267 64.8241C230.095 64.5287 228.905 65.2448 228.61 66.4176C228.315 67.5904 229.03 68.79 230.202 69.0765C230.766 69.2197 231.356 69.1302 231.866 68.8347C232.367 68.5304 232.725 68.0559 232.868 67.4919C233.011 66.9279 232.922 66.337 232.627 65.8267C232.412 65.4597 232.099 65.1732 231.732 64.9942H231.714Z" fill="#060633"/>
<path d="M219.378 63.2664L219.423 63.1321L222.071 64.1347L222.026 64.269L219.378 63.2664Z" fill="#060633"/>
<path d="M226.302 65.8984L226.266 65.7641C227.85 65.3344 228.565 66.4176 228.574 66.4266L228.458 66.5071C228.458 66.5071 227.778 65.5045 226.302 65.9073V65.8984Z" fill="#060633"/>
<path d="M239.953 111.332C240.087 110.821 240.552 110.508 240.999 110.624C241.447 110.741 241.697 111.251 241.563 111.752C241.429 112.263 240.964 112.576 240.516 112.46C240.069 112.343 239.819 111.833 239.953 111.332Z" fill="white"/>
<path d="M332.511 288.947C332.511 288.947 342.208 293.244 344.418 293.799C346.627 294.354 353.837 293.387 350.232 288.947C346.627 284.515 343.586 286.87 337.074 283.54C330.561 280.209 332.503 288.947 332.503 288.947H332.511Z" fill="white"/>
<path d="M308.037 264.381C308.037 264.381 289.654 260.326 286.022 270.72C282.39 281.113 300.317 285.983 303.645 286.727C306.972 287.479 314.621 288.114 316.347 288.669C318.082 289.224 324.514 289.779 325.418 290.191C326.321 290.603 335.598 292.751 335.598 292.751L342.521 283.262L335.32 277.121L332.252 265.823L308.046 264.381H308.037Z" fill="#E85B54"/>
<path d="M321.956 221.043C321.956 221.043 336.913 220.21 344.185 230.81C351.458 241.41 357.067 250.971 347.093 260.12C337.118 269.269 323.208 264.695 323.208 264.695L304.718 265.841C304.718 265.841 285.61 264.489 290.173 246.611C294.744 228.733 305.89 221.455 321.956 221.043Z" fill="white"/>
<path d="M338.362 241.83H304.548C304.049 241.83 303.645 242.235 303.645 242.735V266.288C303.645 266.788 304.049 267.192 304.548 267.192H338.362C338.861 267.192 339.265 266.788 339.265 266.288V242.735C339.265 242.235 338.861 241.83 338.362 241.83Z" fill="#060633"/>
<path d="M312.402 291.167C312.402 291.167 302.705 295.464 300.496 296.019C298.277 296.574 291.076 295.607 294.681 291.167C298.277 286.736 301.328 289.09 307.84 285.76C314.352 282.429 312.411 291.167 312.411 291.167H312.402Z" fill="white"/>
<path d="M332.243 252.242C332.243 252.242 332.181 252.224 332.154 252.197C332.109 252.144 332.118 252.072 332.163 252.027C340.115 245 345.044 245.823 345.25 245.868C345.312 245.877 345.357 245.94 345.348 246.011C345.339 246.074 345.277 246.119 345.205 246.11C345.16 246.11 340.178 245.277 332.324 252.215C332.297 252.233 332.27 252.242 332.243 252.242Z" fill="#060633"/>
<path d="M310.327 252.242C310.327 252.242 310.264 252.233 310.237 252.206C305.228 247.202 297.597 245.501 297.526 245.483C297.463 245.465 297.418 245.402 297.436 245.34C297.454 245.277 297.517 245.232 297.579 245.25C297.66 245.268 305.362 246.978 310.416 252.036C310.461 252.081 310.461 252.162 310.416 252.206C310.389 252.233 310.363 252.242 310.327 252.242Z" fill="#060633"/>
<path d="M334.837 243.549C334.784 243.549 334.73 243.514 334.721 243.451L333.478 237.48C333.46 237.417 333.504 237.354 333.567 237.336C333.63 237.318 333.692 237.363 333.71 237.426L334.954 243.397C334.971 243.46 334.927 243.522 334.864 243.54C334.864 243.54 334.846 243.54 334.837 243.54V243.549Z" fill="#060633"/>
<path d="M306.793 244.758C306.793 244.758 306.793 244.758 306.784 244.758C306.722 244.758 306.668 244.695 306.677 244.632L307.196 238.187C307.196 238.124 307.267 238.07 307.33 238.079C307.393 238.079 307.446 238.142 307.437 238.205L306.919 244.65C306.919 244.713 306.865 244.758 306.802 244.758H306.793Z" fill="#060633"/>
<path d="M305.559 212.055C305.559 212.055 304.432 211.392 304.11 212.046C303.296 213.711 305.246 214.374 306.266 214.239L305.559 212.055Z" fill="#EA6868"/>
<path d="M329.023 274.104C329.023 274.104 329.005 274.104 328.996 274.104C328.101 273.925 325.901 273.2 323.96 272.564C322.877 272.206 321.938 271.901 321.419 271.749C320.006 271.337 314.075 270.791 314.012 270.782C313.887 270.756 302.804 268.562 301.569 268.285C301.507 268.267 301.462 268.204 301.48 268.141C301.498 268.079 301.551 268.034 301.623 268.052C302.857 268.329 313.941 270.523 314.048 270.55C314.281 270.568 320.05 271.105 321.482 271.525C322.001 271.678 322.94 271.982 324.031 272.34C325.874 272.949 328.164 273.701 329.041 273.88C329.103 273.889 329.148 273.961 329.139 274.023C329.13 274.077 329.076 274.122 329.023 274.122V274.104Z" fill="#060633"/>
<path d="M323.414 221.007C321.544 217.229 320.578 213.075 320.534 208.859C320.516 207.427 320.408 205.833 320.265 204.025C320.211 202.547 319.8 201.052 318.959 199.683C316.705 195.976 312.008 194.437 307.992 196.084C303.17 198.062 301.104 203.658 303.349 208.268C303.403 208.375 303.457 208.474 303.51 208.572C304.807 211.222 307.554 220.909 313.359 219.333L314.155 223.263C314.155 223.263 318.852 224.597 323.423 221.016L323.414 221.007Z" fill="#FB9391"/>
<path d="M306.516 210.685C306.355 210.363 306.489 209.978 306.811 209.817C307.133 209.656 307.518 209.79 307.679 210.112C307.84 210.435 307.706 210.819 307.384 210.981C307.062 211.142 306.677 211.007 306.516 210.685Z" fill="#060633"/>
<path d="M314.209 208.725C314.048 208.402 314.182 208.017 314.504 207.856C314.826 207.695 315.211 207.829 315.372 208.152C315.533 208.474 315.399 208.859 315.077 209.02C314.755 209.181 314.37 209.047 314.209 208.725Z" fill="#060633"/>
<path d="M311.597 215.869C311.15 215.869 310.676 215.761 310.175 215.493C310.103 215.457 310.076 215.367 310.112 215.296C310.148 215.224 310.237 215.197 310.309 215.233C312.617 216.486 314.406 213.971 314.486 213.863C314.531 213.801 314.621 213.783 314.683 213.827C314.746 213.872 314.764 213.962 314.719 214.024C314.701 214.051 313.413 215.86 311.597 215.86V215.869Z" fill="#060633"/>
<path d="M320.355 200.766L320.82 207.113L319.227 207.534L314.934 200.963L320.355 200.766Z" fill="#060633"/>
<path d="M318.914 207.471C318.914 207.149 319.049 206.845 319.263 206.603C319.711 206.11 320.56 205.385 321.562 205.734C323.029 206.236 322.323 209.817 319.737 209.477C319.737 209.477 318.905 209.19 318.923 207.48L318.914 207.471Z" fill="#FB9391"/>
<path d="M311.293 213.317C311.132 213.317 310.953 213.29 310.756 213.237C310.506 213.165 310.354 213.066 310.282 212.932C310.175 212.735 310.246 212.511 310.336 212.225C310.497 211.697 310.738 210.891 310.264 209.512C310.237 209.441 310.282 209.351 310.354 209.333C310.425 209.306 310.515 209.351 310.532 209.423C311.033 210.891 310.765 211.786 310.604 212.314C310.532 212.547 310.488 212.708 310.532 212.798C310.568 212.861 310.667 212.914 310.837 212.968C311.865 213.263 312.366 212.502 312.384 212.467C312.429 212.395 312.518 212.377 312.581 212.422C312.653 212.467 312.67 212.556 312.626 212.619C312.626 212.619 312.17 213.326 311.284 213.326L311.293 213.317Z" fill="#EA6868"/>
<path d="M312.975 207.57C312.823 207.57 312.679 207.489 312.599 207.355C312.483 207.149 312.554 206.88 312.76 206.764C314.37 205.833 315.882 206.451 315.945 206.478C316.168 206.567 316.267 206.827 316.177 207.042C316.088 207.265 315.828 207.364 315.614 207.274C315.56 207.256 314.415 206.8 313.198 207.507C313.127 207.543 313.055 207.561 312.984 207.561L312.975 207.57Z" fill="#060633"/>
<path d="M305.138 210.533C305.049 210.533 304.959 210.506 304.879 210.452C304.682 210.309 304.646 210.041 304.79 209.844C305.756 208.519 307.08 208.277 307.142 208.268C307.384 208.223 307.598 208.384 307.643 208.617C307.688 208.85 307.527 209.074 307.294 209.118C307.276 209.118 306.239 209.333 305.487 210.354C305.407 210.47 305.273 210.533 305.138 210.533Z" fill="#060633"/>
<path d="M319.711 199.02C320.256 198.259 319.863 197.015 318.968 196.728C318.843 196.693 318.718 196.666 318.61 196.585C318.467 196.478 318.396 196.308 318.333 196.138C318.199 195.779 318.074 195.421 317.939 195.054C317.895 194.938 317.85 194.822 317.751 194.75C317.662 194.687 317.555 194.678 317.447 194.66C316.83 194.598 316.141 194.553 315.64 194.92C314.969 194.508 314.236 194.079 313.449 194.132C313.198 194.15 312.948 194.213 312.697 194.222C311.722 194.24 310.81 193.335 309.897 193.658C309.656 193.738 309.45 193.899 309.235 194.025C308.591 194.383 307.831 194.446 307.124 194.66C306.418 194.875 305.693 195.341 305.568 196.066C305.541 196.218 305.541 196.388 305.451 196.523C305.371 196.648 305.228 196.719 305.094 196.773C304.342 197.095 303.51 197.301 302.902 197.839C302.294 198.385 302.025 199.45 302.634 199.996C302.151 200.202 301.703 200.542 301.444 201.008C301.185 201.473 301.149 202.073 301.426 202.53C301.48 202.619 301.551 202.709 301.551 202.816C301.551 203.013 301.363 203.138 301.211 203.255C300.478 203.792 300.281 204.947 300.8 205.699C300.907 205.86 301.05 206.012 301.104 206.2C301.158 206.37 301.131 206.54 301.149 206.719C301.202 207.194 301.596 207.606 302.061 207.677C302.634 207.767 303.179 207.4 303.645 207.042C303.653 207.265 303.931 207.355 304.154 207.364C305.523 207.435 306.874 206.415 307.178 205.072C307.965 205.144 308.949 205.117 309.316 204.41C309.396 204.257 309.432 204.087 309.477 203.917C309.611 203.344 309.736 202.78 309.871 202.207C310.112 202.162 310.327 202.404 310.398 202.637C310.47 202.879 310.47 203.138 310.586 203.353C310.872 203.881 311.633 203.863 312.223 203.765C312.554 203.711 312.903 203.649 313.198 203.487C313.493 203.317 313.735 203.022 313.744 202.682C314.066 203.201 314.791 203.255 315.39 203.192C316.902 203.031 318.217 202.467 319.523 201.706C319.997 201.428 320.328 201.303 320.408 200.703C320.498 200.086 320.238 199.396 319.728 199.02H319.711Z" fill="#060633"/>
<path d="M335.392 263.45C335.392 263.45 347.996 255.966 354.777 264.14C361.566 272.313 349.517 278.687 346.61 281.328C343.702 283.96 340.375 285.76 336.778 286.181C333.182 286.592 332.073 287.013 327.914 288.401C323.763 289.788 320.301 291.033 319.881 291.31C319.469 291.588 312.679 293.942 312.679 293.942C312.679 293.942 305.756 287.013 305.613 284.936C305.613 284.936 312.402 278.893 314.334 277.139C316.276 275.375 325.552 273.164 327.216 270.944C328.88 268.723 335.383 263.459 335.383 263.459L335.392 263.45Z" fill="#FA7267"/>
<path d="M321.455 255.724C322.127 255.724 322.671 255.179 322.671 254.507C322.671 253.835 322.127 253.289 321.455 253.289C320.783 253.289 320.238 253.835 320.238 254.507C320.238 255.179 320.783 255.724 321.455 255.724Z" fill="white"/>
<path d="M439.311 274.345C439.311 274.345 439.562 281.651 439.624 281.749C439.687 281.848 439.141 282.796 439.141 282.796L436.86 283.325L434.713 282.456C434.713 282.456 434.57 275.661 434.302 274.605C434.033 273.549 439.311 274.354 439.311 274.354V274.345Z" fill="white"/>
<path d="M434.713 282.447C434.713 282.447 437.406 283.244 439.598 281.606C439.598 281.606 448.588 284.488 448.436 287.022C448.436 287.022 448.847 287.756 445.018 287.774C441.19 287.801 435.232 287.917 435.071 287.837C434.91 287.756 434.177 288.195 434.713 282.456V282.447Z" fill="#17152B"/>
<path d="M407.859 274.345C407.859 274.345 407.609 281.651 407.546 281.749C407.483 281.848 408.029 282.796 408.029 282.796L410.31 283.325L412.457 282.456C412.457 282.456 412.6 275.661 412.869 274.605C413.137 273.549 407.859 274.354 407.859 274.354V274.345Z" fill="white"/>
<path d="M412.457 282.447C412.457 282.447 409.764 283.244 407.573 281.606C407.573 281.606 398.583 284.488 398.735 287.022C398.735 287.022 398.323 287.756 402.152 287.774C405.98 287.801 411.938 287.917 412.099 287.837C412.26 287.756 412.994 288.195 412.457 282.456V282.447Z" fill="#17152B"/>
<path d="M412.886 195.744C412.886 195.744 407.805 212.816 405.793 276.36L414.774 278.285C414.774 278.285 425.294 222.413 426.063 221.714C426.832 221.016 432.459 278.285 432.459 278.285H442.192L442.702 200.775L412.886 195.744Z" fill="#060633"/>
<path d="M447.55 148.976C447.55 148.976 453.382 134.402 448.686 114.859L444.759 115.942C444.759 115.942 446.772 133.775 439.642 145.718L447.55 148.976Z" fill="#FB9391"/>
<path d="M405.05 149.836C405.05 149.836 402.653 134.312 411.634 116.336L415.212 118.279C415.212 118.279 409.228 135.199 413.486 148.439L405.05 149.827V149.836Z" fill="#FB9391"/>
<path d="M445.081 116.918C445.081 116.918 442.487 112.388 442.004 110.956C441.521 109.532 440 108.503 440.689 107.966C441.369 107.428 443.301 109.577 443.301 109.577C443.301 109.577 443.757 106.551 443.748 105.602C443.748 104.653 444.178 102.952 444.866 102.89C445.564 102.836 445.251 107.402 445.251 107.402C445.251 107.402 445.886 103.579 446.521 103.391C447.147 103.203 447.058 108.18 447.058 108.18C447.058 108.18 447.541 104.071 447.854 103.785C448.176 103.498 448.552 103.892 448.74 105.387C448.919 106.882 448.722 108.458 448.722 108.458C448.722 108.458 449.277 105.593 449.464 105.271C449.652 104.949 450.144 104.644 450.18 106.891C450.216 109.138 449.572 113.892 448.23 116.175L445.081 116.9V116.918Z" fill="#FB9391"/>
<path d="M414.854 118.753C414.854 118.753 418.245 116.282 419.381 115.298C420.517 114.313 422.351 114.205 422.038 113.4C421.725 112.585 418.969 113.453 418.969 113.453C418.969 113.453 420.123 110.615 420.606 109.801C421.089 108.986 421.59 107.303 421.018 106.9C420.445 106.497 418.388 110.589 418.388 110.589C418.388 110.589 419.783 106.972 419.345 106.488C418.898 106.005 416.447 110.338 416.447 110.338C416.447 110.338 418.128 106.56 418.003 106.148C417.878 105.736 417.341 105.88 416.429 107.079C415.507 108.27 414.881 109.729 414.881 109.729C414.881 109.729 415.865 106.981 415.865 106.614C415.865 106.247 415.606 105.727 414.425 107.643C413.253 109.559 411.491 114.035 411.473 116.694L414.863 118.762L414.854 118.753Z" fill="#FB9391"/>
<path d="M445.081 205.609C445.081 205.609 442.433 170.767 443.131 167.042C443.829 163.318 450.806 148.565 450.806 148.565L438.953 142.638C438.953 142.638 434.293 156.81 427.557 155.879C420.821 154.948 416.867 152.62 414.774 144.482L401.526 151.671C401.526 151.671 409.899 161.25 409.666 172.172C409.433 183.094 409.899 204.794 409.899 204.794C409.899 204.794 435.554 211.885 445.09 205.609H445.081Z" fill="#DD5E58"/>
<path d="M419.443 142.2C419.443 142.2 418.898 141.179 418.361 141.528C416.992 142.405 418.155 143.802 418.978 144.16L419.443 142.2Z" fill="#EA6868"/>
<path d="M419.479 138.636C419.479 138.538 419.488 138.44 419.497 138.332C419.909 133.838 424.023 130.579 428.541 131.296C432.307 131.895 435.143 135.199 435.143 139.012C435.143 140.427 434.776 141.743 434.141 142.88C433.246 144.644 432.468 146.148 431.681 147.383C430.366 149.433 429.793 151.868 429.981 154.294L430.124 156.201C425.088 158.323 423.12 155.744 423.12 155.744L423.344 152.289C423.37 151.841 423.048 151.447 422.601 151.376C416.688 150.445 419.22 141.322 419.461 138.645L419.479 138.636Z" fill="#FB9391"/>
<path d="M427.154 143.471C427.19 143.068 427.548 142.772 427.951 142.808C428.353 142.844 428.648 143.202 428.613 143.605C428.577 144.008 428.219 144.303 427.816 144.267C427.414 144.232 427.119 143.874 427.154 143.471Z" fill="#050521"/>
<path d="M420.812 141.591C420.848 141.188 421.206 140.892 421.608 140.928C422.011 140.964 422.306 141.322 422.27 141.725C422.234 142.128 421.877 142.423 421.474 142.387C421.071 142.352 420.776 141.994 420.812 141.591Z" fill="#050521"/>
<path d="M429.865 142.575C429.936 142.575 430.017 142.576 430.089 142.531C430.303 142.432 430.393 142.173 430.285 141.958C429.972 141.313 428.943 140.275 427.244 140.946C427.02 141.036 426.913 141.277 427.002 141.501C427.092 141.725 427.333 141.832 427.557 141.743C428.952 141.197 429.498 142.289 429.516 142.334C429.588 142.477 429.722 142.558 429.865 142.575Z" fill="#050521"/>
<path d="M423.147 140.821C423.218 140.821 423.299 140.821 423.37 140.776C423.585 140.669 423.675 140.418 423.567 140.203C423.254 139.559 422.225 138.52 420.526 139.192C420.302 139.281 420.195 139.523 420.284 139.747C420.374 139.97 420.615 140.078 420.839 139.988C422.234 139.442 422.78 140.534 422.798 140.579C422.87 140.722 423.004 140.803 423.147 140.821Z" fill="#050521"/>
<path d="M435.778 140.364L433.175 145.458L431.779 145.046L431.556 138.144L435.778 140.364Z" fill="#0B0755"/>
<path d="M431.582 144.858C431.734 144.617 431.967 144.447 432.244 144.366C432.808 144.196 433.774 144.044 434.373 144.76C435.241 145.807 433.085 148.18 431.287 146.738C431.287 146.738 430.795 146.148 431.582 144.858Z" fill="#FB9391"/>
<path d="M423.174 145.763C423.845 146.165 424.498 145.852 424.507 145.843C424.569 145.807 424.596 145.736 424.56 145.673C424.533 145.61 424.453 145.584 424.39 145.619C424.363 145.637 423.63 145.986 422.995 145.288C422.887 145.172 422.843 145.082 422.843 145.029C422.843 144.939 422.959 144.841 423.12 144.697C423.487 144.375 424.095 143.82 424.39 142.495C424.408 142.423 424.363 142.361 424.292 142.343C424.22 142.325 424.158 142.37 424.14 142.441C423.862 143.695 423.317 144.187 422.95 144.518C422.753 144.697 422.601 144.832 422.592 145.029C422.592 145.163 422.655 145.306 422.807 145.476C422.923 145.61 423.048 145.709 423.174 145.781V145.763Z" fill="#EA6868"/>
<path d="M425.991 147.365C425.991 147.365 422.995 147.464 421.197 146.416C421.197 146.416 421.456 148.744 423.165 149.084C424.873 149.424 426 147.374 426 147.374L425.991 147.365Z" fill="white"/>
<path d="M421.009 135.718C421.009 135.718 419.819 136.407 419.103 141.125C419.103 141.125 419.202 135.799 419.846 135.27C420.49 134.742 421.009 135.718 421.009 135.718Z" fill="#0B0755"/>
<path d="M436.458 138.69C436.565 137.535 436.261 136.38 435.885 135.288C436.413 135.467 436.994 135.637 437.495 135.396C437.996 135.154 438.157 134.304 437.647 134.089C437.352 133.963 437.012 134.116 436.69 134.089C435.957 134.044 435.599 133.176 435.509 132.45C435.42 131.725 435.384 130.875 434.794 130.436C434.606 130.302 434.382 130.221 434.159 130.203C433.828 131 433.765 131.904 433.998 132.737C433.354 131.519 432.468 130.436 431.403 129.568C430.572 128.896 429.543 128.332 428.487 128.458C428.112 129.228 429.382 129.881 429.382 130.732C427.691 129.926 425.875 129.38 424.015 129.12C423.54 129.057 423.039 129.004 422.574 129.129C422.109 129.254 421.662 129.577 421.528 130.042C421.349 130.651 421.823 131.367 422.458 131.43C421.465 131.672 420.463 131.913 419.56 132.406C418.665 132.889 417.869 133.659 417.574 134.635C418.245 134.778 418.942 134.742 419.595 134.536C419.121 134.832 418.656 135.324 418.764 135.879C418.844 136.291 419.22 136.586 419.622 136.694C420.025 136.801 420.445 136.756 420.857 136.712C422.941 136.479 425.025 136.237 427.11 136.004C426.179 136.676 425.419 137.589 424.918 138.628C426.743 138.78 428.604 138.377 430.196 137.491C430.196 138.359 430.312 139.236 430.545 140.078C430.58 140.212 430.625 140.346 430.733 140.436C431.081 140.731 431.52 140.203 431.931 140.006C432.432 139.756 433.049 140.033 433.479 140.4C434.221 141.027 434.669 141.806 435.509 140.946C436.073 140.364 436.368 139.496 436.449 138.708L436.458 138.69Z" fill="#0B0755"/>
<path d="M44.7273 230.649C44.7273 230.649 34.5921 227.023 33.0892 227.668C32.2305 228.035 26.4249 239.583 27.9098 240.523C29.3948 241.463 35.0125 233.129 38.2329 233.549C41.4532 233.979 44.1279 235.367 44.1279 235.367L44.7273 230.649Z" fill="#FB9391"/>
<path d="M37.2936 228.286C31.8637 233.272 32.1589 235.725 32.9103 236.781C30.7276 238.84 28.7238 241.034 27.9277 240.523C26.4427 239.583 32.2483 228.044 33.1071 227.668C33.6528 227.435 35.3614 227.766 37.3025 228.286H37.2936Z" fill="#060633"/>
<path d="M90.5547 276.315C90.5547 276.315 89.3112 287.344 90.3221 288.696C90.9035 289.466 103.946 292.59 104.545 290.881C105.145 289.171 95.3763 285.482 95.0453 282.143C94.7143 278.813 95.4747 275.805 95.4747 275.805L90.5636 276.315H90.5547Z" fill="#FB9391"/>
<path d="M89.9376 284.345C96.271 288.633 98.6773 287.756 99.5629 286.762C102.166 288.472 104.859 289.967 104.537 290.889C103.937 292.599 90.8948 289.475 90.3133 288.705C89.9465 288.213 89.875 286.422 89.9376 284.345Z" fill="#060633"/>
<path d="M103.293 152.495C101.781 151.976 100.1 151.483 99.2051 150.158C97.8364 148.126 98.9546 145.109 97.5412 143.104C96.423 141.51 94.1688 141.224 92.6749 139.961C91.3062 138.807 90.7427 136.971 89.705 135.512C86.3236 130.74 79.8829 131.564 75.8038 134.814C75.1865 135.306 74.623 135.852 74.131 136.443C72.485 138.422 71.5905 141.089 72.0825 143.614C72.4224 145.378 73.469 147.195 72.7355 149.003C72.0556 150.668 70.2576 151.358 68.9963 152.477C67.6455 153.676 66.6794 155.539 66.8046 157.383C66.9567 159.567 68.5579 161.725 67.7886 163.775C67.243 165.243 65.7401 165.995 64.7293 167.096C63.6022 168.331 62.8507 169.925 62.7523 171.608C62.5913 174.553 64.6667 177.535 67.6545 178.018C69.1483 178.26 70.678 177.884 72.1093 177.382C74.8466 176.415 77.4139 174.974 79.6682 173.139C81.8777 171.339 83.8368 169.119 86.4757 168.036C88.7568 167.096 91.3062 167.123 93.7573 166.81C96.1726 166.505 98.5878 165.87 101.012 166.129C102.094 166.246 103.15 166.541 104.232 166.622C105.315 166.702 106.478 166.541 107.319 165.861C108.159 165.18 108.553 163.864 107.954 162.96C107.676 162.548 107.247 162.271 106.943 161.877C105.592 160.113 107.542 157.508 106.907 155.377C106.451 153.847 104.805 153.032 103.293 152.513V152.495Z" fill="#060633"/>
<path d="M63.8348 163.417C63.8348 163.417 46.7668 156.371 44.7988 139.478L48.0729 139.415C48.0729 139.415 53.2344 153.032 68.1554 157.159L63.8348 163.426V163.417Z" fill="#FB9391"/>
<path d="M101.719 156.953C102.381 156.756 113.464 151 115.03 127.741L118.644 128.341C118.644 128.341 119.377 159.504 107.802 164.41L101.719 156.944V156.953Z" fill="#FB9391"/>
<path d="M84.0515 156.908C84.0515 156.908 76.9846 157.499 73.7463 156.908C70.5081 156.317 66.9746 154.849 66.9746 154.849L62.7076 166.487C62.7076 166.487 73.7463 169.728 73.3796 171.644C73.0128 173.56 72.5655 189.173 76.5463 190.497H93.9183C93.9183 190.497 99.8044 189.316 99.8044 181.957C99.8044 174.598 100.833 171.644 102.604 170.319C104.367 168.994 111.881 164.133 111.881 164.133L104.966 153.381C104.966 153.381 97.3087 156.622 94.3656 156.765C91.4226 156.908 84.0604 156.908 84.0604 156.908H84.0515Z" fill="white"/>
<path d="M76.5463 190.498C76.5463 190.498 72.4761 198.796 71.0985 203.702C69.7209 208.617 68.3522 229.825 66.7778 231.795C65.2034 233.755 43.0276 229.637 43.0276 229.637L41.2654 234.937C41.2654 234.937 64.2284 248.097 71.4921 245.743C78.7558 243.388 87.2897 215.886 87.2897 215.886C87.2897 215.886 91.1184 242.6 90.3312 248.491C89.544 254.382 88.7568 279.332 88.7568 279.332H96.6109C96.6109 279.332 100.538 259.69 102.891 233.174C105.243 206.657 93.9094 190.498 93.9094 190.498H76.5373H76.5463Z" fill="#060633"/>
<path d="M91.2079 143.345C91.2079 143.345 91.682 142.262 92.2634 142.576C93.7305 143.363 92.5586 144.948 91.7446 145.378L91.2079 143.345Z" fill="#EA6868"/>
<path d="M81.0279 132.934C77.1008 133.874 74.453 137.67 74.9182 141.68C75.0702 142.996 75.5354 144.196 76.2152 145.225C77.7807 147.804 79.0599 149.872 80.4643 151.304C81.8867 152.754 82.7454 154.652 82.7991 156.685L82.8528 158.735C87.8622 160.256 89.4814 157.607 89.4814 157.607L88.6942 152.987C93.5784 151.537 91.351 142.441 90.8858 139.711C90.8679 139.612 90.859 139.505 90.8411 139.406C90.0628 134.85 85.599 131.842 81.0279 132.934Z" fill="#FB9391"/>
<path d="M81.833 141.098C81.0279 142.253 80.3749 143.498 79.7219 144.742C79.0331 146.058 78.3174 147.455 78.3711 148.941C76.922 148.18 75.8485 146.864 74.9003 145.521C74.462 144.903 74.0415 144.25 73.8089 143.533C73.478 142.504 73.5585 141.403 73.639 140.328C73.7463 138.941 73.8626 137.499 74.5961 136.309C75.0792 135.521 75.7948 134.912 76.5552 134.393C78.3264 133.176 80.4107 132.361 82.5486 132.298C84.6956 132.236 86.8961 132.961 88.4348 134.456C90.4206 136.38 91.0916 139.254 91.673 141.958C91.2078 140.875 90.2954 140.051 89.4188 139.272C88.8462 138.762 88.2558 138.243 87.5492 137.947C86.3415 137.446 86.0642 137.652 83.9262 136.676C83.7116 138.439 82.8438 139.657 81.842 141.098H81.833Z" fill="#060633"/>
<path d="M79.0152 147.034C78.8452 146.801 78.5858 146.64 78.2996 146.577C77.7181 146.452 76.7073 146.371 76.1616 147.15C75.3565 148.287 77.7539 150.543 79.4714 148.923C79.4714 148.923 79.9276 148.278 79.0152 147.025V147.034Z" fill="#FB9391"/>
<path d="M89.9108 143.65C89.8839 143.265 89.544 142.969 89.1593 142.996C88.7747 143.023 88.4795 143.363 88.5063 143.748C88.5332 144.133 88.8731 144.429 89.2577 144.402C89.6424 144.375 89.9376 144.035 89.9108 143.65Z" fill="#060633"/>
<path d="M83.5058 145.494C83.479 145.109 83.139 144.814 82.7544 144.84C82.3697 144.867 82.0745 145.207 82.1014 145.592C82.1282 145.977 82.4681 146.273 82.8528 146.246C83.2374 146.219 83.5326 145.879 83.5058 145.494Z" fill="#060633"/>
<path d="M81.0548 144.894C80.9742 144.903 80.8848 144.876 80.8222 144.814C80.7059 144.706 80.6969 144.518 80.8132 144.402C80.849 144.366 81.6541 143.542 82.9512 143.453C83.1122 143.444 83.2553 143.56 83.2643 143.721C83.2732 143.883 83.139 144.026 82.9959 144.035C81.9135 144.115 81.2426 144.796 81.2337 144.805C81.1889 144.858 81.1174 144.885 81.0548 144.894Z" fill="#060633"/>
<path d="M87.898 142.486C87.8175 142.486 87.737 142.441 87.6833 142.37C87.5849 142.235 87.6207 142.056 87.7459 141.958C87.7817 141.931 88.7121 141.259 90.0181 141.403C90.1791 141.421 90.2954 141.564 90.2775 141.725C90.2596 141.886 90.1075 142.003 89.9555 141.985C88.8731 141.868 88.0948 142.423 88.0859 142.432C88.0322 142.477 87.9606 142.495 87.898 142.486Z" fill="#060633"/>
<path d="M87.0661 147.598C87.8623 147.338 88.0322 146.676 87.9964 146.318C87.9964 146.255 87.9607 146.201 87.9159 146.156C87.0303 145.387 86.8783 144.062 86.8783 144.044C86.8604 143.909 86.7441 143.811 86.6099 143.829C86.4757 143.838 86.3773 143.963 86.3863 144.097C86.3863 144.16 86.5473 145.548 87.5044 146.452C87.4866 146.649 87.3613 147.114 86.5831 147.204C86.4489 147.222 86.3505 147.347 86.3684 147.481C86.3863 147.616 86.5115 147.714 86.6457 147.696C86.8067 147.678 86.9498 147.643 87.0751 147.607L87.0661 147.598Z" fill="#EA6868"/>
<path d="M48.0729 139.406C48.0729 139.406 49.853 136.327 50.2556 135.073C50.6581 133.82 51.9731 132.898 51.3648 132.441C50.7565 131.976 49.1016 133.892 49.1016 133.892C49.1016 133.892 48.6633 131.251 48.6543 130.418C48.6454 129.586 48.2428 128.1 47.6346 128.064C47.0263 128.028 47.3572 132.021 47.3572 132.021C47.3572 132.021 46.74 128.681 46.1943 128.529C45.6397 128.377 45.8007 132.728 45.8007 132.728C45.8007 132.728 45.3177 129.138 45.0404 128.887C44.7541 128.637 44.4321 128.995 44.2889 130.302C44.1548 131.618 44.3426 132.988 44.3426 132.988C44.3426 132.988 43.8148 130.49 43.6449 130.212C43.4749 129.935 43.0455 129.675 43.0455 131.636C43.0455 133.605 43.7433 137.849 44.9509 139.827L48.0818 139.388L48.0729 139.406Z" fill="#FB9391"/>
<path d="M115.316 128.252C115.316 128.252 113.536 125.181 113.133 123.919C112.731 122.665 111.416 121.743 112.024 121.287C112.632 120.821 114.287 122.737 114.287 122.737C114.287 122.737 114.725 120.096 114.734 119.264C114.743 118.431 115.146 116.945 115.754 116.909C116.362 116.873 116.031 120.866 116.031 120.866C116.031 120.866 116.649 117.527 117.194 117.375C117.749 117.222 117.588 121.573 117.588 121.573C117.588 121.573 118.071 117.983 118.348 117.733C118.635 117.482 118.957 117.84 119.1 119.147C119.234 120.463 119.037 121.833 119.037 121.833C119.037 121.833 119.565 119.335 119.735 119.058C119.905 118.78 120.334 118.52 120.334 120.481C120.334 122.451 119.636 126.694 118.429 128.672L115.298 128.234L115.316 128.252Z" fill="#FB9391"/>
<path d="M82.4592 175.225C79.8918 175.225 78.3443 174.016 78.3264 173.998C78.2816 173.962 78.2816 173.9 78.3085 173.864C78.3443 173.819 78.4069 173.819 78.4427 173.846C78.4784 173.873 81.8509 176.496 86.9498 173.837C86.9945 173.81 87.0571 173.837 87.084 173.882C87.1108 173.927 87.084 173.989 87.0392 174.016C85.2949 174.929 83.7473 175.234 82.4592 175.234V175.225Z" fill="#7C9AF2"/>
<path d="M89.714 148.645C89.714 148.645 88.6584 148.296 88.3274 148.475C87.9964 148.663 87.9159 149.129 87.9159 149.129C87.9159 149.129 87.6028 148.762 87.1735 148.86C86.7441 148.959 85.5186 150.113 85.5186 150.113C85.5186 150.113 87.3076 151.6 88.5332 151.044C89.7855 150.48 89.705 148.645 89.705 148.645H89.714Z" fill="#EA6868"/>
<path d="M85.5275 150.113C85.5275 150.113 88.1216 149.361 89.7229 148.645C89.7229 148.645 89.2756 150.158 88.2827 150.418C87.2808 150.669 85.5364 150.113 85.5364 150.113H85.5275Z" fill="white"/>
<path d="M136.159 273.629C138.27 274.05 145.14 272.08 145.256 271.481C145.373 270.881 139.791 266.414 137.679 265.993C135.568 265.572 133.52 266.942 133.099 269.046C132.679 271.158 134.048 273.208 136.15 273.629H136.159Z" fill="#91B5F8"/>
<path d="M176.789 250.631C175.429 252.296 173.971 259.305 174.445 259.69C174.919 260.075 181.476 257.211 182.827 255.545C184.187 253.88 183.927 251.418 182.264 250.067C180.6 248.706 178.14 248.965 176.789 250.631Z" fill="#91B5F8"/>
<path d="M154.434 273.62C153.674 275.634 154.506 282.743 155.087 282.958C155.66 283.172 160.964 278.383 161.725 276.369C162.485 274.354 161.465 272.107 159.453 271.346C157.44 270.585 155.195 271.606 154.434 273.62Z" fill="#91B5F8"/>
<path d="M177.988 263.316C175.841 263.459 169.722 267.166 169.767 267.774C169.812 268.383 176.369 271.23 178.515 271.087C180.662 270.944 182.282 269.081 182.138 266.933C181.995 264.784 180.135 263.164 177.988 263.307V263.316Z" fill="#91B5F8"/>
<path d="M170.67 280.532C168.336 281.704 163.237 288.732 163.577 289.394C163.908 290.057 172.585 290.146 174.919 288.974C177.254 287.801 178.193 284.954 177.013 282.626C175.841 280.29 172.996 279.35 170.67 280.532Z" fill="#91B5F8"/>
<path d="M160.786 265.044C162.405 266.458 169.346 268.168 169.749 267.703C170.151 267.237 167.522 260.586 165.902 259.171C164.283 257.757 161.823 257.918 160.41 259.547C158.997 261.167 159.158 263.629 160.777 265.044H160.786Z" fill="#91B5F8"/>
<path d="M147.609 289.135C149.747 289.394 156.447 286.906 156.519 286.297C156.59 285.688 150.686 281.659 148.548 281.4C146.41 281.14 144.469 282.662 144.21 284.793C143.95 286.932 145.471 288.875 147.6 289.135H147.609Z" fill="#91B5F8"/>
<path d="M159.104 293.002C159.014 293.02 158.925 293.038 158.835 293.056C158.791 292.895 158.737 292.716 158.674 292.519C158.272 291.149 157.547 288.947 156.447 286.422C156.358 286.216 156.268 286.019 156.179 285.813C153.978 280.943 150.427 275.062 145.14 271.633C145.104 271.606 145.068 271.588 145.033 271.561L145.176 271.328C145.176 271.328 145.221 271.355 145.238 271.364C149.47 274.095 152.609 278.374 154.828 282.483C154.917 282.644 154.998 282.805 155.087 282.958C157.136 286.843 158.37 290.504 158.943 292.456C159.005 292.653 159.059 292.832 159.104 292.993V293.002Z" fill="#91B5F8"/>
<path d="M175.519 258.553C175.179 258.92 174.848 259.305 174.526 259.717C172.889 261.803 171.431 264.426 170.151 267.291C170.053 267.506 169.964 267.721 169.874 267.936C166.806 275.035 164.784 283.468 163.702 288.839C163.666 289.036 163.621 289.224 163.586 289.403C163.416 290.272 163.272 291.051 163.147 291.713C163.111 291.919 163.076 292.116 163.04 292.295C162.941 292.304 162.843 292.322 162.745 292.34C162.78 292.161 162.816 291.964 162.852 291.758C163.693 287.022 165.858 276.431 169.633 267.765C169.686 267.649 169.74 267.524 169.785 267.407C171.118 264.408 172.638 261.66 174.365 259.485C174.678 259.091 174.991 258.724 175.313 258.374L175.519 258.562V258.553Z" fill="#91B5F8"/>
<path d="M161.304 292.572C161.313 292.384 161.322 292.187 161.331 291.999C161.537 287.076 161.233 282.367 160.642 278.052C160.32 275.697 159.918 273.459 159.462 271.355C158.129 265.187 156.367 260.201 155.087 257.031C154.39 255.304 153.835 254.113 153.567 253.558C153.504 253.433 153.459 253.334 153.432 253.28C153.415 253.254 153.406 253.236 153.406 253.218C153.406 253.218 153.406 253.209 153.406 253.2L153.361 253.218L153.307 253.245L153.209 253.298L153.182 253.316H153.164C153.164 253.316 153.164 253.334 153.182 253.361C153.182 253.361 153.209 253.424 153.236 253.468C153.262 253.513 153.28 253.576 153.316 253.639C153.584 254.185 154.166 255.429 154.899 257.255C156.161 260.398 157.86 265.259 159.175 271.248C159.658 273.459 160.088 275.831 160.419 278.329C160.982 282.582 161.269 287.201 161.072 292.044C161.072 292.232 161.054 292.429 161.045 292.617L161.322 292.572H161.304Z" fill="#91B5F8"/>
<path d="M150.132 252.108C150.704 252.672 153.254 253.468 153.415 253.307C153.576 253.146 152.753 250.604 152.18 250.04C151.608 249.476 150.686 249.485 150.123 250.049C149.559 250.622 149.568 251.544 150.132 252.108Z" fill="white"/>
<path d="M153.79 249.753C153.352 250.425 153.101 253.083 153.298 253.209C153.495 253.334 155.803 252 156.241 251.329C156.68 250.657 156.483 249.753 155.803 249.315C155.132 248.876 154.229 249.073 153.79 249.753Z" fill="white"/>
<path d="M156.841 252.358C156.053 252.197 153.486 252.931 153.441 253.164C153.397 253.388 155.481 255.053 156.268 255.214C157.055 255.375 157.825 254.865 157.977 254.077C158.138 253.289 157.628 252.519 156.841 252.367V252.358Z" fill="white"/>
<path d="M155.32 255.966C155.186 255.178 153.593 253.03 153.37 253.075C153.146 253.11 152.323 255.653 152.457 256.45C152.592 257.246 153.334 257.775 154.13 257.649C154.926 257.515 155.454 256.772 155.329 255.975L155.32 255.966Z" fill="white"/>
<path d="M151.357 256.065C152.037 255.644 153.415 253.352 153.298 253.164C153.182 252.967 150.516 253.164 149.836 253.594C149.156 254.015 148.942 254.91 149.362 255.599C149.783 256.28 150.677 256.494 151.366 256.074L151.357 256.065Z" fill="white"/>
<path d="M152.824 253.119C152.851 252.86 153.084 252.663 153.343 252.69C153.602 252.716 153.799 252.949 153.781 253.209C153.754 253.468 153.522 253.665 153.262 253.639C153.003 253.612 152.806 253.379 152.824 253.119Z" fill="#91B5F8"/>
<path d="M169.275 291.776C169.364 291.588 169.454 291.4 169.543 291.212C169.776 290.737 170.035 290.263 170.313 289.806C172.048 286.879 174.472 284.336 176.825 282.286C179.589 279.887 182.255 278.177 183.57 277.389C183.57 277.389 183.579 277.389 183.588 277.389C183.659 277.353 183.713 277.309 183.775 277.273C183.963 277.156 184.115 277.076 184.223 277.013C184.223 277.013 184.232 277.004 184.241 277.004C184.276 276.986 184.303 276.968 184.33 276.951C184.384 276.924 184.411 276.906 184.419 276.897V276.879L184.357 276.78L184.285 276.664C184.285 276.664 184.276 276.664 184.258 276.682C184.097 276.771 183.203 277.264 181.906 278.114C180.492 279.045 178.605 280.388 176.655 282.071C174.231 284.175 171.726 286.807 169.964 289.842C169.695 290.299 169.445 290.755 169.221 291.23C169.132 291.418 169.042 291.606 168.953 291.803H169.257L169.275 291.776Z" fill="#91B5F8"/>
<path d="M188.042 276.234C187.38 276.691 184.733 277.013 184.598 276.825C184.473 276.637 185.734 274.283 186.396 273.835C187.058 273.379 187.962 273.549 188.418 274.211C188.874 274.874 188.704 275.778 188.042 276.234Z" fill="white"/>
<path d="M184.867 273.262C185.171 274.005 184.947 276.664 184.742 276.754C184.527 276.843 182.487 275.115 182.183 274.372C181.879 273.629 182.228 272.779 182.97 272.474C183.713 272.17 184.563 272.519 184.867 273.262Z" fill="white"/>
<path d="M181.405 275.276C182.21 275.259 184.598 276.44 184.607 276.673C184.607 276.906 182.264 278.168 181.459 278.186C180.653 278.204 179.991 277.559 179.983 276.763C179.965 275.957 180.609 275.294 181.405 275.285V275.276Z" fill="white"/>
<path d="M182.255 279.099C182.523 278.347 184.482 276.521 184.697 276.601C184.911 276.682 185.269 279.323 184.992 280.084C184.724 280.845 183.892 281.23 183.131 280.961C182.38 280.693 181.986 279.86 182.255 279.099Z" fill="white"/>
<path d="M186.137 279.896C185.538 279.359 184.589 276.861 184.741 276.691C184.894 276.521 187.479 277.192 188.078 277.729C188.677 278.267 188.722 279.189 188.185 279.78C187.649 280.379 186.727 280.424 186.137 279.887V279.896Z" fill="white"/>
<path d="M185.225 276.736C185.251 276.476 185.055 276.243 184.795 276.216C184.536 276.19 184.303 276.387 184.276 276.646C184.249 276.906 184.446 277.139 184.706 277.165C184.965 277.192 185.198 276.995 185.225 276.736Z" fill="#91B5F8"/>
<path d="M220.881 259.574C222.464 259.887 227.626 258.41 227.715 257.963C227.805 257.506 223.61 254.158 222.026 253.836C220.443 253.522 218.904 254.543 218.582 256.127C218.269 257.712 219.289 259.252 220.872 259.574H220.881Z" fill="#91B5F8"/>
<path d="M251.394 242.305C250.374 243.558 249.274 248.822 249.632 249.109C249.99 249.404 254.91 247.247 255.929 245.993C256.949 244.74 256.761 242.896 255.509 241.875C254.257 240.855 252.414 241.043 251.394 242.296V242.305Z" fill="#91B5F8"/>
<path d="M234.612 259.574C234.04 261.087 234.666 266.423 235.095 266.584C235.525 266.745 239.515 263.146 240.078 261.633C240.651 260.12 239.881 258.437 238.37 257.864C236.858 257.291 235.176 258.061 234.603 259.574H234.612Z" fill="#91B5F8"/>
<path d="M252.298 251.83C250.687 251.938 246.089 254.722 246.125 255.178C246.152 255.635 251.081 257.775 252.691 257.667C254.301 257.56 255.518 256.163 255.411 254.552C255.303 252.94 253.908 251.723 252.298 251.83Z" fill="#91B5F8"/>
<path d="M246.805 264.757C245.052 265.635 241.223 270.917 241.474 271.418C241.724 271.919 248.236 271.982 249.99 271.105C251.743 270.227 252.45 268.088 251.564 266.333C250.687 264.578 248.549 263.871 246.796 264.757H246.805Z" fill="#91B5F8"/>
<path d="M239.38 253.128C240.597 254.194 245.812 255.474 246.116 255.125C246.42 254.776 244.443 249.78 243.227 248.715C242.01 247.649 240.168 247.775 239.103 248.992C238.039 250.21 238.164 252.054 239.38 253.119V253.128Z" fill="#91B5F8"/>
<path d="M229.487 271.221C231.088 271.418 236.124 269.547 236.178 269.09C236.232 268.634 231.795 265.608 230.193 265.411C228.592 265.214 227.134 266.36 226.937 267.962C226.74 269.565 227.885 271.024 229.487 271.221Z" fill="#91B5F8"/>
<path d="M238.11 274.122C238.039 274.139 237.976 274.148 237.904 274.166C237.869 274.041 237.833 273.907 237.788 273.763C237.484 272.734 236.938 271.087 236.115 269.189C236.053 269.037 235.981 268.884 235.91 268.732C234.264 265.071 231.589 260.657 227.617 258.079C227.59 258.061 227.563 258.043 227.537 258.025L227.644 257.855C227.644 257.855 227.68 257.873 227.689 257.882C230.873 259.932 233.226 263.146 234.89 266.226C234.961 266.342 235.024 266.467 235.087 266.584C236.625 269.502 237.547 272.251 237.985 273.719C238.03 273.871 238.065 274.005 238.101 274.122H238.11Z" fill="#91B5F8"/>
<path d="M250.446 248.258C250.195 248.536 249.945 248.822 249.703 249.136C248.478 250.702 247.378 252.672 246.42 254.82C246.349 254.981 246.277 255.143 246.215 255.304C243.907 260.639 242.395 266.969 241.581 271.006C241.554 271.149 241.518 271.293 241.491 271.427C241.366 272.08 241.25 272.662 241.16 273.164C241.134 273.316 241.107 273.468 241.08 273.602C241.008 273.602 240.928 273.62 240.856 273.638C240.883 273.504 240.91 273.352 240.937 273.199C241.563 269.645 243.191 261.687 246.027 255.178C246.063 255.089 246.107 254.999 246.143 254.91C247.145 252.654 248.29 250.595 249.587 248.956C249.82 248.661 250.061 248.384 250.303 248.124L250.455 248.267L250.446 248.258Z" fill="#91B5F8"/>
<path d="M239.765 273.799C239.765 273.656 239.783 273.513 239.783 273.37C239.935 269.672 239.711 266.136 239.264 262.895C239.023 261.123 238.718 259.449 238.378 257.864C237.377 253.236 236.053 249.494 235.095 247.103C234.577 245.805 234.156 244.91 233.95 244.498C233.906 244.4 233.87 244.328 233.843 244.292C233.834 244.274 233.825 244.257 233.825 244.248C233.825 244.248 233.825 244.248 233.825 244.239L233.789 244.257L233.754 244.274L233.682 244.31H233.655L233.637 244.328C233.637 244.328 233.637 244.337 233.655 244.355C233.655 244.355 233.673 244.4 233.691 244.436C233.691 244.436 233.727 244.516 233.754 244.561C233.95 244.973 234.389 245.904 234.943 247.282C235.892 249.637 237.171 253.289 238.155 257.793C238.522 259.458 238.844 261.239 239.094 263.11C239.523 266.306 239.738 269.78 239.577 273.405C239.577 273.549 239.568 273.692 239.559 273.835L239.765 273.799Z" fill="#91B5F8"/>
<path d="M231.383 243.415C231.813 243.836 233.727 244.436 233.843 244.31C233.968 244.185 233.342 242.278 232.913 241.857C232.483 241.437 231.795 241.437 231.365 241.866C230.945 242.296 230.945 242.985 231.374 243.415H231.383Z" fill="white"/>
<path d="M234.129 241.651C233.807 242.162 233.611 244.158 233.754 244.248C233.897 244.337 235.632 243.343 235.963 242.833C236.285 242.323 236.142 241.651 235.632 241.32C235.122 240.998 234.451 241.141 234.12 241.651H234.129Z" fill="white"/>
<path d="M236.41 243.603C235.82 243.487 233.897 244.033 233.861 244.203C233.825 244.373 235.391 245.626 235.981 245.743C236.571 245.859 237.144 245.474 237.269 244.883C237.385 244.292 237.001 243.719 236.41 243.594V243.603Z" fill="white"/>
<path d="M235.274 246.307C235.176 245.716 233.977 244.104 233.807 244.131C233.637 244.158 233.02 246.065 233.119 246.665C233.217 247.256 233.78 247.658 234.371 247.56C234.961 247.461 235.364 246.897 235.265 246.307H235.274Z" fill="white"/>
<path d="M232.296 246.378C232.805 246.065 233.843 244.346 233.754 244.194C233.664 244.051 231.66 244.194 231.151 244.516C230.641 244.829 230.48 245.501 230.793 246.02C231.106 246.53 231.777 246.692 232.296 246.378Z" fill="white"/>
<path d="M233.396 244.167C233.414 243.97 233.593 243.827 233.789 243.845C233.986 243.863 234.129 244.042 234.111 244.239C234.094 244.436 233.915 244.579 233.718 244.561C233.521 244.543 233.378 244.364 233.396 244.167Z" fill="#91B5F8"/>
<path d="M245.749 273.2C245.812 273.056 245.884 272.913 245.955 272.779C246.134 272.421 246.322 272.072 246.528 271.722C247.834 269.529 249.659 267.613 251.421 266.073C253.496 264.265 255.5 262.985 256.484 262.394C256.484 262.394 256.484 262.394 256.493 262.394C256.547 262.367 256.591 262.331 256.636 262.313C256.779 262.233 256.896 262.161 256.976 262.117C256.976 262.117 256.976 262.117 256.985 262.117C257.012 262.099 257.039 262.09 257.057 262.081C257.092 262.054 257.119 262.045 257.128 262.045V262.027L257.083 261.955L257.03 261.866C257.03 261.866 257.03 261.866 257.012 261.875C256.887 261.946 256.216 262.313 255.25 262.949C254.185 263.647 252.772 264.65 251.305 265.921C249.489 267.497 247.601 269.475 246.277 271.758C246.08 272.098 245.893 272.448 245.723 272.797C245.651 272.94 245.588 273.083 245.517 273.226H245.749V273.2Z" fill="#91B5F8"/>
<path d="M259.848 261.526C259.347 261.866 257.361 262.117 257.262 261.973C257.164 261.83 258.112 260.066 258.613 259.726C259.114 259.386 259.794 259.511 260.134 260.013C260.474 260.514 260.349 261.194 259.848 261.535V261.526Z" fill="white"/>
<path d="M257.459 259.297C257.692 259.852 257.522 261.857 257.361 261.92C257.2 261.982 255.67 260.693 255.437 260.138C255.205 259.583 255.473 258.938 256.028 258.715C256.582 258.482 257.227 258.75 257.45 259.305L257.459 259.297Z" fill="white"/>
<path d="M254.865 260.809C255.464 260.8 257.262 261.687 257.271 261.857C257.271 262.027 255.509 262.985 254.91 262.994C254.31 263.003 253.809 262.528 253.8 261.92C253.791 261.32 254.266 260.818 254.874 260.809H254.865Z" fill="white"/>
<path d="M255.509 263.683C255.715 263.119 257.182 261.749 257.343 261.803C257.504 261.857 257.772 263.853 257.566 264.417C257.361 264.981 256.735 265.277 256.171 265.08C255.607 264.874 255.312 264.247 255.509 263.683Z" fill="white"/>
<path d="M258.416 264.283C257.969 263.88 257.253 262.009 257.37 261.875C257.486 261.749 259.427 262.251 259.874 262.654C260.322 263.057 260.357 263.746 259.955 264.193C259.552 264.641 258.864 264.677 258.416 264.274V264.283Z" fill="white"/>
<path d="M257.727 261.911C257.745 261.714 257.602 261.535 257.405 261.517C257.209 261.499 257.03 261.642 257.012 261.839C256.994 262.036 257.137 262.215 257.334 262.233C257.531 262.251 257.71 262.108 257.727 261.911Z" fill="#91B5F8"/>
</g>
<defs>
<clipPath id="clip0_17_448">
<rect width="492" height="309" fill="white"/>
</clipPath>
</defs>
</svg>
