<svg width="250" height="93" viewBox="0 0 250 93" fill="none" xmlns="http://www.w3.org/2000/svg">
<path d="M82.5912 79.8207V91.8188H41.6634V62.27H64.5262C74.4929 62.27 82.5782 70.1273 82.5782 79.8207H82.5912Z" fill="#FFB10A"/>
<path d="M41.6634 54.1151V33.177C41.6634 28.3271 45.7126 24.389 50.6991 24.389H82.5912V36.5643C82.5912 46.2514 74.5124 54.1151 64.5457 54.1151H41.6634Z" fill="#191D6B"/>
<path d="M17.3164 0.0952759H33.2005V91.8188H0V16.9306C0 7.64868 7.76632 0.0952759 17.3164 0.0952759Z" fill="#FF3859"/>
<path d="M99.862 24.4713H107.44V35.9312L117.907 24.4713H126.592L115.74 36.5264L127.243 54.0011H119.125L111.007 41.2623L107.427 45.0738V54.0201H99.8425V24.4713H99.862Z" fill="#191D6B"/>
<path d="M132.822 24.4713H140.406V48.3155H154.741V54.0011H132.822V24.4713Z" fill="#191D6B"/>
<path d="M170.605 24.4713H178.801L190.402 54.0011H182.486L179.752 47.3088H169.622L166.94 54.0011H159.024L170.618 24.4713H170.605ZM178.717 41.8448L174.667 31.5689L170.67 41.8448H178.736H178.717Z" fill="#191D6B"/>
<path d="M194.588 24.4713H209.534C213.017 24.4713 215.667 25.44 217.483 27.3901C219.28 29.3339 220.198 31.8791 220.198 35.0195C220.198 37.0329 219.768 38.831 218.883 40.3885C217.997 41.9397 216.734 43.1554 215.081 44.0355C213.434 44.9092 211.52 45.3461 209.352 45.3461H202.185V54.0201H194.601V24.4713H194.588ZM207.653 39.6414C209.215 39.6414 210.42 39.2172 211.233 38.3751C212.047 37.5331 212.464 36.3997 212.464 34.9562C212.464 33.3986 212.086 32.202 211.331 31.3726C210.582 30.5495 209.437 30.1443 207.881 30.1443H202.185V39.6414H207.653Z" fill="#191D6B"/>
<path d="M224.384 24.4713H239.33C242.813 24.4713 245.463 25.44 247.279 27.3901C249.082 29.3339 250 31.8791 250 35.0195C250 37.0329 249.564 38.831 248.678 40.3885C247.8 41.9397 246.53 43.1554 244.883 44.0355C243.23 44.9092 241.316 45.3461 239.148 45.3461H231.981V54.0201H224.397V24.4713H224.384ZM237.449 39.6414C239.018 39.6414 240.216 39.2172 241.029 38.3751C241.85 37.5331 242.266 36.3997 242.266 34.9562C242.266 33.3986 241.882 32.202 241.134 31.3726C240.378 30.5495 239.233 30.1443 237.683 30.1443H231.981V39.6414H237.449Z" fill="#191D6B"/>
<path d="M99.862 62.4599H122.256V68.1519H107.459V74.344H120.524V80.112H107.459V86.3041H122.256V91.9961H99.862V62.4599Z" fill="#191D6B"/>
<path d="M126.442 62.4599H139.592C144.338 62.4599 147.886 63.6439 150.275 65.9992C152.638 68.3482 153.836 72.1534 153.836 77.4085C153.836 82.385 152.657 86.0635 150.275 88.4315C147.905 90.7931 144.338 91.9771 139.592 91.9771H126.442V62.4473V62.4599ZM138.557 86.3041C140.321 86.3041 141.721 86.0635 142.808 85.576C143.869 85.0885 144.689 84.1957 145.256 82.9168C145.822 81.6378 146.108 79.8081 146.108 77.4211C146.108 75.0405 145.841 73.1284 145.321 71.7988C144.806 70.4692 144.006 69.5321 142.925 68.9813C141.838 68.4305 140.386 68.1519 138.557 68.1519H134.026V86.3041H138.557Z" fill="#191D6B"/>
<path d="M161.921 89.4002C159.421 87.3741 158.171 84.487 158.171 80.7641V62.4599H165.755V80.0677C165.755 82.1064 166.302 83.6449 167.389 84.6516C168.47 85.6583 170.052 86.1585 172.122 86.1585C174.186 86.1585 175.768 85.6583 176.855 84.6516C177.935 83.6449 178.489 82.1064 178.489 80.0677V62.4599H186.066V80.7641C186.066 84.487 184.816 87.3741 182.317 89.4002C179.817 91.4263 176.419 92.4456 172.122 92.4456C167.819 92.4456 164.401 91.4263 161.921 89.4002Z" fill="#191D6B"/>
</svg>
