<svg width="19" height="16" viewBox="0 0 19 16" fill="none" xmlns="http://www.w3.org/2000/svg">
<path d="M13.4444 15V13.4444C13.4444 12.6193 13.1167 11.828 12.5332 11.2446C11.9498 10.6611 11.1584 10.3333 10.3333 10.3333H4.11111C3.28599 10.3333 2.49467 10.6611 1.91122 11.2446C1.32778 11.828 1 12.6193 1 13.4444V15" stroke="white" stroke-width="1.4" stroke-linecap="round" stroke-linejoin="round"/>
<path d="M7.22222 7.22222C8.94044 7.22222 10.3333 5.82933 10.3333 4.11111C10.3333 2.39289 8.94044 1 7.22222 1C5.50401 1 4.11111 2.39289 4.11111 4.11111C4.11111 5.82933 5.50401 7.22222 7.22222 7.22222Z" stroke="white" stroke-width="1.4" stroke-linecap="round" stroke-linejoin="round"/>
<path d="M18.1111 15V13.4444C18.1106 12.7551 17.8812 12.0855 17.4588 11.5407C17.0365 10.9959 16.4452 10.6068 15.7778 10.4344" stroke="white" stroke-width="1.4" stroke-linecap="round" stroke-linejoin="round"/>
<path d="M12.6667 1.10112C13.3359 1.27247 13.929 1.66167 14.3526 2.20736C14.7762 2.75306 15.0061 3.42421 15.0061 4.11501C15.0061 4.80581 14.7762 5.47696 14.3526 6.02265C13.929 6.56835 13.3359 6.95755 12.6667 7.1289" stroke="white" stroke-width="1.4" stroke-linecap="round" stroke-linejoin="round"/>
</svg>
